<svg id="Icon_Set" enable-background="new 0 0 64 64" height="512" viewBox="0 0 64 64" width="512" xmlns="http://www.w3.org/2000/svg"><path d="m5 50v-40h43v40c0 1.105-.895 2-2 2h-39c-1.105 0-2-.895-2-2z" fill="#c2c2c2"/><path d="m46 52.5h-39c-1.378 0-2.5-1.122-2.5-2.5v-40c0-.276.224-.5.5-.5h43c.276 0 .5.224.5.5v40c0 1.378-1.122 2.5-2.5 2.5zm-40.5-42v39.5c0 .827.673 1.5 1.5 1.5h39c.827 0 1.5-.673 1.5-1.5v-39.5z" fill="#212a41"/><path d="m8 50v-40h43v40c0 1.105-.895 2-2 2h-39c-1.105 0-2-.895-2-2z" fill="#e0e0e0"/><path d="m49 52.5h-39c-1.378 0-2.5-1.122-2.5-2.5v-40c0-.276.224-.5.5-.5h43c.276 0 .5.224.5.5v40c0 1.378-1.122 2.5-2.5 2.5zm-40.5-42v39.5c0 .827.673 1.5 1.5 1.5h39c.827 0 1.5-.673 1.5-1.5v-39.5z" fill="#212a41"/><path d="m46 4h-39c-1.105 0-2 .895-2 2v4h43v-4c0-1.105-.895-2-2-2z" fill="#c2c2c2"/><path d="m48 10.5h-43c-.276 0-.5-.224-.5-.5v-4c0-1.378 1.122-2.5 2.5-2.5h39c1.378 0 2.5 1.122 2.5 2.5v4c0 .276-.224.5-.5.5zm-42.5-1h42v-3.5c0-.827-.673-1.5-1.5-1.5h-39c-.827 0-1.5.673-1.5 1.5z" fill="#212a41"/><path d="m10 50.5c-.276 0-.5-.224-.5-.5v-38c0-.276.224-.5.5-.5s.5.224.5.5v38c0 .276-.224.5-.5.5z" fill="#fefefe"/><path d="m49 50.5c-.276 0-.5-.224-.5-.5v-38c0-.276.224-.5.5-.5s.5.224.5.5v38c0 .276-.224.5-.5.5z" fill="#c2c2c2"/><path d="m49 4h-39c-1.105 0-2 .895-2 2v4h43v-4c0-1.105-.895-2-2-2z" fill="#e0e0e0"/><path d="m51 10.5h-43c-.276 0-.5-.224-.5-.5v-4c0-1.378 1.122-2.5 2.5-2.5h39c1.378 0 2.5 1.122 2.5 2.5v4c0 .276-.224.5-.5.5zm-42.5-1h42v-3.5c0-.827-.673-1.5-1.5-1.5h-39c-.827 0-1.5.673-1.5 1.5z" fill="#212a41"/><path d="m43 7.5h-2c-.276 0-.5-.224-.5-.5s.224-.5.5-.5h2c.276 0 .5.224.5.5s-.224.5-.5.5z" fill="#212a41"/><path d="m48 8.5c-.128 0-.256-.049-.354-.146l-2-2c-.195-.195-.195-.512 0-.707s.512-.195.707 0l2 2c.195.195.195.512 0 .707-.097.097-.225.146-.353.146z" fill="#212a41"/><path d="m46 8.5c-.128 0-.256-.049-.354-.146-.195-.195-.195-.512 0-.707l2-2c.195-.195.512-.195.707 0s.195.512 0 .707l-2 2c-.097.097-.225.146-.353.146z" fill="#212a41"/><path d="m32.958 52.222 21.213-21.213c.781-.781 2.047-.781 2.828 0l1.414 1.414c.781.781.781 2.047 0 2.828l-21.212 21.213c-.391.391-1.024.391-1.414 0l-2.828-2.828c-.391-.39-.391-1.024-.001-1.414z" fill="#d32e5e"/><path d="m36.494 57.257c-.384 0-.768-.146-1.061-.439l-2.828-2.828c-.585-.585-.585-1.537 0-2.122l21.213-21.213c.975-.975 2.561-.975 3.536 0l1.414 1.414c.975.975.975 2.561 0 3.536l-21.213 21.213c-.293.292-.677.439-1.061.439zm19.092-26.334c-.401 0-.778.156-1.061.439l-21.213 21.213c-.195.195-.195.512 0 .708l2.828 2.828c.195.196.512.195.708 0l21.213-21.213c.283-.283.439-.66.439-1.061 0-.4-.156-.777-.439-1.061l-1.414-1.414c-.284-.283-.661-.439-1.061-.439z" fill="#212a41"/><path d="m42.151 43.029-.707-.707c-.391-.391-.391-1.024 0-1.414l8.485-8.485c.391-.391 1.024-.391 1.414 0l.707.707c.391.391.391 1.024 0 1.414l-8.485 8.485c-.391.391-1.024.391-1.414 0z" fill="#e0e0e0"/><path d="m42.858 43.821c-.384 0-.768-.146-1.061-.438l-.707-.707c-.585-.585-.585-1.536 0-2.121l8.485-8.485c.584-.585 1.536-.585 2.122 0l.707.707c.283.283.439.66.439 1.061s-.156.778-.439 1.061l-8.485 8.485c-.293.291-.677.437-1.061.437zm7.778-11.191c-.128 0-.256.049-.354.146l-8.485 8.485c-.195.195-.195.512 0 .707l.707.707c.195.195.512.195.707 0l8.485-8.485c.095-.095.146-.22.146-.354 0-.133-.052-.259-.146-.354l-.707-.707c-.097-.096-.225-.145-.353-.145z" fill="#212a41"/><path d="m33.665 58.586-4.242 1.414 1.414-4.243 2.121-2.121 2.829 2.828z" fill="#b7c0d7"/><g fill="#212a41"><path d="m29.423 60.5c-.13 0-.258-.051-.354-.146-.134-.134-.181-.332-.121-.512l1.414-4.243c.024-.074.066-.141.121-.195l2.122-2.121c.195-.195.512-.195.707 0l2.828 2.828c.195.195.195.512 0 .707l-2.121 2.122c-.055.055-.122.096-.195.121l-4.243 1.414c-.052.017-.105.025-.158.025zm1.851-4.473-1.061 3.182 3.182-1.061 1.684-1.685-2.121-2.121zm2.392 2.559h.01z"/><path d="m57.707 36.458c-.128 0-.256-.049-.354-.146l-4.243-4.243c-.195-.195-.195-.512 0-.707s.512-.195.707 0l4.243 4.243c.195.195.195.512 0 .707-.097.098-.225.146-.353.146z"/><path d="m43 22.5h-28c-.276 0-.5-.224-.5-.5s.224-.5.5-.5h28c.276 0 .5.224.5.5s-.224.5-.5.5z"/><path d="m43 18.5h-28c-.276 0-.5-.224-.5-.5s.224-.5.5-.5h28c.276 0 .5.224.5.5s-.224.5-.5.5z"/><path d="m25 26.5h-10c-.276 0-.5-.224-.5-.5s.224-.5.5-.5h10c.276 0 .5.224.5.5s-.224.5-.5.5z"/><path d="m43 34.5h-28c-.276 0-.5-.224-.5-.5s.224-.5.5-.5h28c.276 0 .5.224.5.5s-.224.5-.5.5z"/><path d="m37 38.5h-22c-.276 0-.5-.224-.5-.5s.224-.5.5-.5h22c.276 0 .5.224.5.5s-.224.5-.5.5z"/><path d="m37 42.5h-22c-.276 0-.5-.224-.5-.5s.224-.5.5-.5h22c.276 0 .5.224.5.5s-.224.5-.5.5z"/></g></svg>