<?xml version="1.0" encoding="utf-8"?>
<!-- Generator: Adobe Illustrator 22.1.0, SVG Export Plug-In . SVG Version: 6.00 Build 0)  -->
<svg version="1.0" xmlns="http://www.w3.org/2000/svg" xmlns:xlink="http://www.w3.org/1999/xlink" x="0px" y="0px"
	 viewBox="0 0 500 268.7" style="enable-background:new 0 0 500 268.7;" xml:space="preserve">
<style type="text/css">
	.st0{fill:url(#SVGID_1_);}
	.st1{fill:#25A9E0;}
	.st2{fill:url(#SVGID_2_);}
	.st3{fill:#808285;}
	.st4{fill:url(#SVGID_3_);}
	.st5{fill:#BEBCBA;}
	.st6{opacity:0.2;}
	.st7{opacity:8.000000e-02;fill:#F5F7F9;}
	.st8{fill:#FFFFFF;}
	.st9{fill:#0C4D7F;}
	.st10{fill:#D7D5D4;}
	.st11{fill:#FFFFFE;}
	.st12{fill:#F5F7F9;}
	.st13{opacity:0.44;fill:#413068;}
	.st14{opacity:0.3;}
	.st15{fill:#4A2FAF;}
	.st16{opacity:0.3;fill:#BEBCBA;}
	.st17{opacity:7.000000e-02;fill:#F7F9FA;}
	.st18{fill:#DFE2EC;}
	.st19{fill:#7CCBEC;}
	.st20{opacity:0.1;}
	.st21{opacity:0.3;fill:#808285;}
	.st22{opacity:9.000000e-02;fill:#F7F9FA;}
	.st23{fill:#3D7199;}
	.st24{opacity:8.000000e-02;fill:#231F20;}
	.st25{fill:#606060;}
	.st26{opacity:0.5;}
	.st27{fill:#E0E4F0;}
	.st28{opacity:0.47;}
	.st29{fill:#4D5068;}
	.st30{fill:#CBC9C8;}
	.st31{fill:#51BAE6;}
	.st32{fill:#BDA36D;}
	.st33{opacity:0.35;}
	.st34{fill:#231F20;}
	.st35{fill:#212121;stroke:#E0E4F0;stroke-miterlimit:10;}
	.st36{fill:#F2F3F7;}
	.st37{fill:#E5E4E3;}
	.st38{fill:#F9F9FB;}
	.st39{opacity:0.4;}
	.st40{fill:#717386;}
	.st41{opacity:0.18;}
	.st42{fill:#3E4154;}
</style>
<g id="Bg">
</g>
<g id="Graphics">
	<g id="Layer_6">
		<g class="st26">
			
				<ellipse transform="matrix(0.2287 -0.9735 0.9735 0.2287 208.8626 595.6896)" class="st27" cx="480.4" cy="166" rx="11.6" ry="11.6"/>
		</g>
		<g class="st26">
			<path class="st27" d="M325.6,21.7c0,8.3-6.7,15.1-15.1,15.1c-8.3,0-15.1-6.7-15.1-15.1c0-8.3,6.7-15.1,15.1-15.1
				C318.8,6.6,325.6,13.4,325.6,21.7z"/>
		</g>
		<g class="st26">
			<path class="st27" d="M118.4,40.9c0,4.2-3.4,7.7-7.7,7.7c-4.2,0-7.7-3.4-7.7-7.7c0-4.2,3.4-7.7,7.7-7.7
				C115,33.3,118.4,36.7,118.4,40.9z"/>
		</g>
		<g class="st26">
			<path class="st27" d="M388.4,55.5c0,4.2-3.4,7.7-7.7,7.7s-7.7-3.4-7.7-7.7c0-4.2,3.4-7.7,7.7-7.7S388.4,51.3,388.4,55.5z"/>
		</g>
		<g class="st26">
			<path class="st27" d="M495.2,199.7c0,1.7-1.4,3.2-3.2,3.2c-1.7,0-3.2-1.4-3.2-3.2s1.4-3.2,3.2-3.2
				C493.7,196.5,495.2,197.9,495.2,199.7z"/>
		</g>
		<g class="st26">
			<path class="st27" d="M372.6,27.9c0,1.3-1.1,2.4-2.4,2.4c-1.3,0-2.4-1.1-2.4-2.4c0-1.3,1.1-2.4,2.4-2.4
				C371.6,25.5,372.6,26.6,372.6,27.9z"/>
		</g>
		<g class="st26">
			<path class="st27" d="M33.8,77.3c0,2.3-1.8,4.1-4.1,4.1c-2.3,0-4.1-1.8-4.1-4.1c0-2.3,1.8-4.1,4.1-4.1C32,73.2,33.8,75,33.8,77.3
				z"/>
		</g>
		<g class="st26">
			<path class="st27" d="M488.6,116.1c0,2.3-1.8,4.1-4.1,4.1c-2.3,0-4.1-1.8-4.1-4.1c0-2.3,1.8-4.1,4.1-4.1
				C486.7,112,488.6,113.9,488.6,116.1z"/>
		</g>
		<g class="st26">
			
				<ellipse transform="matrix(0.1602 -0.9871 0.9871 0.1602 -4.3937 123.7506)" class="st27" cx="70.5" cy="64.5" rx="17.4" ry="17.4"/>
		</g>
		<g class="st26">
			<path class="st27" d="M18.3,206.9c0,2.3-1.8,4.1-4.1,4.1c-2.3,0-4.1-1.8-4.1-4.1s1.8-4.1,4.1-4.1
				C16.5,202.8,18.3,204.6,18.3,206.9z"/>
		</g>
		<g class="st26">
			<circle class="st27" cx="458.2" cy="55.5" r="16.8"/>
		</g>
		<g class="st26">
			
				<ellipse transform="matrix(0.9239 -0.3827 0.3827 0.9239 -48.7417 16.9858)" class="st27" cx="18.3" cy="131" rx="13.3" ry="13.3"/>
		</g>
		<g class="st28">
			<path class="st27" d="M478.2,256c0-31.5-6.7-61.3-18.7-88.3c4.3-9,6.8-19.1,6.8-29.7c0-37.8-30.7-68.5-68.5-68.5
				c-7.1,0-13.9,1.1-20.4,3.1C343.7,51,303.7,38.6,260.8,38.6c-5.3,0-10.6,0.2-15.9,0.6c-9.4-7.1-21-11.3-33.7-11.3
				c-23.9,0-44.3,15-52.3,36c-16.5,8.8-31.7,19.6-45.3,32.1c-4.4-1-9-1.6-13.8-1.6c-34.3,0-62.1,27.8-62.1,62.1
				c0,14.9,5.3,28.6,14.1,39.3c-5.5,19.1-8.4,39.2-8.4,60.1H478.2z"/>
		</g>
		<g class="st28">
			<path class="st27" d="M417.5,255.5c0-87.2-70.7-157.9-157.9-157.9c-87.2,0-157.9,70.7-157.9,157.9H417.5z"/>
		</g>
	</g>
	<g id="Layer_13">
		<g>
			<g>
				<path class="st1" d="M424.9,159c-0.1,0-0.2,0.1-0.3,0.1c-2.9,1.4-4.4,1.1-7.2-0.1c-2.6-1.2-5.1-2.6-7.2-4.5
					c-2.7-2.4-4.8-5.6-5.3-9.2c-0.1-0.8-0.1-1.7,0.4-2.3c0.7-0.9,2-1,3-0.6c1,0.4,1.9,1.2,2.7,2c0.4,0.3,0.7,0.6,1.2,0.8
					c0.5,0.1,1,0,1.3-0.4c0.4-0.7-0.3-1.4-0.8-1.9c-1.3-1.1-2.6-1.8-4-2.8c-1.8-1.2-3.4-2.8-4.4-4.7c-1-1.9-1.2-4.3-0.2-6.3
					c0.3-0.6,0.7-1.1,1.3-1.5c1-0.6,2.3-0.6,3.4-0.3c1.1,0.2,2.2,0.7,3.4,0.8c2.8,0.3,3.8-1.6,3.8-4.2c0-1.7-0.6-3.3-0.7-5
					c-0.2-3,1.3-6.2,4-7.4c2.7-1.3,6.5-0.1,7.4,2.8c1.1,3.1-1.3,6.5,0.2,9.5c0.5,1,1.7,2.3,2.6,2.8c1.5,0.9,3.7-0.2,5.4-0.1
					c0.4,0,0.8,0.1,1.1,0.4c0.2,0.2,0.3,0.5,0.3,0.8c0.4,2.1-0.4,4.5-2,5.9c-1.8,1.7-5,2.5-5.7,5.1c-0.5,1.6-0.3,5.6,2.3,5.2
					c1-0.2,1.6-1.1,2.5-1.4c1.1-0.4,2.4,0.4,3,1.5c0.5,1.1,0.4,2.4-0.1,3.5c-0.7,1.8-2.1,3.2-3.4,4.6
					C430.2,154.5,428.5,157.2,424.9,159z"/>
			</g>
			<g>
				<rect x="420.5" y="121.6" class="st5" width="1.1" height="87"/>
			</g>
			<g>
				<polygon class="st5" points="421.1,140.4 413.4,132.8 414.2,132 421.1,138.9 427.9,132 428.7,132.8 				"/>
			</g>
			<g>
				<polygon class="st5" points="421.1,155 413.4,147.4 414.2,146.6 421.1,153.4 427.9,146.6 428.7,147.4 				"/>
			</g>
		</g>
		<g>
			<g>
				<path class="st5" d="M65.4,226.2c-0.1,0-0.1,0.1-0.2,0.1c-2.1,1-3.2,0.8-5.2-0.1c-1.9-0.9-3.7-1.9-5.2-3.2
					c-1.9-1.7-3.5-4-3.8-6.6c-0.1-0.6-0.1-1.2,0.3-1.7c0.5-0.6,1.4-0.7,2.2-0.5c0.7,0.3,1.3,0.9,1.9,1.4c0.3,0.2,0.5,0.5,0.8,0.5
					c0.3,0.1,0.7,0,0.9-0.3c0.3-0.5-0.2-1-0.6-1.4c-1-0.8-1.9-1.3-2.9-2c-1.3-0.9-2.5-2-3.1-3.4c-0.7-1.4-0.9-3.1-0.1-4.5
					c0.2-0.4,0.5-0.8,0.9-1.1c0.7-0.4,1.6-0.4,2.4-0.2c0.8,0.2,1.6,0.5,2.4,0.6c2,0.2,2.7-1.2,2.7-3c0-1.2-0.4-2.4-0.5-3.6
					c-0.1-2.1,0.9-4.4,2.9-5.3c1.9-0.9,4.6,0,5.3,2c0.8,2.2-1,4.7,0.2,6.8c0.4,0.7,1.2,1.6,1.9,2c1.1,0.7,2.6-0.1,3.9-0.1
					c0.3,0,0.6,0.1,0.8,0.3c0.1,0.1,0.2,0.4,0.2,0.6c0.3,1.5-0.3,3.2-1.4,4.3c-1.3,1.2-3.6,1.8-4.1,3.7c-0.3,1.2-0.2,4,1.6,3.7
					c0.7-0.1,1.2-0.8,1.8-1c0.8-0.3,1.8,0.3,2.1,1c0.4,0.8,0.3,1.7-0.1,2.5c-0.5,1.3-1.5,2.3-2.4,3.3C69.3,223,68,224.9,65.4,226.2z
					"/>
			</g>
			<g>
				<rect x="62.1" y="199.4" class="st5" width="1.1" height="56.2"/>
			</g>
			<g>
				<polygon class="st5" points="62.7,213.1 57.1,207.5 57.9,206.7 62.7,211.5 67.5,206.7 68.3,207.5 				"/>
			</g>
			<g>
				<polygon class="st5" points="62.7,223.6 57.1,218 57.9,217.2 62.7,222 67.5,217.2 68.3,218 				"/>
			</g>
		</g>
		<g>
			<g>
				<path class="st5" d="M210.9,129c-0.1,0.1-0.3,0.1-0.4,0.2c-4.4,2.1-6.8,1.8-11.1-0.2c-4-1.8-7.9-4-11.2-6.9
					c-4.2-3.7-7.4-8.7-8.1-14.2c-0.2-1.2-0.1-2.6,0.6-3.6c1-1.4,3.1-1.6,4.7-1c1.6,0.6,2.9,1.9,4.1,3c0.5,0.5,1.1,1,1.8,1.2
					c0.7,0.2,1.6,0,1.9-0.6c0.6-1-0.4-2.2-1.3-2.9c-2.1-1.7-4-2.7-6.2-4.3c-2.7-1.9-5.3-4.3-6.8-7.3c-1.5-3-1.8-6.7-0.3-9.6
					c0.5-0.9,1.1-1.7,2-2.3c1.5-1,3.5-0.9,5.2-0.5c1.8,0.4,3.5,1,5.3,1.2c4.2,0.4,5.9-2.5,5.8-6.4c-0.1-2.6-0.9-5.2-1.1-7.8
					c-0.3-4.6,2-9.5,6.2-11.5c4.2-2,10-0.1,11.5,4.3c1.6,4.7-2.1,10.1,0.4,14.6c0.8,1.5,2.6,3.5,4,4.4c2.3,1.4,5.7-0.3,8.4-0.1
					c0.6,0,1.3,0.1,1.7,0.5c0.3,0.3,0.4,0.8,0.5,1.2c0.6,3.3-0.6,6.9-3,9.1c-2.8,2.6-7.7,3.9-8.9,7.8c-0.7,2.5-0.4,8.7,3.5,8
					c1.5-0.2,2.5-1.7,3.9-2.2c1.8-0.6,3.8,0.6,4.6,2.3c0.8,1.7,0.6,3.7-0.1,5.4c-1.1,2.7-3.2,4.9-5.2,7
					C219.2,122.1,216.4,126.3,210.9,129z"/>
			</g>
			<g>
				<rect x="204.5" y="71.3" class="st5" width="1.1" height="105.9"/>
			</g>
			<g>
				<polygon class="st5" points="205,100 193.5,88.4 194.3,87.6 205,98.4 215.8,87.6 216.6,88.4 				"/>
			</g>
			<g>
				<polygon class="st5" points="205,122.4 193.5,110.9 194.3,110.1 205,120.9 215.8,110.1 216.6,110.9 				"/>
			</g>
		</g>
		<g>
			<g>
				<path class="st5" d="M496,256.8h-28.4v-0.6c0-2-1.7-3.7-3.7-3.7c-2,0-3.7,1.7-3.7,3.7h-1.1c0-2.7,2.2-4.8,4.8-4.8
					c2.5,0,4.5,1.9,4.8,4.3H496V256.8z"/>
			</g>
			<g>
				<path class="st5" d="M462.2,252.5h-1.1c0-2-1.7-3.7-3.7-3.7c-2,0-3.7,1.7-3.7,3.7h-1.1c0-2.7,2.2-4.8,4.8-4.8
					C460,247.7,462.2,249.9,462.2,252.5z"/>
			</g>
		</g>
		<g>
			<g>
				<path class="st5" d="M44.6,256.8H16.2v-1.1h27.3c0.3-2.4,2.3-4.3,4.8-4.3c2.7,0,4.8,2.2,4.8,4.8H52c0-2-1.7-3.7-3.7-3.7
					s-3.7,1.7-3.7,3.7V256.8z"/>
			</g>
			<g>
				<path class="st5" d="M59.6,252.5h-1.1c0-2-1.7-3.7-3.7-3.7s-3.7,1.7-3.7,3.7H50c0-2.7,2.2-4.8,4.8-4.8
					C57.4,247.7,59.6,249.9,59.6,252.5z"/>
			</g>
		</g>
		<g id="XMLID_957_">
			<g id="XMLID_980_">
				<rect x="446.3" y="209.7" class="st29" width="3" height="5.8"/>
			</g>
			<g id="XMLID_979_">
				<rect x="445" y="214.4" class="st9" width="5.8" height="41.9"/>
			</g>
			<g id="XMLID_976_">
				<path class="st1" d="M447.8,177.8c-9.9,0-17.9,8-17.9,17.9c0,9.9,8,17.9,17.9,17.9c9.9,0,17.9-8,17.9-17.9
					C465.7,185.8,457.7,177.8,447.8,177.8z M447.8,209.8c-7.8,0-14.1-6.3-14.1-14.1c0-7.8,6.3-14.1,14.1-14.1
					c7.8,0,14.1,6.3,14.1,14.1C461.9,203.5,455.6,209.8,447.8,209.8z"/>
			</g>
			<g id="XMLID_973_">
				<path class="st30" d="M462,195.7c0-7.8-6.4-14.2-14.2-14.2c-7.8,0-14.2,6.4-14.2,14.2c0,7.8,6.4,14.2,14.2,14.2
					C455.6,209.9,462,203.6,462,195.7z M447.8,208.6c-7.1,0-12.9-5.8-12.9-12.9c0-7.1,5.8-12.9,12.9-12.9c7.1,0,12.9,5.8,12.9,12.9
					C460.7,202.8,454.9,208.6,447.8,208.6z"/>
			</g>
			<g id="XMLID_972_">
				<rect x="444.8" y="214.4" class="st9" width="3" height="41.9"/>
			</g>
			<g id="XMLID_959_">
				<g id="XMLID_1021_">
					<path class="st5" d="M455.6,189l-7.1,7.1v0l0,10.1c2.6,0,5.2-1,7.1-2.9c0,0,0,0,0,0C459.5,199.3,459.5,192.9,455.6,189z"/>
				</g>
				<g id="XMLID_1020_">
					<path class="st5" d="M447.7,184.6c-2.6,0-5.2,1-7.1,2.9l7.1,7.2l0,0l7.1-7.1C452.9,185.6,450.3,184.6,447.7,184.6z"/>
				</g>
				<g id="XMLID_1019_">
					<path class="st9" d="M447,196.1L447,196.1l-7.1-7.2c0,0,0,0,0,0c-3.9,3.9-3.9,10.3,0,14.3c2,2,4.5,3,7.1,3L447,196.1z"/>
				</g>
			</g>
		</g>
	</g>
	<g id="Layer_9">
		<g id="XMLID_404_">
			<g id="XMLID_433_">
				<path class="st1" d="M86.1,256.2h-5.6V149.7c0-1.6,1.3-2.8,2.8-2.8l0,0c1.6,0,2.8,1.3,2.8,2.8V256.2z"/>
			</g>
			<g id="XMLID_432_">
				<path class="st31" d="M83.2,146.9c-1.6,0-2.8,1.3-2.8,2.8v106.5h2.9L83.2,146.9C83.3,146.9,83.3,146.9,83.2,146.9z"/>
			</g>
			<g id="XMLID_430_">
				<g id="XMLID_431_">
					<rect x="63.4" y="157.4" class="st1" width="39.6" height="4.3"/>
				</g>
			</g>
			<g id="XMLID_429_">
				<path class="st9" d="M89.2,159.1c0,3.3-2.7,5.9-5.9,5.9s-5.9-2.7-5.9-5.9s2.7-5.9,5.9-5.9S89.2,155.9,89.2,159.1z"/>
			</g>
			<g id="XMLID_428_">
				<path class="st5" d="M86.5,159.1c0,1.8-1.4,3.2-3.2,3.2c-1.8,0-3.2-1.4-3.2-3.2s1.4-3.2,3.2-3.2C85,155.9,86.5,157.4,86.5,159.1
					z"/>
			</g>
			<g id="XMLID_427_">
				<path class="st32" d="M80.8,159.9c0-1.8,1.4-3.2,3.2-3.2c0.7,0,1.3,0.2,1.9,0.6c-0.6-0.8-1.5-1.3-2.6-1.3
					c-1.8,0-3.2,1.4-3.2,3.2c0,1.1,0.5,2,1.3,2.6C81,161.2,80.8,160.6,80.8,159.9z"/>
			</g>
			<g id="XMLID_425_">
				<g id="XMLID_426_">
					
						<rect x="102.5" y="157" transform="matrix(0.9414 -0.3373 0.3373 0.9414 -50.6983 44.7431)" class="st5" width="1.9" height="22.6"/>
				</g>
			</g>
			<g id="XMLID_423_">
				<g id="XMLID_424_">
					
						<rect x="86.1" y="167.3" transform="matrix(0.362 -0.9322 0.9322 0.362 -94.6276 198.2705)" class="st5" width="22.8" height="1.9"/>
				</g>
			</g>
			<g id="XMLID_422_">
				<path class="st9" d="M109.8,178.1c0,5.2-4.2,9.5-9.5,9.5c-5.2,0-9.5-4.2-9.5-9.5H109.8z"/>
			</g>
			<g id="XMLID_421_">
				<path class="st5" d="M92.8,178.1h-1.9c0,5.2,4.2,9.5,9.5,9.5c0.3,0,0.6,0,1,0C96.5,187,92.8,183,92.8,178.1z"/>
			</g>
			<g id="XMLID_419_">
				<g id="XMLID_420_">
					
						<rect x="51.8" y="167.3" transform="matrix(0.3372 -0.9414 0.9414 0.3372 -116.5591 170.9685)" class="st5" width="22.6" height="1.9"/>
				</g>
			</g>
			<g id="XMLID_417_">
				<g id="XMLID_418_">
					
						<rect x="68.1" y="156.8" transform="matrix(0.9321 -0.3622 0.3622 0.9321 -56.2581 36.4232)" class="st5" width="1.9" height="22.8"/>
				</g>
			</g>
			<g id="XMLID_416_">
				<path class="st9" d="M56.7,178.1c0,5.2,4.2,9.5,9.5,9.5c5.2,0,9.5-4.2,9.5-9.5H56.7z"/>
			</g>
			<g id="XMLID_415_">
				<path class="st5" d="M73.8,178.1c0,4.9-3.7,9-8.5,9.4c0.3,0,0.6,0,1,0c5.2,0,9.5-4.2,9.5-9.5H73.8z"/>
			</g>
			<g id="XMLID_414_">
				<path class="st9" d="M102.9,159.5c0,1.4-1.1,2.5-2.5,2.5c-1.4,0-2.5-1.1-2.5-2.5c0-1.4,1.1-2.5,2.5-2.5
					C101.8,157,102.9,158.1,102.9,159.5z"/>
			</g>
			<g id="XMLID_410_">
				<g id="XMLID_411_">
					<path class="st5" d="M100.4,162.9c-1.9,0-3.4-1.5-3.4-3.4c0-1.9,1.5-3.4,3.4-3.4c1.9,0,3.4,1.5,3.4,3.4
						C103.8,161.4,102.3,162.9,100.4,162.9z M100.4,157.9c-0.8,0-1.5,0.7-1.5,1.5c0,0.8,0.7,1.5,1.5,1.5c0.8,0,1.5-0.7,1.5-1.5
						C101.9,158.6,101.2,157.9,100.4,157.9z"/>
				</g>
			</g>
			<g id="XMLID_409_">
				<path class="st9" d="M68.7,159.5c0,1.4-1.1,2.5-2.5,2.5c-1.4,0-2.5-1.1-2.5-2.5c0-1.4,1.1-2.5,2.5-2.5
					C67.6,157,68.7,158.1,68.7,159.5z"/>
			</g>
			<g id="XMLID_405_">
				<g id="XMLID_406_">
					<path class="st5" d="M66.2,162.9c-1.9,0-3.4-1.5-3.4-3.4c0-1.9,1.5-3.4,3.4-3.4c1.9,0,3.4,1.5,3.4,3.4
						C69.6,161.4,68.1,162.9,66.2,162.9z M66.2,157.9c-0.8,0-1.5,0.7-1.5,1.5c0,0.8,0.7,1.5,1.5,1.5c0.8,0,1.5-0.7,1.5-1.5
						C67.7,158.6,67,157.9,66.2,157.9z"/>
				</g>
			</g>
		</g>
		<g id="XMLID_384_">
			<g id="XMLID_403_">
				<path class="st5" d="M126.2,256.3H96.9c-0.7,0-1.2-0.5-1.2-1.2v-41c0-0.7,0.5-1.2,1.2-1.2h29.3c0.7,0,1.2,0.5,1.2,1.2v41
					C127.4,255.7,126.9,256.3,126.2,256.3z"/>
			</g>
			<g id="XMLID_402_">
				<rect x="97.9" y="216.8" class="st9" width="27.2" height="7.4"/>
			</g>
			<g id="XMLID_401_">
				<path class="st8" d="M102.7,232.2h-4.1c-0.4,0-0.7-0.3-0.7-0.7v-4.1c0-0.4,0.3-0.7,0.7-0.7h4.1c0.4,0,0.7,0.3,0.7,0.7v4.1
					C103.3,231.9,103,232.2,102.7,232.2z"/>
			</g>
			<g id="XMLID_400_">
				<path class="st8" d="M109.9,232.2h-4.1c-0.4,0-0.7-0.3-0.7-0.7v-4.1c0-0.4,0.3-0.7,0.7-0.7h4.1c0.4,0,0.7,0.3,0.7,0.7v4.1
					C110.6,231.9,110.3,232.2,109.9,232.2z"/>
			</g>
			<g id="XMLID_399_">
				<path class="st8" d="M117.2,232.2h-4.1c-0.4,0-0.7-0.3-0.7-0.7v-4.1c0-0.4,0.3-0.7,0.7-0.7h4.1c0.4,0,0.7,0.3,0.7,0.7v4.1
					C117.8,231.9,117.5,232.2,117.2,232.2z"/>
			</g>
			<g id="XMLID_398_">
				<path class="st8" d="M124.4,232.2h-4.1c-0.4,0-0.7-0.3-0.7-0.7v-4.1c0-0.4,0.3-0.7,0.7-0.7h4.1c0.4,0,0.7,0.3,0.7,0.7v4.1
					C125.1,231.9,124.8,232.2,124.4,232.2z"/>
			</g>
			<g id="XMLID_397_">
				<path class="st8" d="M102.7,239.3h-4.1c-0.4,0-0.7-0.3-0.7-0.7v-4.1c0-0.4,0.3-0.7,0.7-0.7h4.1c0.4,0,0.7,0.3,0.7,0.7v4.1
					C103.3,239,103,239.3,102.7,239.3z"/>
			</g>
			<g id="XMLID_396_">
				<path class="st8" d="M109.9,239.3h-4.1c-0.4,0-0.7-0.3-0.7-0.7v-4.1c0-0.4,0.3-0.7,0.7-0.7h4.1c0.4,0,0.7,0.3,0.7,0.7v4.1
					C110.6,239,110.3,239.3,109.9,239.3z"/>
			</g>
			<g id="XMLID_395_">
				<path class="st8" d="M117.2,239.3h-4.1c-0.4,0-0.7-0.3-0.7-0.7v-4.1c0-0.4,0.3-0.7,0.7-0.7h4.1c0.4,0,0.7,0.3,0.7,0.7v4.1
					C117.8,239,117.5,239.3,117.2,239.3z"/>
			</g>
			<g id="XMLID_394_">
				<path class="st8" d="M124.4,239.3h-4.1c-0.4,0-0.7-0.3-0.7-0.7v-4.1c0-0.4,0.3-0.7,0.7-0.7h4.1c0.4,0,0.7,0.3,0.7,0.7v4.1
					C125.1,239,124.8,239.3,124.4,239.3z"/>
			</g>
			<g id="XMLID_393_">
				<path class="st5" d="M102.9,253.5h-4.7c-0.2,0-0.4-0.2-0.4-0.4v-11.8c0-0.2,0.2-0.4,0.4-0.4h4.7c0.2,0,0.4,0.2,0.4,0.4v11.8
					C103.3,253.4,103.2,253.5,102.9,253.5z"/>
			</g>
			<g id="XMLID_392_">
				<path class="st8" d="M109.9,246.4h-4.1c-0.4,0-0.7-0.3-0.7-0.7v-4.1c0-0.4,0.3-0.7,0.7-0.7h4.1c0.4,0,0.7,0.3,0.7,0.7v4.1
					C110.6,246.1,110.3,246.4,109.9,246.4z"/>
			</g>
			<g id="XMLID_391_">
				<path class="st8" d="M117.2,246.4h-4.1c-0.4,0-0.7-0.3-0.7-0.7v-4.1c0-0.4,0.3-0.7,0.7-0.7h4.1c0.4,0,0.7,0.3,0.7,0.7v4.1
					C117.8,246.1,117.5,246.4,117.2,246.4z"/>
			</g>
			<g id="XMLID_390_">
				<path class="st8" d="M124.4,246.4h-4.1c-0.4,0-0.7-0.3-0.7-0.7v-4.1c0-0.4,0.3-0.7,0.7-0.7h4.1c0.4,0,0.7,0.3,0.7,0.7v4.1
					C125.1,246.1,124.8,246.4,124.4,246.4z"/>
			</g>
			<g id="XMLID_389_">
				<path class="st8" d="M109.9,253.5h-4.1c-0.4,0-0.7-0.3-0.7-0.7v-4.1c0-0.4,0.3-0.7,0.7-0.7h4.1c0.4,0,0.7,0.3,0.7,0.7v4.1
					C110.6,253.2,110.3,253.5,109.9,253.5z"/>
			</g>
			<g id="XMLID_388_">
				<path class="st8" d="M117.2,253.5h-4.1c-0.4,0-0.7-0.3-0.7-0.7v-4.1c0-0.4,0.3-0.7,0.7-0.7h4.1c0.4,0,0.7,0.3,0.7,0.7v4.1
					C117.8,253.2,117.5,253.5,117.2,253.5z"/>
			</g>
			<g id="XMLID_387_">
				<path class="st8" d="M124.4,253.5h-4.1c-0.4,0-0.7-0.3-0.7-0.7v-4.1c0-0.4,0.3-0.7,0.7-0.7h4.1c0.4,0,0.7,0.3,0.7,0.7v4.1
					C125.1,253.2,124.8,253.5,124.4,253.5z"/>
			</g>
			<g id="XMLID_386_">
				<polygon class="st9" points="104,216.8 98,216.8 105.5,224.2 111.4,224.2 				"/>
			</g>
			<g id="XMLID_385_">
				<polygon class="st9" points="117,224.2 109.6,216.8 106.3,216.8 113.7,224.2 				"/>
			</g>
		</g>
		<g id="XMLID_1605_">
			<g id="XMLID_1611_">
				<g id="XMLID_1612_">
					<g id="XMLID_1613_">
						<path class="st8" d="M422.3,202.6l8.5,8.3v45.4h-40.3V206c0-1.9,1.5-3.4,3.4-3.4H422.3z"/>
					</g>
				</g>
			</g>
			<g id="XMLID_1617_" class="st33">
				<g id="XMLID_1618_">
					<g id="XMLID_1619_">
						<polygon class="st34" points="422.8,210 430.8,219.2 430.8,210.9 						"/>
					</g>
				</g>
			</g>
			<g id="XMLID_1614_">
				<g id="XMLID_1615_">
					<g id="XMLID_1616_">
						<path class="st1" d="M422.3,202.6l8.5,8.3h-6.2c-1.3,0-2.3-1-2.3-2.3V202.6z"/>
					</g>
				</g>
			</g>
			<g id="XMLID_961_">
				
					<rect x="395.5" y="215.6" transform="matrix(-1 -1.224647e-16 1.224647e-16 -1 821.3324 468.1208)" class="st5" width="30.4" height="36.8"/>
			</g>
			<g id="XMLID_964_">
				
					<rect x="395.5" y="215.6" transform="matrix(-1 -1.224647e-16 1.224647e-16 -1 798.4897 468.1208)" class="st8" width="7.5" height="36.8"/>
			</g>
			<g id="XMLID_963_">
				
					<rect x="395.5" y="215.6" transform="matrix(-1 -1.224647e-16 1.224647e-16 -1 821.3324 438.0294)" class="st5" width="30.4" height="6.8"/>
			</g>
			<g id="XMLID_966_">
				<path class="st35" d="M425,252.9h-28.6c-0.7,0-1.3-0.6-1.3-1.3v-35.1c0-0.7,0.6-1.3,1.3-1.3H425c0.7,0,1.3,0.6,1.3,1.3v35.1
					C426.3,252.3,425.7,252.9,425,252.9z M396.4,216.1c-0.3,0-0.5,0.2-0.5,0.5v35.1c0,0.3,0.2,0.5,0.5,0.5H425
					c0.3,0,0.5-0.2,0.5-0.5v-35.1c0-0.3-0.2-0.5-0.5-0.5H396.4z"/>
			</g>
			<g id="XMLID_970_">
				<rect x="395.5" y="222" class="st35" width="30.4" height="0.8"/>
			</g>
			<g id="XMLID_967_">
				<rect x="395.5" y="225.7" class="st35" width="30.4" height="0.8"/>
			</g>
			<g id="XMLID_999_">
				<rect x="402.6" y="222.4" class="st35" width="0.8" height="30.1"/>
			</g>
			<g id="XMLID_981_">
				<rect x="395.5" y="229.5" class="st35" width="30.4" height="0.8"/>
			</g>
			<g id="XMLID_982_">
				<rect x="395.5" y="233.3" class="st35" width="30.4" height="0.8"/>
			</g>
			<g id="XMLID_984_">
				<rect x="395.5" y="237" class="st35" width="30.4" height="0.8"/>
			</g>
			<g id="XMLID_985_">
				<rect x="395.5" y="240.8" class="st35" width="30.4" height="0.8"/>
			</g>
			<g id="XMLID_986_">
				<rect x="395.5" y="244.5" class="st35" width="30.4" height="0.8"/>
			</g>
			<g id="XMLID_995_">
				<rect x="395.6" y="248.3" class="st35" width="30.4" height="0.8"/>
			</g>
			<g id="XMLID_997_">
				<path class="st36" d="M409.3,213.9h-12.7c-0.6,0-1.1-0.5-1.1-1.1l0,0c0-0.6,0.5-1.1,1.1-1.1h12.7c0.6,0,1.1,0.5,1.1,1.1l0,0
					C410.5,213.4,410,213.9,409.3,213.9z"/>
			</g>
		</g>
	</g>
	<g id="Layer_8">
		<g id="XMLID_330_">
			<g id="XMLID_347_">
				<g id="XMLID_802_">
					<path class="st1" d="M349.5,241H153.1V119c0-0.8,0.6-1.4,1.4-1.4h193.6c0.8,0,1.4,0.6,1.4,1.4V241z"/>
				</g>
				<g id="XMLID_799_">
					<rect x="163.2" y="128.7" class="st8" width="176.3" height="102.4"/>
				</g>
				<g id="XMLID_362_">
					<path class="st37" d="M361,246.6H141.7l0,0c6.3,6.2,14.7,9.7,23.5,9.7h172.3C346.3,256.3,354.7,252.8,361,246.6L361,246.6z"/>
				</g>
				<g id="XMLID_361_">
					<rect x="141.7" y="240.4" class="st38" width="219.3" height="6.2"/>
				</g>
				<g id="XMLID_360_">
					<path class="st37" d="M264.9,245.2h-27.1c-0.9,0-1.7-0.8-1.7-1.7l0,0c0-0.9,0.8-1.7,1.7-1.7h27.1c0.9,0,1.7,0.8,1.7,1.7l0,0
						C266.6,244.4,265.8,245.2,264.9,245.2z"/>
				</g>
			</g>
			<g id="XMLID_311_">
				<g id="XMLID_781_">
					<polygon class="st1" points="163.2,231.1 163.2,201 179.8,195 179.8,231.1 					"/>
				</g>
				<g id="XMLID_832_">
					<polygon class="st31" points="179.8,231.1 179.8,195 196.4,192 196.4,231.1 					"/>
				</g>
				<g id="XMLID_846_">
					<polygon class="st31" points="213,231.1 213,184.2 229.5,180.2 229.5,231.1 					"/>
				</g>
				<g id="XMLID_848_">
					<polygon class="st31" points="246.1,231.1 246.1,165.5 262.7,169.4 262.7,231.1 					"/>
				</g>
				<g id="XMLID_866_">
					<polygon class="st31" points="280.1,231.1 280.1,151.9 296.7,169.4 296.7,231.1 					"/>
				</g>
				<g id="XMLID_883_">
					<polygon class="st31" points="314.1,231.1 314.1,175 330.7,169.4 330.7,231.1 					"/>
				</g>
				<g id="XMLID_833_">
					<polygon class="st1" points="196.4,231.1 196.4,192 213,184.2 213,231.1 					"/>
				</g>
				<g id="XMLID_847_">
					<polygon class="st1" points="229.5,231.1 229.5,180.2 246.1,165.7 246.1,231.1 					"/>
				</g>
				<g id="XMLID_850_">
					<polygon class="st1" points="262.7,231.1 262.7,169.6 280.1,152 280.1,231.1 					"/>
				</g>
				<g id="XMLID_881_">
					<polygon class="st1" points="296.7,231.1 296.7,169.6 314.1,175 314.1,231.1 					"/>
				</g>
				<g id="XMLID_884_">
					<polygon class="st1" points="330.7,231.1 330.7,169.6 339.5,175 339.5,231.1 					"/>
				</g>
			</g>
			<g id="XMLID_333_" class="st14">
				<path class="st5" d="M246.5,117.6c0.1,0.1,0.1,0.3,0.2,0.4c5.4,8.4,12.8,14.1,21,17.2l10.9,15.8c1,1.5,3.3,1.5,4.3,0l9.7-14.1
					c10.4-2.4,20.1-8.6,26.7-19c0.1-0.1,0.1-0.2,0.2-0.4H246.5z"/>
			</g>
			<g id="XMLID_864_">
				<g id="XMLID_854_">
					<path class="st9" d="M278.6,145.8L267.7,130c-8.2-3.1-15.6-8.8-21-17.2c-9-14.2-8.7-33,0.9-46.9c17.4-24.9,53.7-24.8,70.9,0.3
						c9.4,13.8,9.7,32.4,0.8,46.5c-6.6,10.3-16.3,16.6-26.7,19l-9.7,14.1C281.8,147.3,279.6,147.3,278.6,145.8z"/>
				</g>
				<g id="XMLID_871_">
					<path class="st1" d="M304.6,68.5c12,12,12,31.5,0,43.5c-12,12-31.5,12-43.5,0c-12-12-12-31.5,0-43.5
						C273.1,56.5,292.6,56.5,304.6,68.5z"/>
				</g>
			</g>
			<g id="XMLID_346_">
				<g id="XMLID_344_">
					<g id="XMLID_363_">
						<path class="st8" d="M274.9,107.4c-0.3,0-0.7-0.1-1-0.3c-1-0.6-1.3-1.8-0.8-2.8l17.2-30.3c0.6-1,1.8-1.3,2.8-0.8
							c1,0.6,1.3,1.8,0.8,2.8l-17.2,30.3C276.3,107,275.6,107.4,274.9,107.4z"/>
					</g>
				</g>
				<g id="XMLID_343_">
					<g id="XMLID_354_">
						<path class="st8" d="M271.6,93.8c-4.1,0-7.4-4-7.4-8.9c0-4.9,3.3-8.9,7.4-8.9c4.1,0,7.4,4,7.4,8.9
							C278.9,89.8,275.6,93.8,271.6,93.8z M271.6,79.9c-1.9,0-3.5,2.3-3.5,5c0,2.7,1.6,5,3.5,5c1.9,0,3.5-2.3,3.5-5
							C275.1,82.2,273.5,79.9,271.6,79.9z"/>
					</g>
				</g>
				<g id="XMLID_345_">
					<g id="XMLID_350_">
						<path class="st8" d="M294.1,105.3c-4.1,0-7.4-4-7.4-8.9c0-4.9,3.3-8.9,7.4-8.9c4.1,0,7.4,4,7.4,8.9
							C301.5,101.3,298.2,105.3,294.1,105.3z M294.1,91.4c-1.9,0-3.5,2.3-3.5,5c0,2.7,1.6,5,3.5,5c1.9,0,3.5-2.3,3.5-5
							C297.6,93.7,296,91.4,294.1,91.4z"/>
					</g>
				</g>
			</g>
		</g>
	</g>
	<g id="Layer_10">
		<g>
			<g class="st39">
				<path class="st5" d="M320.3,95.4c-0.1,0.9,0.2,1.8,0.9,2.3l3.3,2.8c0.9-3.4,1.3-6.9,1.3-10.5h-3.5c-0.5,0-0.9,0.3-1.2,0.6
					c-0.2-0.2-0.5-0.3-0.8-0.3c-0.6,0-1.1,0.5-1.2,1.1l-23.4-10.4l-1.1,2.4l25.7,11.5L320.3,95.4z"/>
			</g>
			<g class="st39">
				<path class="st5" d="M349.5,126.3v-7.5c0-0.7-0.6-1.3-1.3-1.3h-15.7l3.2,7c0.2,0.4,0.5,0.7,0.9,0.8
					C338.6,125.7,344.1,126.6,349.5,126.3z"/>
			</g>
		</g>
		<g>
			<g>
				<path class="st5" d="M324.1,92.7h-2.4v-1.6c0-0.7,0.5-1.2,1.2-1.2l0,0c0.7,0,1.2,0.5,1.2,1.2V92.7z"/>
			</g>
			<g>
				
					<rect x="296.1" y="88.3" transform="matrix(0.9134 0.407 -0.407 0.9134 63.7305 -120.5193)" class="st5" width="38.2" height="2.6"/>
			</g>
			<g>
				
					<rect x="332.3" y="100.1" transform="matrix(0.8991 -0.4377 0.4377 0.8991 -12.8967 157.2413)" class="st5" width="4.6" height="12.9"/>
			</g>
			<g>
				<path class="st9" d="M392.3,110.1c0.3-1.6,1.3-3.2,0.8-4.7c-0.4-1.3-1.7-2-2.7-2.9c-1.6-1.6-2.1-4-2.1-6.3
					c0-1.1,0.1-2.2-0.2-3.3c-0.4-2.2-2.1-3.9-3.2-5.8c-0.4-0.7-0.7-1.4-1.3-1.9c-0.6-0.6-1.4-0.9-2.2-1.1c-1.8-0.6-3.5-1.2-5.3-1.7
					c-0.9-0.3-1.8-0.5-2.7-0.2c-0.6,0.2-1.1,0.8-1.6,1.3c-0.9,1-1.8,2.1-2.8,3.1c-0.8,0.4-1.4,1.2-1.6,2c-0.3,1.3,0,2.7,0.3,4
					c0.3,1.3,0.5,2.8-0.1,4c-0.6,1.2-1.9,2.1-2.2,3.4c-0.3,1.3,0.5,2.6,1.2,3.7c1.2,2,2.3,4.2,1.8,6.5c-0.3,1.4-1.1,2.6-1.3,3.9
					c-0.2,1.5,0.5,3.1,1.7,4c0.7,0.5,1.7,0.9,2,1.7c0.2,0.6,0,1.3,0.1,2c0.2,1.4,1.8,2.2,3.2,2.1c1.4-0.1,2.7-0.9,3.9-1.6
					c1.2-0.8,2.5-1.5,3.9-1.6c2.7-0.1,5.4,2.4,8,1.4c2.1-0.8,2.8-3.4,2.6-5.6C392.5,114.5,391.8,112.3,392.3,110.1z"/>
			</g>
			<g>
				<rect x="375.2" y="106.9" class="st5" width="11.2" height="12.9"/>
			</g>
			<g>
				<rect x="376.9" y="100.3" class="st5" width="5.7" height="12.9"/>
			</g>
			<g class="st39">
				<polygon class="st5" points="382.6,103.5 376.9,106.3 376.9,100.3 382.6,100.3 				"/>
			</g>
			<g>
				<path class="st3" d="M374.2,105c-2,1-5.5-2.1-5.4-7.1c0-0.2-2.5-0.5-2.3-0.6c2.7-3.6,3.1-10.4,4.6-11.9c3.5-3.5,17.7,0,17.7,0
					v8.3C388.8,101.3,374.2,105,374.2,105z"/>
			</g>
			<g>
				<path class="st5" d="M371.9,213.7c0,0,5.5,19.4,6.5,28.5l6.3-2.2c0,0-2-8.8-0.7-17.6L371.9,213.7z"/>
			</g>
			<g>
				<path class="st5" d="M378.4,242.2l-5.7,9.1l-9.4,2.4v0.9l9.4,1.7c0,0,3,0,3.3-0.7l7.2-6.8h1.1v6.8h1.5c0,0-0.9-5.5,0-6.7
					c0,0,2.2-3.1,0.6-8.1l-1.7-0.7L378.4,242.2z"/>
			</g>
			<g class="st14">
				<path class="st5" d="M373.4,219l10.2,9.4c0-1.9,0.1-4,0.4-6.1l-12-8.7C371.9,213.7,372.5,215.9,373.4,219z"/>
			</g>
			<g>
				<polygon class="st5" points="365.4,209.5 391.7,233.8 394.8,228.3 380.8,209.5 				"/>
			</g>
			<g>
				<path class="st5" d="M391.7,233.8l5.5,12.5l-2.6,6.1l1.1,3.1l5.9-8.3c0,0,1.3-2.4,0-5.7l-1.7-6.3c0,0-0.7-1.3,0.7-0.9
					c1.5,0.4,5.4,3.1,5.4,3.1v-1.5l-4.1-3.4l-2.2-3.2c0,0-3.7-2.2-5-0.9L391.7,233.8z"/>
			</g>
			<g>
				<path class="st29" d="M387.1,163.3c0,0,3.1,9.6,0,17c-1.7,4.1-2.1,9.4-2.4,13.7c-0.3,4.2-0.2,10.8,0.5,15
					c0.5,2.8,0.7,3.2-2.4,3.3c-2.1,0.1-4.3-0.3-6.3-1.1c-0.6-0.2-1.2-0.5-1.9-0.6c-0.8,0-1.5,0.3-2.3,0.6c-1.9,0.6-4,0.7-5.9,0.1
					c-0.7-0.2-1.3-0.5-2-0.6c-2.1-0.3-4,1.5-5.9,1.3c-1.7-0.2-1.3-0.8-1.1-2.3c0.4-2.5,1-7.3,1.5-9.8c0.9-4.6,2.6-9.9,2.3-14.5
					l0-21.4c0,0-1-5.2-1.8-7.6L387.1,163.3z"/>
			</g>
			<g class="st14">
				<g>
					<path class="st40" d="M359,209.6c0.4-2.5,1.6-7.3,2.1-9.8c0.8-4.2,1.7-9,1.8-13.4c0-1.3,0.2-2.6,0.3-3.9l2.4-18.7
						c0,0-3.7-4.6-4.4-7.1l-1.8-0.5c0.8,2.4,1.8,7.6,1.8,7.6l0,21.4c0.3,4.7-1.4,10-2.3,14.5c-0.5,2.5-1.1,7.3-1.5,9.8
						c-0.3,1.5-0.7,2.1,1.1,2.3c0.4,0.1,0.8,0,1.2-0.1C358.5,211.5,358.8,210.9,359,209.6z"/>
				</g>
			</g>
			<g class="st14">
				<path class="st5" d="M387.1,163.3l-27-6.9l-0.4,0.9c0.4,1.5,0.9,3.8,1.3,5.7c4.2,2.6,13.1,6.5,27.1,5
					C387.7,165.2,387.1,163.3,387.1,163.3z"/>
			</g>
			<g>
				<path class="st29" d="M375.1,107l-4.6-0.1c-1.1,0-2.2,0.3-3,1l-6.6,4.9c-0.5,0.4-1.1,0.7-1.7,0.8l-11.8,3.1
					c-0.8,0.2-1.7-0.1-2.1-0.8l-8.6-12.4l-5.7,3.9l7.5,16.6c0.2,0.4,0.5,0.7,0.9,0.8c3.1,0.6,16.5,2.9,22.8-1.8l-0.4,21.7
					c0,0.7-0.2,1.4-0.4,2l-4.2,9.9c0,0,9.6,9.2,30,6.7v-7.4l8.7-39.9l-7.8-7.4l-11.1,3.9L375.1,107z"/>
			</g>
			<g class="st39">
				<path class="st5" d="M362.1,120.7c-7.2,5.4-22.8,2.6-22.8,2.6l-8.5-15.9l7.5,16.6c0.2,0.4,0.5,0.7,0.9,0.8
					c3.1,0.6,16.4,2.9,22.8-1.8L362.1,120.7z"/>
			</g>
			<g class="st14">
				<polygon class="st5" points="386.4,117.1 389.8,143.3 395.7,115.9 				"/>
			</g>
			<g>
				<rect x="371.4" y="91.9" class="st5" width="7.3" height="0.6"/>
			</g>
			<g>
				<rect x="368.6" y="91.9" class="st5" width="1.3" height="0.6"/>
			</g>
			<g>
				<path class="st5" d="M370.6,95.9c-1,0-1.1-3.3-1.1-3.7c0-0.4,0-3.7,1.1-3.7c1,0,1.1,3.3,1.1,3.7
					C371.7,92.6,371.7,95.9,370.6,95.9z M370.6,89.1c-0.1,0.1-0.5,1.2-0.5,3.1c0,1.9,0.4,3,0.5,3.1c0.1-0.1,0.5-1.2,0.5-3.1
					S370.8,89.2,370.6,89.1z"/>
			</g>
			<g class="st41">
				<g>
					<path class="st5" d="M386.9,164.9c0.6,2.9,0,6-1.8,8.4c-0.8,1-1.8,1.9-2.6,3c-1.3,1.6-2.3,3.6-3.1,5.5c-1,2.1-1.9,4.4-1.4,6.7
						c0.3,1.3,1.1,2.4,1.7,3.6c1.3,2.8,1.5,6.2,0.4,9.1c-0.8,2-2,3.8-2.9,5.7c-0.6,1.4-0.8,2.9-0.6,4.3c2,0.8,4.1,1.1,6.2,1
						c3.1-0.1,2.9-0.5,2.4-3.3c-0.7-4.2-0.8-10.7-0.5-15c0.3-4.3,0.7-9.6,2.4-13.7c2.6-6,1-13.5,0.3-16.1
						C387.2,164.4,387,164.6,386.9,164.9z"/>
				</g>
				<g>
					<path class="st5" d="M386.9,166l0.1-1.1C386.8,165.3,386.8,165.7,386.9,166z"/>
				</g>
				<g>
					<path class="st5" d="M386.9,164.9C386.9,164.9,386.9,164.9,386.9,164.9c0-0.1,0-0.1,0-0.2L386.9,164.9z"/>
				</g>
			</g>
			<g>
				<path class="st5" d="M334.3,100.6v-5.9c0-0.6-0.2-1.1-0.5-1.6l-1.8-2.2c-0.6-0.8-1.5-1.2-2.5-1.2h-4.6c-0.8,0-1.5,0.6-1.6,1.4
					l-0.5,3.9c-0.1,0.9,0.2,1.8,0.9,2.3l6.3,5.3L334.3,100.6z"/>
			</g>
			<g class="st14">
				<polygon class="st5" points="387.1,155.9 388.9,147.4 370.2,146.8 370.2,152.6 387.1,156.2 				"/>
			</g>
			<g>
				<path class="st1" d="M381.1,118.5c0,0-9.5,12.4-13.8,30.8c0,0,1.6-28.4,4.4-34.9l1.8-3.2l3.4,1.2l5.1,1L381.1,118.5z"/>
			</g>
			<g>
				<path class="st42" d="M367.3,149.3c0,0,10.3-22.8,12.5-23.5l0.9,1.4l0.6-5.4l1.1,2.2l5.4-15.6
					C388,108.5,371.8,128.1,367.3,149.3z"/>
			</g>
			<g>
				<path class="st42" d="M365.6,151.6c0,0,4.1-24.7,2.6-26.5l-1.6,0.7l2.4-4.8l-2.2,1.2l7-14.1
					C373.8,108.2,372.6,128.7,365.6,151.6z"/>
			</g>
			<g class="st14">
				<polygon class="st5" points="375.1,108.7 371.7,111.9 371.7,116.1 373.4,112.2 375.1,117.2 378.9,115.6 380.9,120.6 388,108.5 
					387.1,106.1 376.9,114.1 376,109.3 				"/>
			</g>
			<g>
				<polygon class="st12" points="375.1,107 371.7,110.2 371.7,114.5 373.4,112.2 375.1,115.6 378.9,115.6 381.1,118.5 388,108.5 
					387.1,104.5 376.9,112.4 376,107.6 				"/>
			</g>
			<g>
				<path class="st1" d="M366.5,149.8c0,0-1.1,11.8,2.1,12.5c0,0-7.3-2.8-7.9-3.2C360.1,158.7,365,158.4,366.5,149.8z"/>
			</g>
			<g>
				<g>
					<path class="st42" d="M361.2,159.1c-0.5-0.3,3.2-0.6,5.1-6.5c0-1.6,0.2-2.8,0.2-2.8c-1.4,8.6-6.4,9-5.8,9.3
						C361.2,159.4,361.2,159.1,361.2,159.1z"/>
				</g>
			</g>
			<g>
				
					<rect x="371.5" y="142.9" transform="matrix(0.1059 -0.9944 0.9944 0.1059 185.754 505.2464)" class="st5" width="4.6" height="12.9"/>
			</g>
			<g>
				<path class="st29" d="M370.2,145.3l22,0.6l-5.9-27.6c-0.6-2.8,1.2-5.5,4-5.9l0,0c2.7-0.4,5.2,1.4,5.7,4l5.4,32.8
					c0.6,3.8-2.5,7.2-6.4,6.8l-24.8-3.8V145.3z"/>
			</g>
			<g class="st14">
				<g>
					<path class="st40" d="M391.9,145.9l-21.7-0.6v0.5c0,0,20.5,3.5,23.3,2.3c0.7-0.3-2.2-0.8-2.2-0.9c0-0.2,2.5,0.2,2.4,0
						C393.3,146.5,391.9,145.9,391.9,145.9z"/>
				</g>
			</g>
			<g>
				<path class="st5" d="M368.6,146.4c0-0.3-1.1-1.6-1.2-1.7c-0.2-0.2-0.4-0.4-0.6-0.6c-0.5-0.5-1.2-0.7-1.9-0.6
					c-0.6,0.1-1.2,0.2-1.9,0.1c-0.9-0.1-1.7-0.6-2.6-0.4c-0.4,0.1-0.8,0.5-0.8,0.9c0,0.5,0.6,0.9,0.6,1.4c-0.1,0.4-0.4,0.6-0.5,1
					c-0.1,0.5,0.4,0.9,0.4,1.4c0,0.4-0.4,0.7-0.6,1.1c-0.2,0.4-0.1,0.9,0.1,1.2c0.2,0.4,0.6,0.6,0.9,0.9c1,0.6,1.9,0.6,3,0.6
					c1,0,2.1-0.4,3.1-0.4c0.7,0,1.4-0.6,1.6-1.3c0.1-0.6,0.1-0.2,0.2-0.8C368.5,148.1,368.5,147.5,368.6,146.4z"/>
			</g>
			<g class="st6">
				<g>
					<path class="st5" d="M401.4,149.1l-3.7-22.6c-0.1,0.8-0.3,1.6-0.6,2.3c-0.4,0.9-0.8,1.8-1,2.8c-0.1,1,0.1,2,0.4,3
						c0.6,2.4,1.1,4.7,2.2,6.9c0.3,0.5,0.6,1.1,0.6,1.7c0,0.6-0.3,1.1-0.5,1.6c-1.2,2.6-0.7,5.9,1.1,8.2c0.2,0.2,0.3,0.3,0.5,0.5
						C401.2,152.4,401.7,150.8,401.4,149.1z"/>
				</g>
			</g>
			<g>
				<path class="st9" d="M398.7,117.9c-1.9-2.3-3-5.1-3.3-8.1c-0.2-3,1.7-6.2,0.8-9.1c-0.6-2.2-2.8-3.6-3.7-5.6
					c-0.9-2-0.4-4.3-0.7-6.5c-1-7.5-10.5-8.5-16.5-7.5c-1.8,0.3-6.3,1-7,3.2c-1,2.9,3.5,4.3,5.5,3.2c0.6-0.3,1.1-0.8,1.8-1
					c0.9-0.3,1.9-0.1,2.6,0.5c0.7,0.6,1,1.6,0.7,2.5c-0.1,0.5-0.4,1-0.5,1.6c-0.1,1.4,1.6,2.1,3,2.2c0.4,0,0.8,0,1.1,0.2
					c0.2,0.2,0.3,0.4,0.4,0.7c1.2,3.8-1.5,6.2,1.6,9.3c2.2,2.2,7.3,6,5.1,9.6c-0.4,0.7-1.1,1.2-1.2,2c-0.2,1.1,0.8,2.1,1.7,2.6
					c1,0.6,2.1,1.1,2.5,2.1c0.5,1.1,0.1,2.3,0,3.5c-0.2,3.5,2.1,3.9,4.2,5.8c1.5,1.4,2.1,4.2,1.8,6.1c0,0.3,0,0.7,0.3,0.8
					c0.1,0,0.3,0,0.4-0.1c0.7-0.4,1.4-0.8,2-1.5c0.6-0.6,0.9-1.4,0.8-2.3c-0.1-0.5-0.4-1-0.5-1.6c-0.4-1.7,0.9-3.3,1.1-5.1
					C403.4,122.2,400.6,120.2,398.7,117.9z"/>
			</g>
		</g>
	</g>
	<g id="Layer_7">
		<g>
			<g class="st39">
				<path class="st5" d="M153.1,118.8v79.6l2.3-32.9c0,0,0,0,0,0c0.3,0,0.5-0.3,0.5-0.5c0-1.8,0-3.6,0-5.4c0-0.3-0.2-0.5-0.5-0.5
					l0.3-3.9c0.1,0,0.1,0,0.2,0v-1c2,0.3,4-0.1,5.1-1.8c0.6-1,1-2.5,1.3-4.1c0.4,0,0.8,0.1,1.3,0c0.4-0.1,0.9-0.3,1.1-0.7
					c0.2-0.4-0.1-1-0.5-1c0.2-0.2,0.5-0.4,0.8-0.3c0.1-0.7-0.2-1.5-0.9-1.8c0.7-0.1,1.2-0.8,1.2-1.5c-0.1-0.7-0.7-1.3-1.4-1.3
					c0-0.5,0.8-0.6,1-1c0.4-0.6-0.3-1.2-1-1.4c-0.3-0.1-0.7-0.1-1-0.1c0-0.8-0.1-1.3-0.1-1.3c0.2-1.9,0.1-3.6-0.1-5.4
					c-0.2-1.5-0.5-3-0.9-4.6c-0.1-0.6-0.3-1.2-0.4-1.7c0-0.2-0.1-0.4-0.2-0.6c0-0.1-0.1-0.2-0.1-0.3c-0.7-2.9-2.2-5.3-4.2-7.5
					c0,0-0.1-0.1-0.1-0.1h-2.4C153.7,117.5,153.1,118.1,153.1,118.8z"/>
			</g>
			<g class="st39">
				<path class="st5" d="M167.1,256.2l-0.1-0.4c-0.6-1.9-2-3.4-3.9-4l-7.5-2.6l-5.7-4.8l0.3-4h-3.6l0.1,4l-1.2,2v3.4
					c5.7,4.2,12.6,6.5,19.8,6.5H167.1z"/>
			</g>
		</g>
		<g>
			<g id="XMLID_1451_">
				<polygon class="st29" points="141.4,164.6 141.4,164.6 153,164.3 148.3,244.3 144,244.3 142.2,176.8 140,176.8 136,244.3 
					131.7,244.3 129.9,164.3 				"/>
			</g>
			<g id="XMLID_1457_" class="st14">
				<path class="st5" d="M135.5,173.3c2.6,4.5,4.5,3.4,4.5,3.4l-4,67.6h-2.1c0.1-3.1,0.1-6.2,0.2-9.4c0.1-3.9,0.3-7.6,0.8-11.5
					c0.6-4.1,0.7-8.3,0.7-12.4c0-1.8,0.1-3.6-0.1-5.3c-0.3-3.1-1.2-6.2-1-9.4c0.1-1.3,0.5-2.6,0.6-3.9c0.1-1.7,0.1-3.5,0.1-5.2
					c0.1-3.4,0.2-6.8,0.2-10.2C135.4,176.4,135.9,174,135.5,173.3z"/>
			</g>
			<g id="XMLID_1458_" class="st14">
				<path class="st5" d="M147,164.8c0.1-0.2,0.3-0.3,0.5-0.4c1.3-0.6,4-0.1,5.5-0.1l-4.6,80c0,0-2.6,0-2.6,0c0,0,0.5-7.6,0.4-8.1
					c-0.3-1.3-0.8-2.6-0.9-4c-0.1-1.2,0.1-2.3,0.2-3.5c0.3-3.2,0.3-6.4,0.7-9.5c0.3-2.4-0.2-5.1,0.4-7.5c0.4-1.6,0.8-3.2,0.5-4.8
					c-0.2-0.8-0.5-1.6-0.7-2.4c-0.3-1.2-0.3-2.6-0.2-3.8c0.3-6.2,0.4-12.5,0.5-18.7c0-3,0.1-6-0.3-8.9
					C145.8,171.3,145.7,166.3,147,164.8z"/>
			</g>
			<g id="XMLID_1389_">
				
					<rect x="139.1" y="97.4" transform="matrix(-1 -1.224647e-16 1.224647e-16 -1 283.7652 214.017)" class="st5" width="5.7" height="19.3"/>
			</g>
			<g id="XMLID_1454_">
				<polygon class="st5" points="144.7,111.9 139.1,108.2 139.1,106.6 144.7,108.4 				"/>
			</g>
			<g id="XMLID_1410_">
				<path class="st1" d="M160,137.3c0-0.1,0-0.3,0-0.4C160.1,137.1,160.1,137.2,160,137.3z M124.5,149c0.6,1.7,1.5,3.5,3.2,4.1
					c0.7,0.2,1.4,0.3,2.1,0.2c0.1,0,0.2,0,0.3,0v6.6h22.7l0.6-6.8c1.7,0.8,3.2,1,4.8-1.4c2.3-3.7,2.1-10.1,1.9-14.4
					c0,0.1,0.3-1.2,0.1-1.2c0.4-4-0.6-7-1.6-10.9c-0.9-3.7-3.1-6.7-5.9-9.2c-2.8-2.5-6.2-1.6-7.9-5.1l-2.6,2.7l-3.1-2.7
					c-1.5,2.2-4.9,2-7.1,2.8c-2.8,1-4.3,3.3-5.4,6C123,128.2,121.5,140,124.5,149z"/>
			</g>
			<path class="st3" d="M154.7,95.7c-0.2-2.4,0.6-4.8,0.3-7.2l0,0.7c-1.8-1.6-3.8-3-5.9-4c-0.6-0.3-1.3-0.6-2-0.4
				c-0.5,0.1-1,0.4-1.4,0.7c-2.2,1.6-4.4,3.1-6.6,4.7c-1.2,0.8-2.4,1.7-3,3.1c-0.5,1.3-0.4,2.8-0.2,4.1c0.4,2.6,0.7,5.2,1.1,7.8
				c0.2,1.6,0.2,1.8,1.7,2.3c0.9,0.3,1.8,0.6,2.7,0.8c2.6,0.5,3.7,1.6,6.3,0.8c3.5-1.1,5.2-5.6,4.7-8.5c0.6,0.5,1.5,0.7,2.2,0.4
				C156.5,100.2,154.8,97.1,154.7,95.7z"/>
			<path class="st5" d="M158.7,83.7c-0.3-1.4-0.6-2.8-2-3.5c-1.1-0.6-2.2-0.1-3.3-0.6c-1.4-0.6-2.1-1.6-3.8-1.3
				c-0.8,0.2-1.4,0.5-2.2,0.7c-2.4,0.7-4.8-2.4-7.2-0.2c-1,0.9-1.4,2.3-2.5,2.9c-1.9,1-2,1.2-2.6,3.2c-0.6,1.6-1.7,2.3-2,4.1
				c-0.2,1.4-1,2.7-1.2,4.1c-0.3,1.5,0.4,2.8,0.4,4.2c0,1.8-0.2,3.6-0.2,5.4c0,0.6,0.1,1.3,0.1,1.9c0.1,1.2,0.2,2.2,1.3,2.6
				c1.1,0.4,2.9,0.3,4.1,0c0.5-0.1,1.1-0.3,1.3-0.8c0.1-0.2,0.1-0.5,0.1-0.7c0-2.4-0.7-4.7-0.9-7c0-0.5-0.1-1,0.1-1.4
				c0.1-0.5,0.5-0.9,0.9-1c1.4-0.4,3.6,1.3,3.7-0.5c0.1-1.8-0.2-3.6,0.2-4.9c0.1-0.2-0.3-0.3-0.1-0.5c0.1-0.2,0.1-0.1,0.3-0.1
				c0.7-0.2,1.7-0.3,2-1c0.2-0.3,0.2-0.7,0.3-1.1c0.3-0.7,1.1-0.9,1.8-0.8c1,0.2,1.7,1.7,2.9,1.5c0.7-0.1,1-1,1.7-1.3
				c0.5-0.2,1.1,0.1,1.5,0.4s0.8,0.8,1.3,1c0.4,0.2,2.7-0.1,2.9-0.5c0.1-0.3,0.3-0.5,0.4-0.8l0.1,0.2
				C158.6,86.6,159,85.1,158.7,83.7z"/>
			<g id="XMLID_1437_">
				<path class="st9" d="M130.1,165.5c7.6,1,15.2,1,22.8,0c0.3,0,0.5-0.3,0.5-0.5c0-1.8,0-3.6,0-5.4c0-0.3-0.3-0.6-0.6-0.5
					c-7.5,0.9-15,0.9-22.5,0c-0.3,0-0.6,0.2-0.6,0.5v5.4C129.6,165.2,129.9,165.5,130.1,165.5z"/>
			</g>
			<g id="XMLID_1449_">
				<path class="st9" d="M145,166.2c-2.2,0.1-4.5,0.1-6.7,0v-6.5c2.2,0.1,4.5,0.1,6.7,0V166.2z"/>
			</g>
			<g id="XMLID_1444_">
				<path class="st5" d="M148.3,244.3l5.7,4.8l7.5,2.6c1.9,0.6,3.3,2.1,3.9,4l0.1,0.5h-15.1l-1.2-2.6v2.6h-5.5v-9.9l1.2-2H148.3z"/>
			</g>
			<g id="XMLID_1448_">
				<path class="st5" d="M132.2,244.3l-5.7,4.8l-7.5,2.6c-1.9,0.6-3.3,2.1-3.9,4l-0.1,0.5H130l1.2-2.6v2.6h5.5v-9.9l-1.2-2H132.2z"
					/>
			</g>
			<g id="XMLID_1438_">
				<path class="st5" d="M143.1,103.2L143.1,103.2V89.8h-2.6v10.6C140.5,102,141.7,103.2,143.1,103.2z"/>
			</g>
			<g>
				<polygon class="st9" points="138.7,154.7 142.3,158 145.9,154.7 143.6,119.3 140.9,119.3 				"/>
			</g>
			<g>
				<polygon class="st9" points="141.4,157.2 138.7,154.7 140.9,119.3 142.3,119.3 142.3,158 				"/>
			</g>
			<g id="XMLID_1426_">
				<g id="XMLID_1431_">
					<path class="st5" d="M136.4,140.3C136.4,140.3,136.4,140.4,136.4,140.3C136.4,140.4,136.4,140.4,136.4,140.3L136.4,140.3z"/>
				</g>
				<g id="XMLID_1430_">
					<path class="st5" d="M136.9,142.6c-0.3-0.6-0.5-1.2-0.6-1.8c0.1-0.1,0.1-0.3,0.1-0.4c-0.2,0.3-0.8,0.3-1.1,0
						c-0.3-0.3-0.4-0.8-0.4-1.2c-0.2-1.8-0.3-3.7-0.3-5.5c-0.6-0.3-1.3,0.3-1.6,0.9c-0.6,1-0.7,2.3-0.5,3.5c-1-0.7-2.3-1-3.5-0.7
						c-0.7,0.2-1.4,0.9-1,1.4c0.3,0.4,1,0.5,1,1c-0.7,0-1.3,0.6-1.4,1.3c-0.1,0.7,0.5,1.4,1.2,1.5c-0.6,0.3-1,1.1-0.9,1.8
						c0.3-0.1,0.6,0.1,0.8,0.3c-0.4,0-0.7,0.6-0.5,1c0.2,0.4,0.6,0.6,1.1,0.7c0.4,0.1,0.9,0,1.3,0c0.8,0,1.5,0.1,2.2,0
						c0.8-0.1,1.5,0.2,2.3,0.3c0.2,0,0.4,0,0.5,0c0.6-0.1,0.9-0.7,1.1-1.3c0.2-0.6,0.3-1.2,0.7-1.6
						C137.6,143.4,137.1,142.9,136.9,142.6z"/>
				</g>
			</g>
			<g id="XMLID_1440_" class="st20">
				<path class="st34" d="M160,137.5c0-0.1,0-0.3,0-0.4C160.1,137.2,160.1,137.4,160,137.5z M158.5,150.9c0.1-0.2,0.3-0.4,0.4-0.7
					c1.5-3.7-4.1-4.7-4.1-4.7c-0.9,0.4-1.9-0.3-2.7-1c-1.1-1-1.9-2-3.4-2.4c-4.2-1.2-8.9-2-13-3.5c0,2-0.6,3.6-1,5.4
					c1.7,0.4,3.3,1.2,4.9,2c2.7,1.4,4.8,2.2,7.4,4c1.3,0.9,3.2,0.4,4.6,1.1C154.2,152.4,156.4,154.3,158.5,150.9z"/>
			</g>
			<g id="XMLID_1445_" class="st20">
				<g id="XMLID_1446_">
					<path class="st34" d="M160,137.3c0-0.1,0-0.3,0-0.4C160.1,137.1,160.1,137.2,160,137.3z"/>
				</g>
				<g id="XMLID_1447_">
					<path class="st34" d="M153.4,155.1c-1.3-0.2-2.6-0.6-3.6-1.1c-3.5-1.8-6.9-3.7-10.4-5.6c-1.6-0.8-3.2-1.7-5-2
						c0.5-1.9,1.1-3.5,1-5.5c4.1,1.5,8.9,2.3,13.2,3.5c1.4,0.4,2.3,1.5,3.4,2.5c0.8,0.7,1.8,1.4,2.7,1c0,0,5.7,0.2,3.4,3.9
						c-1.5,2.4-3.1,2.2-4.8,1.4V155.1z"/>
				</g>
			</g>
			<g id="XMLID_1427_" class="st20">
				<g id="XMLID_1435_">
					<path class="st34" d="M150.3,145.5c0.8,0.7,2.2-21.9,2.2-21.9s4.7-1.3,5.6,2.4c1,3.9,1.7,7.9,1.3,12c0.1,0,0.2-0.1,0.3-0.2
						c0.2,4.3,0.5,10.8-1.9,14.4C155.9,155.2,149.1,144.5,150.3,145.5z"/>
				</g>
				<g id="XMLID_1434_">
					<path class="st34" d="M159.6,137.9c0-0.1,0-0.3,0-0.4C159.7,137.6,159.7,137.8,159.6,137.9z"/>
				</g>
			</g>
			<g id="XMLID_1417_">
				<g id="XMLID_1432_">
					<path class="st1" d="M135.5,139.9c4.1,1.5,8.9,2.3,13.2,3.5c1.4,0.4,2.7-0.8,3.8,0.2l0.2-22.3c0,0-2.4-7.2,0.4-4.7
						c2.8,2.5,4.9,5.8,5.8,9.5c1,3.9,1.8,7.7,1.4,11.7c0.1,0,0.6,10.8-1.8,14.5c-1.8,2.9-6.2,1.9-8.7,0.7c-3.5-1.8-6.9-3.7-10.4-5.6
						c-1.6-0.8-3.4-1.3-5.1-1.7C134.8,143.8,135.2,141.4,135.5,139.9z"/>
				</g>
			</g>
			<g id="XMLID_1396_" class="st6">
				<path class="st34" d="M132.7,113.6c-2.8,1-4.3,3.3-5.4,6c-3.6,8.6-5.1,20.4-2.1,29.3c0.6,1.7,1.5,3.5,3.2,4.1
					c0.7,0.2,1.4,0.3,2.1,0.2l2.5-7.6l-0.8-22C132.2,123.7,135,112.8,132.7,113.6z"/>
			</g>
			<g id="XMLID_1418_">
				<g id="XMLID_1424_">
					<path class="st5" d="M154.1,142.1C154.1,142.1,154.1,142.2,154.1,142.1C154.1,142.2,154.1,142.2,154.1,142.1L154.1,142.1z"/>
				</g>
				<g id="XMLID_1425_">
					<path class="st5" d="M153.6,144.4c0.3-0.6,0.5-1.2,0.6-1.8c-0.1-0.1-0.1-0.3-0.1-0.4c0.2,0.3,0.8,0.3,1.1,0
						c0.3-0.3,0.4-0.8,0.4-1.2c0.2-1.8,0.3-3.7,0.3-5.5c0.6-0.3,1.3,0.3,1.6,0.9c0.6,1,0.7,2.3,0.5,3.5c1-0.7,2.3-1,3.6-0.7
						c0.7,0.2,1.4,0.9,1,1.4c-0.3,0.4-1,0.5-1,1c0.7,0,1.3,0.6,1.4,1.3c0.1,0.7-0.5,1.4-1.2,1.5c0.6,0.3,1,1.1,0.9,1.8
						c-0.3-0.1-0.6,0.1-0.8,0.3c0.4,0,0.7,0.6,0.5,1c-0.2,0.4-0.6,0.6-1.1,0.7c-0.4,0.1-0.9,0-1.3,0c-0.8,0-1.5,0.1-2.2,0
						c-0.8-0.1-1.5,0.2-2.3,0.3c-0.2,0-0.4,0-0.5,0c-0.6-0.1-0.9-0.7-1.1-1.3c-0.2-0.6-0.3-1.2-0.7-1.6
						C152.9,145.2,153.4,144.7,153.6,144.4z"/>
				</g>
			</g>
			<g id="XMLID_1436_" class="st20">
				<path class="st34" d="M131,148.5c7.1-1.4,14.1-2.8,21.2-4.2c0.7-0.1,1.6-0.3,2.2,0.1c0.4,0.3,0.7,0.7,0.8,1.2
					c0.6,1.6-0.3,3.4-0.8,5c-1.8,0.5-3.7,1-5.5,1.4c-6.2,1.6-12.5,3.3-18.9,3.4v-2.2c-0.1,0-0.2,0-0.3,0c-0.7,0-1.4,0-2.1-0.2
					C126,152.5,131,148.5,131,148.5z"/>
			</g>
			<g id="XMLID_1411_">
				<path class="st1" d="M137.6,113.5c-1.5,2.2-3.6-0.7-5.9,0.1c-2.8,1-4.3,3.3-5.4,6c-3.6,8.6-5.1,20.4-2.1,29.3
					c0.6,1.7,1.5,3.5,3.2,4.1c0.7,0.2,1.4,0.3,2.1,0.2c6.6,0,13.1-1.7,19.4-3.4c2-0.5,4.2-1.2,6.3-1.2c0.3-0.8-0.8-6.7-0.7-6.8
					c-1.7,0.6-9.3,1.8-11.4,2.2c-1.1,0.2-12.4,2.3-12.4,2.3l1.3-22.7L137.6,113.5z"/>
			</g>
			<g id="XMLID_1439_">
				<path class="st9" d="M139,119l-3.5-6.2c1.4-0.3,2.7-0.9,3.5-2l3.1,2.8L139,119z"/>
			</g>
			<g>
				<polygon class="st9" points="140,117.3 140.9,119.3 143.6,119.3 144.4,117.5 142.2,113.6 				"/>
			</g>
			<g id="XMLID_1443_">
				<path class="st9" d="M148,113.6l-2.7,5.4l-3.1-5.4l2.6-2.7C145.6,112.4,146.7,113.1,148,113.6z"/>
			</g>
		</g>
	</g>
	<g id="Layer_11">
		<g id="XMLID_193_">
			<g id="XMLID_196_">
				<path class="st12" d="M290.1,231.5v11.8l0,0l8.3,8.3c2.1-2.1,3.5-5.1,3.5-8.3c0,0,0,0,0,0C301.9,236.7,296.6,231.5,290.1,231.5z
					"/>
			</g>
			<g id="XMLID_195_">
				<path class="st5" d="M280.2,235.1c-2.1,2.1-3.5,5.1-3.5,8.3l11.8,0v0v-11.8C285.3,231.7,282.3,233,280.2,235.1z"/>
			</g>
			<g id="XMLID_194_">
				<path class="st1" d="M288.5,245L288.5,245l-11.8,0c0,0,0,0,0,0c0,6.5,5.3,11.8,11.8,11.8c3.3,0,6.2-1.3,8.3-3.4L288.5,245z"/>
			</g>
		</g>
		<g class="st14">
			<path class="st5" d="M294.9,232.5c-1.6,2.5-2.5,5.4-2.5,8.5c0,2,0.4,3.9,1.1,5.6l4.9,5c2.1-2.1,3.5-5.1,3.5-8.3c0,0,0,0,0,0
				C301.9,238.5,299,234.4,294.9,232.5z"/>
		</g>
		<g id="XMLID_183_">
			<g id="XMLID_184_">
				<g id="XMLID_192_">
					<path class="st9" d="M325.9,241c0,8.6-7,15.6-15.6,15.6c-8.6,0-15.6-7-15.6-15.6c0-8.6,7-15.6,15.6-15.6
						C318.9,225.4,325.9,232.4,325.9,241z"/>
				</g>
				<g id="XMLID_191_">
					<path class="st5" d="M324.2,241c0,7.7-6.2,13.9-13.9,13.9c-7.7,0-13.9-6.2-13.9-13.9c0-7.7,6.2-13.9,13.9-13.9
						C318,227.1,324.2,233.3,324.2,241z"/>
				</g>
				<g id="XMLID_190_">
					<path class="st9" d="M322.6,241c0,6.8-5.5,12.3-12.3,12.3c-6.8,0-12.3-5.5-12.3-12.3c0-6.8,5.5-12.3,12.3-12.3
						C317.1,228.7,322.6,234.2,322.6,241z"/>
				</g>
				<g id="XMLID_185_">
					<g id="XMLID_188_">
						<g id="XMLID_189_">
							<path class="st5" d="M311.9,247.3h-4.6c-1,0-1.9-0.9-1.9-1.9v-1h2.7v0.2h3.8c0.7,0,1.3-0.6,1.3-1.3c0-0.5-0.4-0.9-0.9-0.9
								H309c-2,0-3.6-1.6-3.6-3.6v-0.5c0-2.2,1.8-4,4-4h4.6c1,0,1.9,0.9,1.9,1.9v1.1h-2.7v-0.3h-3.8c-0.7,0-1.3,0.6-1.3,1.3v0.5
								c0,0.5,0.4,0.9,0.9,0.9h3.4c2,0,3.6,1.6,3.6,3.6C315.9,245.5,314.1,247.3,311.9,247.3z"/>
						</g>
					</g>
					<g id="XMLID_186_">
						<g id="XMLID_187_">
							<rect x="309.3" y="233.1" class="st5" width="2.7" height="15.9"/>
						</g>
					</g>
				</g>
			</g>
		</g>
		<g id="XMLID_57_">
			<g id="XMLID_119_">
				<g id="XMLID_121_">
					<g id="XMLID_122_">
						<path class="st9" d="M209.1,256.3h-10c-0.6,0-1-0.5-0.9-1.1l1.4-6.7c0.1-0.4,0.4-0.6,0.7-0.6h7.5c0.4,0,0.7,0.3,0.7,0.6
							l1.4,6.7C210,255.7,209.6,256.3,209.1,256.3z"/>
					</g>
				</g>
				<g id="XMLID_120_">
					<path class="st9" d="M209.8,255.9l-8-8h-1.5c-0.1,0-0.2,0-0.3,0c-0.2,0.1-0.4,0.3-0.5,0.6l-0.6,3.2l-0.7,3.5
						c-0.1,0.6,0.3,1.1,0.9,1.1h10C209.4,256.3,209.6,256.1,209.8,255.9z"/>
				</g>
			</g>
			<g id="XMLID_115_">
				<g id="XMLID_117_">
					<g id="XMLID_118_">
						<path class="st9" d="M196.3,256.3h-10c-0.6,0-1-0.5-0.9-1.1l1.4-6.7c0.1-0.4,0.4-0.6,0.7-0.6h7.5c0.4,0,0.7,0.3,0.7,0.6
							l1.4,6.7C197.3,255.7,196.9,256.3,196.3,256.3z"/>
					</g>
				</g>
				<g id="XMLID_116_">
					<path class="st9" d="M197,255.9l-8-8h-1.5c-0.1,0-0.2,0-0.3,0c-0.2,0.1-0.4,0.3-0.5,0.6l-0.6,3.2l-0.7,3.5
						c-0.1,0.6,0.3,1.1,0.9,1.1h10C196.6,256.3,196.9,256.1,197,255.9z"/>
				</g>
			</g>
			<g id="XMLID_105_">
				<g id="XMLID_111_">
					<g id="XMLID_112_">
						<path class="st9" d="M208.9,239.5h-10c-0.6,0-1-0.5-0.9-1.1l1.4-6.7c0.1-0.4,0.4-0.6,0.7-0.6h7.5c0.4,0,0.7,0.3,0.7,0.6
							l1.4,6.7C209.9,239,209.5,239.5,208.9,239.5z"/>
					</g>
				</g>
				<g id="XMLID_109_">
					<path class="st9" d="M209.6,239.2l-8-8h-1.5c-0.1,0-0.2,0-0.3,0c-0.2,0.1-0.4,0.3-0.5,0.6l-0.6,3.2l-0.7,3.5
						c-0.1,0.6,0.3,1.1,0.9,1.1h10C209.2,239.5,209.5,239.4,209.6,239.2z"/>
				</g>
			</g>
			<g id="XMLID_99_">
				<g id="XMLID_103_">
					<g id="XMLID_104_">
						<path class="st9" d="M221.6,256.3h-10c-0.6,0-1-0.5-0.9-1.1l1.4-6.7c0.1-0.4,0.4-0.6,0.7-0.6h7.5c0.4,0,0.7,0.3,0.7,0.6
							l1.4,6.7C222.6,255.7,222.2,256.3,221.6,256.3z"/>
					</g>
				</g>
				<g id="XMLID_101_">
					<path class="st9" d="M222.3,255.9l-8-8h-1.5c-0.1,0-0.2,0-0.3,0c-0.2,0.1-0.4,0.3-0.5,0.6l-0.6,3.2l-0.7,3.5
						c-0.1,0.6,0.3,1.1,0.9,1.1h10C221.9,256.3,222.2,256.1,222.3,255.9z"/>
				</g>
			</g>
			<g id="XMLID_76_">
				<g id="XMLID_97_">
					<g id="XMLID_98_">
						<path class="st9" d="M202.7,247.9h-10c-0.6,0-1-0.5-0.9-1.1l1.4-6.7c0.1-0.4,0.4-0.6,0.7-0.6h7.5c0.4,0,0.7,0.3,0.7,0.6
							l1.4,6.7C203.7,247.4,203.3,247.9,202.7,247.9z"/>
					</g>
				</g>
				<g id="XMLID_88_">
					<path class="st9" d="M203.5,247.5l-8-8H194c-0.1,0-0.2,0-0.3,0c-0.2,0.1-0.4,0.3-0.5,0.6l-0.6,3.2l-0.7,3.5
						c-0.1,0.6,0.3,1.1,0.9,1.1h10C203,247.9,203.3,247.7,203.5,247.5z"/>
				</g>
			</g>
			<g id="XMLID_72_">
				<g id="XMLID_74_">
					<g id="XMLID_75_">
						<path class="st9" d="M215.4,247.9h-10c-0.6,0-1-0.5-0.9-1.1l1.4-6.7c0.1-0.4,0.4-0.6,0.7-0.6h7.5c0.4,0,0.7,0.3,0.7,0.6
							l1.4,6.7C216.4,247.4,215.9,247.9,215.4,247.9z"/>
					</g>
				</g>
				<g id="XMLID_73_">
					<path class="st9" d="M216.1,247.5l-8-8h-1.5c-0.1,0-0.2,0-0.3,0c-0.2,0.1-0.4,0.3-0.5,0.6l-0.6,3.2l-0.7,3.5
						c-0.1,0.6,0.3,1.1,0.9,1.1h10C215.7,247.9,215.9,247.7,216.1,247.5z"/>
				</g>
			</g>
			<g id="XMLID_71_">
				<g>
					<path class="st5" d="M204,229.4c-0.2,0-0.4-0.2-0.4-0.4v-1.5c0-0.2,0.2-0.4,0.4-0.4s0.4,0.2,0.4,0.4v1.5
						C204.4,229.2,204.2,229.4,204,229.4z"/>
				</g>
			</g>
			<g id="XMLID_70_">
				<g>
					<path class="st5" d="M206.2,229.6c0,0-0.1,0-0.1,0c-0.2-0.1-0.3-0.3-0.3-0.5l0.8-3c0.1-0.2,0.3-0.3,0.5-0.3
						c0.2,0.1,0.3,0.3,0.3,0.5l-0.8,3C206.5,229.5,206.4,229.6,206.2,229.6z"/>
				</g>
			</g>
			<g id="XMLID_69_">
				<g>
					<path class="st5" d="M208.3,230.5c-0.1,0-0.1,0-0.2-0.1c-0.2-0.1-0.3-0.4-0.1-0.6l0.8-1.3c0.1-0.2,0.4-0.3,0.6-0.1
						c0.2,0.1,0.3,0.4,0.1,0.6l-0.8,1.3C208.5,230.4,208.4,230.5,208.3,230.5z"/>
				</g>
			</g>
			<g id="XMLID_67_">
				<g>
					<path class="st5" d="M210,231.9c-0.1,0-0.2,0-0.3-0.1c-0.2-0.2-0.2-0.4,0-0.6l2.2-2.2c0.2-0.2,0.4-0.2,0.6,0
						c0.2,0.2,0.2,0.4,0,0.6l-2.2,2.2C210.2,231.8,210.1,231.9,210,231.9z"/>
				</g>
			</g>
			<g id="XMLID_66_">
				<g>
					<path class="st5" d="M211.4,233.6c-0.1,0-0.3-0.1-0.3-0.2c-0.1-0.2,0-0.4,0.1-0.6l1.3-0.8c0.2-0.1,0.4,0,0.6,0.1
						c0.1,0.2,0,0.4-0.1,0.6l-1.3,0.8C211.5,233.6,211.5,233.6,211.4,233.6z"/>
				</g>
			</g>
			<g id="XMLID_65_">
				<g>
					<path class="st5" d="M212.2,235.7c-0.2,0-0.3-0.1-0.4-0.3c-0.1-0.2,0.1-0.4,0.3-0.5l3-0.8c0.2-0.1,0.4,0.1,0.5,0.3
						c0.1,0.2-0.1,0.4-0.3,0.5l-3,0.8C212.3,235.7,212.3,235.7,212.2,235.7z"/>
				</g>
			</g>
			<g id="XMLID_64_">
				<g>
					<path class="st5" d="M212.5,237.9c-0.2,0-0.4-0.2-0.4-0.4c0-0.2,0.2-0.4,0.4-0.4l1.5,0c0,0,0,0,0,0c0.2,0,0.4,0.2,0.4,0.4
						c0,0.2-0.2,0.4-0.4,0.4L212.5,237.9L212.5,237.9z"/>
				</g>
			</g>
			<g id="XMLID_63_">
				<g>
					<path class="st5" d="M193.9,237.9c-0.2,0-0.4-0.2-0.4-0.4c0-0.2,0.2-0.4,0.4-0.4l1.5,0c0,0,0,0,0,0c0.2,0,0.4,0.2,0.4,0.4
						c0,0.2-0.2,0.4-0.4,0.4L193.9,237.9C193.9,237.9,193.9,237.9,193.9,237.9z"/>
				</g>
			</g>
			<g id="XMLID_62_">
				<g>
					<path class="st5" d="M195.7,235.7c0,0-0.1,0-0.1,0l-3-0.8c-0.2-0.1-0.3-0.3-0.3-0.5c0.1-0.2,0.3-0.3,0.5-0.3l3,0.8
						c0.2,0.1,0.3,0.3,0.3,0.5C196.1,235.6,195.9,235.7,195.7,235.7z"/>
				</g>
			</g>
			<g id="XMLID_61_">
				<g>
					<path class="st5" d="M196.6,233.7c-0.1,0-0.1,0-0.2-0.1l-1.4-0.8c-0.2-0.1-0.3-0.4-0.1-0.6c0.1-0.2,0.4-0.3,0.6-0.1l1.4,0.8
						c0.2,0.1,0.3,0.4,0.1,0.6C196.8,233.6,196.7,233.7,196.6,233.7z"/>
				</g>
			</g>
			<g id="XMLID_60_">
				<g>
					<path class="st5" d="M197.9,231.9c-0.1,0-0.2,0-0.3-0.1l-2.2-2.2c-0.2-0.2-0.2-0.4,0-0.6c0.2-0.2,0.4-0.2,0.6,0l2.2,2.2
						c0.2,0.2,0.2,0.4,0,0.6C198.1,231.8,198,231.9,197.9,231.9z"/>
				</g>
			</g>
			<g id="XMLID_59_">
				<g>
					<path class="st5" d="M199.7,230.5c-0.1,0-0.3-0.1-0.3-0.2l-0.8-1.4c-0.1-0.2,0-0.4,0.1-0.6c0.2-0.1,0.4,0,0.6,0.1l0.8,1.4
						c0.1,0.2,0,0.4-0.1,0.6C199.8,230.5,199.7,230.5,199.7,230.5z"/>
				</g>
			</g>
			<g id="XMLID_58_">
				<g>
					<path class="st5" d="M201.7,229.7c-0.2,0-0.3-0.1-0.4-0.3l-0.8-3c-0.1-0.2,0.1-0.4,0.3-0.5c0.2-0.1,0.4,0.1,0.5,0.3l0.8,3
						c0.1,0.2-0.1,0.4-0.3,0.5C201.8,229.7,201.8,229.7,201.7,229.7z"/>
				</g>
			</g>
		</g>
		<g id="XMLID_2_">
			<g id="XMLID_55_">
				<g id="XMLID_56_">
					<path class="st9" d="M172.1,234.8c-3.2,0-6.1-1.8-7.3-4.6l-4-9c-0.5-1.2-0.4-2.5,0.3-3.6c0.8-1.2,2.1-1.9,3.5-1.9h6.6v1.3h-6.6
						c-1,0-1.9,0.5-2.4,1.3c-0.5,0.7-0.5,1.5-0.2,2.3l4,9c1,2.3,3.4,3.8,6.1,3.8V234.8z"/>
				</g>
			</g>
			<g id="XMLID_54_">
				<rect x="174.7" y="235.7" class="st5" width="6" height="12.1"/>
			</g>
			<g id="XMLID_53_" class="st14">
				<polygon class="st5" points="180.6,239.2 174.7,240 174.7,235.7 180.6,235.7 				"/>
			</g>
			<g id="XMLID_50_">
				<g id="XMLID_52_" class="st14">
					<polygon class="st34" points="171.3,215.8 166.1,215.8 166.2,217.1 171.3,217.1 					"/>
				</g>
				<g id="XMLID_51_" class="st14">
					<path class="st34" d="M168.5,234c1.1,0.5,2.3,0.8,3.6,0.8v-1.3c-1.7,0-3.2-0.6-4.4-1.5C167.9,232.6,168.2,233.3,168.5,234z"/>
				</g>
			</g>
			<g id="XMLID_48_">
				<g id="XMLID_49_">
					<path class="st9" d="M183.3,234.8c3.2,0,6.1-1.8,7.3-4.6l4-9c0.5-1.2,0.4-2.5-0.3-3.6c-0.8-1.2-2.1-1.9-3.5-1.9h-6.6v1.3h6.6
						c1,0,1.9,0.5,2.4,1.3c0.5,0.7,0.5,1.5,0.2,2.3l-4,9c-1,2.3-3.4,3.8-6.1,3.8V234.8z"/>
				</g>
			</g>
			<g id="XMLID_45_">
				<g id="XMLID_47_" class="st14">
					<polygon class="st34" points="184.2,215.8 189.4,215.8 189.2,217.1 184.2,217.1 					"/>
				</g>
				<g id="XMLID_46_" class="st14">
					<path class="st34" d="M186.9,234c-1.1,0.5-2.3,0.8-3.6,0.8v-1.3c1.7,0,3.2-0.6,4.4-1.5C187.5,232.6,187.2,233.3,186.9,234z"/>
				</g>
			</g>
			<g id="XMLID_44_">
				<path class="st9" d="M177.7,239L177.7,239c-5,0-9.3-3.9-9.7-8.9l-1.4-15.5l0-0.5h22.1l-1.3,15.9C187,235.1,182.8,239,177.7,239z
					"/>
			</g>
			<g id="XMLID_43_">
				<path class="st9" d="M187.6,214.2l-1.3,15.9c-0.4,4.9-4.3,8.7-9.1,9c0.2,0,0.4,0,0.5,0h0c5.1,0,9.3-3.9,9.7-9l1.3-15.9H187.6z"
					/>
			</g>
			<g id="XMLID_42_">
				<path class="st5" d="M169.8,230.1l-1.4-15.5l0-0.5h-1.7l0,0.5l1.4,15.5c0.4,5,4.6,8.9,9.7,8.9h0c0.3,0,0.6,0,0.9,0
					C173.9,238.6,170.2,234.9,169.8,230.1z"/>
			</g>
			<g id="XMLID_41_">
				<path class="st9" d="M179.2,238.9c1.3-0.2,2.6-0.7,3.7-1.3c0-0.4,0.1-0.8,0.1-1.2l1.1-21.9h-3.9
					C180.2,214.6,179.5,230.4,179.2,238.9z"/>
			</g>
			<g id="XMLID_40_">
				<path class="st9" d="M180.5,243h-5.7c-0.6,0-1-0.5-1-1v-0.4c0-0.6,0.5-1,1-1h5.7c0.6,0,1,0.5,1,1v0.4
					C181.5,242.5,181.1,243,180.5,243z"/>
			</g>
			<g id="XMLID_39_">
				<path class="st9" d="M180.5,246.7h-5.7c-0.6,0-1-0.5-1-1v-0.4c0-0.6,0.5-1,1-1h5.7c0.6,0,1,0.5,1,1v0.4
					C181.5,246.2,181.1,246.7,180.5,246.7z"/>
			</g>
			<g id="XMLID_38_">
				<path class="st9" d="M184.4,248.7L184.4,248.7c0-1.1-0.9-2-2-2h-9.6c-1.1,0-2,0.9-2,2l0,0H184.4z"/>
			</g>
			<g id="XMLID_37_">
				<path class="st9" d="M170.9,248.7h13.6c0-0.2-0.1-0.5-0.1-0.7H171C170.9,248.2,170.9,248.4,170.9,248.7z"/>
			</g>
			<g id="XMLID_36_">
				<path class="st9" d="M173.8,241.8v0.2c0,0.6,0.5,1,1,1h5.7c0.6,0,1-0.5,1-1v-0.2H173.8z"/>
			</g>
			<g id="XMLID_35_">
				<path class="st9" d="M173.8,245.5v0.2c0,0.6,0.5,1,1,1h5.7c0.6,0,1-0.5,1-1v-0.2H173.8z"/>
			</g>
			<g id="XMLID_34_" class="st14">
				<polygon class="st34" points="166.6,214.7 166.8,216.2 188.6,215.4 188.7,214.2 166.6,214.2 				"/>
			</g>
			<g id="XMLID_33_">
				<rect x="165.8" y="213.5" class="st9" width="23.7" height="1.4"/>
			</g>
			<g id="XMLID_32_">
				<rect x="179.8" y="213.5" class="st9" width="4.7" height="1.4"/>
			</g>
			<g id="XMLID_31_">
				
					<rect x="186.3" y="213.5" transform="matrix(-1 -1.224647e-16 1.224647e-16 -1 373.3089 428.5163)" class="st9" width="0.8" height="1.4"/>
			</g>
			<g id="XMLID_28_">
				<g id="XMLID_30_">
					<path class="st5" d="M187.5,256.5H168c-0.3,0-0.5-0.2-0.5-0.5v-6.9c0-0.3,0.2-0.5,0.5-0.5h19.6c0.3,0,0.5,0.2,0.5,0.5v6.9
						C188,256.3,187.8,256.5,187.5,256.5z"/>
				</g>
				<g id="XMLID_29_">
					<path class="st30" d="M176.2,256.5l10.1-7.9H168c-0.3,0-0.5,0.2-0.5,0.5v6.9c0,0.3,0.2,0.5,0.5,0.5H176.2z"/>
				</g>
			</g>
			<g id="XMLID_27_">
				<rect x="172.7" y="249.7" class="st8" width="10" height="5.7"/>
			</g>
			<g id="XMLID_23_">
				<g id="XMLID_25_">
					<path class="st35" d="M176.9,253.5h0.5v-2.2h-0.5v-0.6h1.1v2.8h0.5v0.5h-1.6V253.5z"/>
				</g>
			</g>
		</g>
	</g>
</g>
<g id="Layer_15">
</g>
</svg>
