<svg xmlns="http://www.w3.org/2000/svg" viewBox="0 0 309.68 394.43"><defs><style>.cls-1{isolation:isolate;}.cls-2{fill:#e3e3e3;}.cls-3{fill:#b6bad1;}.cls-4{fill:#fff;}.cls-5{fill:#ababab;}.cls-6{fill:#55639e;}.cls-7{fill:#ff4747;}.cls-11,.cls-8{fill:#fff75c;}.cls-9{fill:#dee3ff;}.cls-10{fill:#ffd45c;}.cls-11{font-size:18.98px;font-family:Bebas;}.cls-12,.cls-13{fill:#c1b3c7;}.cls-13{mix-blend-mode:multiply;}.cls-14{opacity:0.5;}</style></defs><title>Asset 1</title><g class="cls-1"><g id="Layer_2" data-name="Layer 2"><g id="BACKGROUND_2" data-name="BACKGROUND 2"><path class="cls-2" d="M227,41.67h43a3,3,0,0,1,3,3V130a3,3,0,0,1-3,3H227a3,3,0,0,1-3-3V44.63A3,3,0,0,1,227,41.67Z"/><path class="cls-3" d="M230.2,44.86h36.62a2.51,2.51,0,0,1,2.51,2.51v68.24a2.52,2.52,0,0,1-2.52,2.52H230.2a2.52,2.52,0,0,1-2.52-2.52V47.38A2.52,2.52,0,0,1,230.2,44.86Z"/><rect class="cls-4" x="240.39" y="59.4" width="16.25" height="16.26"/><rect class="cls-4" x="231.76" y="80.75" width="33.49" height="6.07"/><rect class="cls-4" x="231.76" y="92.07" width="33.49" height="6.07"/><path class="cls-5" d="M252,125.52A3.57,3.57,0,1,1,248.4,122,3.57,3.57,0,0,1,252,125.52Z"/><rect class="cls-3" x="87.83" y="379.93" width="111.67" height="8.5"/><rect class="cls-2" x="75.84" y="290.68" width="135.85" height="92.63" rx="3"/><rect class="cls-2" x="75.84" y="387.36" width="135.85" height="7.07" rx="3"/><rect class="cls-3" x="79.53" y="293.92" width="128.47" height="74.39" rx="2.55"/><rect class="cls-4" x="99.41" y="313.93" width="87.5" height="54.38"/><rect class="cls-6" x="105" y="319.76" width="74.67" height="11.35"/><rect class="cls-7" x="105" y="343.88" width="21.17" height="20.38"/><rect class="cls-2" x="105" y="334.58" width="74.67" height="3.18"/><rect class="cls-8" x="130.66" y="343.88" width="49" height="3.77"/><rect class="cls-2" x="130.66" y="352.19" width="49" height="3.77"/><rect class="cls-2" x="130.66" y="360.49" width="49" height="3.77"/><rect class="cls-2" x="233.96" y="196.54" width="75.4" height="46.86"/><rect class="cls-3" x="233.96" y="192.82" width="75.4" height="3.72"/><polygon class="cls-8" points="248.88 210.05 257 210.05 252.94 207.58 248.88 205.1 244.81 207.58 240.75 210.05 248.88 210.05"/><polygon class="cls-8" points="267.06 210.05 279.28 210.05 273.17 205.8 267.06 201.55 260.96 205.8 254.84 210.05 267.06 210.05"/><polygon class="cls-8" points="286.87 210.05 303.88 210.05 295.37 208.17 286.87 206.29 278.36 208.17 269.86 210.05 286.87 210.05"/><rect class="cls-3" x="239.29" y="226.54" width="1.94" height="10.12"/><rect class="cls-3" x="242.79" y="231.6" width="1.94" height="5.06"/><rect class="cls-3" x="246.29" y="223.84" width="1.94" height="12.82"/><rect class="cls-3" x="290.22" y="226.25" width="2.93" height="10.13"/><rect class="cls-3" x="295.51" y="231.31" width="2.93" height="5.06"/><rect class="cls-3" x="300.79" y="223.56" width="2.93" height="12.82"/><rect class="cls-3" x="249.79" y="221.83" width="1.94" height="14.83"/><rect class="cls-6" x="261.15" y="221.83" width="23.55" height="14.83"/><polygon class="cls-4" points="261.15 236.66 266.33 230.95 270.92 234.13 278.1 225.57 284.71 236.66 261.15 236.66"/><path class="cls-9" d="M254.8,75.43c0,.1,0,.21,0,.31H242.23c0-.1,0-.21,0-.31a6.31,6.31,0,1,1,12.58,0Z"/><path class="cls-9" d="M252.05,66.58a3.54,3.54,0,1,1-3.54-3.53A3.54,3.54,0,0,1,252.05,66.58Z"/><rect class="cls-2" x="2.08" y="196.33" width="79" height="109.2" rx="4"/><path class="cls-2" d="M56.32,213.06H26.84a10.86,10.86,0,0,1,0-21.72H56.32a10.86,10.86,0,0,1,0,21.72ZM26.84,197.34a4.86,4.86,0,0,0,0,9.72H56.32a4.86,4.86,0,0,0,0-9.72Z"/><rect class="cls-4" x="9.83" y="203.4" width="63.5" height="93.33"/><rect class="cls-3" x="33.66" y="219.39" width="30.75" height="1.83"/><rect class="cls-3" x="33.66" y="231.64" width="30.75" height="1.83"/><rect class="cls-3" x="33.66" y="243.89" width="30.75" height="1.83"/><rect class="cls-3" x="33.66" y="256.14" width="30.75" height="1.83"/><rect class="cls-3" x="33.66" y="268.39" width="30.75" height="1.83"/><rect class="cls-3" x="33.66" y="280.64" width="30.75" height="1.83"/><path class="cls-3" d="M57.83,203.4A3.58,3.58,0,0,1,54.24,207H28.91a3.58,3.58,0,0,1-3.58-3.58h0a3.58,3.58,0,0,1,3.58-3.59H54.24a3.59,3.59,0,0,1,3.59,3.59Z"/><rect class="cls-3" x="15.98" y="219.39" width="14.08" height="14.08"/><rect class="cls-3" x="15.98" y="243.89" width="14.08" height="14.08"/><rect class="cls-3" x="15.98" y="268.39" width="14.08" height="14.08"/><rect class="cls-8" x="19.4" y="224.8" width="2.37" height="6.95" transform="translate(-171.53 103.27) rotate(-51.8)"/><rect class="cls-8" x="19.57" y="225.24" width="10.49" height="2.38" transform="translate(-171.15 110.33) rotate(-53.1)"/><rect class="cls-8" x="19.4" y="249.3" width="2.37" height="6.95" transform="translate(-190.78 112.62) rotate(-51.8)"/><rect class="cls-8" x="19.57" y="249.74" width="10.49" height="2.38" transform="translate(-190.75 120.12) rotate(-53.1)"/><rect class="cls-7" x="17.78" y="274.25" width="10.49" height="2.37" transform="translate(-195.31 105.94) rotate(-47.4)"/><rect class="cls-7" x="21.83" y="270.19" width="2.37" height="10.49" transform="translate(-195.36 106.01) rotate(-47.42)"/><rect class="cls-8" x="173.04" y="142.84" width="34.33" height="9.62"/><rect class="cls-10" x="175.69" y="142.84" width="1.83" height="9.62"/><rect class="cls-10" x="180.17" y="142.84" width="1.83" height="9.62"/><rect class="cls-10" x="184.65" y="142.84" width="1.83" height="9.62"/><rect class="cls-10" x="189.13" y="142.84" width="1.83" height="9.62"/><rect class="cls-10" x="193.61" y="142.84" width="1.83" height="9.62"/><rect class="cls-10" x="198.08" y="142.84" width="1.83" height="9.62"/><rect class="cls-10" x="202.56" y="142.84" width="1.83" height="9.62"/><rect class="cls-8" x="181.83" y="133.22" width="34.33" height="9.62"/><rect class="cls-10" x="184.49" y="133.22" width="1.83" height="9.62"/><rect class="cls-10" x="188.97" y="133.22" width="1.83" height="9.62"/><rect class="cls-10" x="193.45" y="133.22" width="1.83" height="9.62"/><rect class="cls-10" x="197.93" y="133.22" width="1.83" height="9.62"/><rect class="cls-10" x="202.41" y="133.22" width="1.83" height="9.62"/><rect class="cls-10" x="206.89" y="133.22" width="1.83" height="9.62"/><rect class="cls-10" x="211.36" y="133.22" width="1.83" height="9.62"/><path class="cls-3" d="M309.68,282a17.49,17.49,0,0,1-17.5,17.5H263.89a17.49,17.49,0,0,1-17.5-17.5h0a17.5,17.5,0,0,1,17.5-17.5h28.29a17.5,17.5,0,0,1,17.5,17.5Z"/><path class="cls-9" d="M272.06,282a2.42,2.42,0,1,1-2.42-2.42A2.42,2.42,0,0,1,272.06,282Z"/><path class="cls-9" d="M280.43,282A2.42,2.42,0,1,1,278,279.6,2.41,2.41,0,0,1,280.43,282Z"/><path class="cls-9" d="M288.85,282a2.42,2.42,0,1,1-2.42-2.41A2.42,2.42,0,0,1,288.85,282Z"/><polygon class="cls-3" points="278.02 298.12 281.37 298.12 279.69 301.02 278.02 303.93 276.34 301.02 274.66 298.12 278.02 298.12"/><path class="cls-8" d="M95.25,341.12A19.42,19.42,0,1,1,75.84,321.7,19.42,19.42,0,0,1,95.25,341.12Z"/><path class="cls-10" d="M75.84,355.54a14.42,14.42,0,1,1,14.41-14.42A14.44,14.44,0,0,1,75.84,355.54Z"/><text class="cls-11" transform="translate(70.5 348.78)">$</text><rect class="cls-12" x="244.78" y="139.35" width="6.61" height="11.8" transform="translate(-30.73 215.3) rotate(-44.45)"/><path class="cls-13" d="M246.31,138.73l2.25,2.29a17.6,17.6,0,0,1-2.15,2.52,18.23,18.23,0,0,1-2.57,2.11l-2.25-2.3Z"/><path class="cls-6" d="M245.45,98.23a31,31,0,1,1-43.85-.42A31,31,0,0,1,245.45,98.23Z"/><path class="cls-3" d="M241.67,101.93a25.7,25.7,0,1,1-36.37-.35A25.63,25.63,0,0,1,241.67,101.93Z"/><path class="cls-9" d="M241.67,101.93a25.63,25.63,0,0,1,6.92,13.27,25.71,25.71,0,0,1-50.45-.48,25.7,25.7,0,0,1,43.53-12.79Z"/><path class="cls-3" d="M205.3,101.58a25.71,25.71,0,1,0,36.37.34A25.52,25.52,0,0,0,205.3,101.58Zm41.22,14a23.62,23.62,0,1,1-6.36-12.19A23.65,23.65,0,0,1,246.52,115.59Z"/><path class="cls-6" d="M276.67,167.54a4.77,4.77,0,0,1-.06,6.73h0a4.77,4.77,0,0,1-6.73-.06l-20.66-21.07a4.77,4.77,0,0,1,.06-6.73h0a4.76,4.76,0,0,1,6.73.07Z"/><g class="cls-14"><path class="cls-4" d="M237.55,108.7a1.32,1.32,0,0,1-1.87,0,17.49,17.49,0,0,0-24.71-.24,1.32,1.32,0,0,1-1.87,0,1.31,1.31,0,0,1,0-1.87,20.14,20.14,0,0,1,28.45.27A1.32,1.32,0,0,1,237.55,108.7Z"/></g><path class="cls-4" d="M223.25,101.19a1.38,1.38,0,1,1-1.95,0A1.38,1.38,0,0,1,223.25,101.19Z"/><path class="cls-4" d="M226.63,102.37a.8.8,0,0,1,0,1.12.79.79,0,0,1-1.1-1.13A.8.8,0,0,1,226.63,102.37Z"/><path class="cls-3" d="M87.73,151.09a9,9,0,0,0-2.65.4,23.8,23.8,0,1,0-46.79-6.76,12.71,12.71,0,0,0-2.41-.24,12.37,12.37,0,0,0,0,24.74H87.73a9.07,9.07,0,0,0,0-18.14Z"/><polygon class="cls-8" points="56.97 158.61 54.28 153.97 51.6 149.32 48.92 153.97 46.23 158.61 49.28 158.61 49.28 169.02 53.92 169.02 53.92 158.61 56.97 158.61"/><polygon class="cls-8" points="73.14 148.21 70.46 143.56 67.78 138.91 65.1 143.56 62.41 148.21 65.46 148.21 65.46 169.02 70.1 169.02 70.1 148.21 73.14 148.21"/><path class="cls-6" d="M197.84,309.12a3.51,3.51,0,0,1,4.95,0h0a3.49,3.49,0,0,1,0,4.95l-6.13,6.13a3.49,3.49,0,0,1-4.95,0h0a3.51,3.51,0,0,1,0-4.95Z"/><path class="cls-6" d="M240.16,309.12a3.51,3.51,0,0,0-4.95,0h0a3.51,3.51,0,0,0,0,4.95l6.13,6.13a3.49,3.49,0,0,0,4.95,0h0a3.49,3.49,0,0,0,0-4.95Z"/><circle class="cls-7" cx="218.71" cy="282.85" r="39.25"/><circle class="cls-4" cx="218.71" cy="282.85" r="34.25" transform="translate(-97.85 116.63) rotate(-24.58)"/><circle class="cls-7" cx="218.71" cy="282.85" r="29.25" transform="translate(-96.94 114.91) rotate(-24.27)"/><circle class="cls-4" cx="218.71" cy="282.85" r="24.25"/><circle class="cls-7" cx="218.71" cy="282.85" r="19.25"/><circle class="cls-4" cx="218.71" cy="282.85" r="14.25"/><circle class="cls-7" cx="218.71" cy="282.85" r="9.25"/><line class="cls-7" x1="257.58" y1="243.97" x2="218.71" y2="282.85"/><rect class="cls-6" x="210.65" y="261.91" width="54.98" height="3" transform="translate(-116.51 245.54) rotate(-45)"/><polygon class="cls-6" points="248.77 252.8 244.87 245.05 255.96 234.1 259.86 241.85 248.77 252.8"/><polygon class="cls-6" points="256.19 256.1 248.7 252.5 259.79 241.56 267.28 245.15 256.19 256.1"/><path class="cls-6" d="M220.61,282.62A1.61,1.61,0,1,1,219,281,1.61,1.61,0,0,1,220.61,282.62Z"/><rect class="cls-12" x="24.24" y="324.63" width="11.8" height="6.61" transform="translate(-223.05 117.36) rotate(-45)"/><path class="cls-13" d="M36.64,326.09l-2.27,2.28a17.6,17.6,0,0,1-2.54-2.13,18.15,18.15,0,0,1-2.13-2.54L32,321.42Z"/><path class="cls-6" d="M8.12,356.74a4.77,4.77,0,0,1-6.73,0h0a4.77,4.77,0,0,1,0-6.73l20.87-20.87a4.77,4.77,0,0,1,6.73,0h0a4.77,4.77,0,0,1,0,6.73Z"/><path class="cls-6" d="M59.08,308.24,45.89,321.43l-9.19-9.19,13.19-13.19a15.92,15.92,0,1,0,9.19,9.19Z"/><path class="cls-6" d="M117,281.6a26.86,26.86,0,0,1-3.72,13.68,27,27,0,0,1-46.7,0,27,27,0,0,1,.51-28.21,28.23,28.23,0,0,1,2.11-2.87A27.07,27.07,0,0,1,117,281.6Z"/><circle class="cls-9" cx="89.89" cy="281.6" r="23.55"/><path class="cls-6" d="M90,308.44c-7.9,0-14.1-11.86-14.1-27s6.2-27,14.1-27,14.09,11.86,14.09,27S97.85,308.44,90,308.44ZM90,258c-5,0-10.57,9.64-10.57,23.47S85,304.91,90,304.91s10.57-9.64,10.57-23.47S95,258,90,258Z"/><path class="cls-6" d="M110.61,264.2c-3.8,3.24-11.29,5.83-20.72,5.83S73,267.44,69.16,264.2a28.23,28.23,0,0,0-2.11,2.87c4.74,3.93,13.12,6.48,22.84,6.48S108,271,112.73,267.07A26.88,26.88,0,0,0,110.61,264.2Z"/><path class="cls-6" d="M89.89,288.35c-10.09,0-18.72,2.75-23.35,6.93a27.27,27.27,0,0,0,2,3c3.58-3.49,11.37-6.38,21.34-6.38s17.75,2.89,21.34,6.38a27.27,27.27,0,0,0,2-3C108.61,291.1,100,288.35,89.89,288.35Z"/><path class="cls-3" d="M161.92,48.05a8.29,8.29,0,0,1-.11,11.7,8.27,8.27,0,0,1-13.89-7.59,8.14,8.14,0,0,1,2.3-4.22A8.28,8.28,0,0,1,161.92,48.05Z"/><path class="cls-9" d="M161.92,48.05a8.22,8.22,0,0,1,2.22,4.27,8.27,8.27,0,0,1-16.22-.16,8.14,8.14,0,0,1,2.3-4.22A8.28,8.28,0,0,1,161.92,48.05Z"/><g class="cls-14"><path class="cls-4" d="M160.59,50.23a.43.43,0,0,1-.6,0,5.63,5.63,0,0,0-8-.07.43.43,0,0,1-.6,0,.42.42,0,0,1,0-.6,6.47,6.47,0,0,1,9.15.09A.43.43,0,0,1,160.59,50.23Z"/></g><path class="cls-4" d="M156,47.81a.45.45,0,1,1-.63,0A.44.44,0,0,1,156,47.81Z"/><path class="cls-4" d="M157.08,48.19a.26.26,0,0,1-.37.36.26.26,0,0,1,0-.36A.25.25,0,0,1,157.08,48.19Z"/><path class="cls-3" d="M99.47,71.66a.77.77,0,0,1-.78.89H90.76a.77.77,0,0,1-.78-.89l1.56-11.84a1.05,1.05,0,0,1,1-.89h4.33a1.05,1.05,0,0,1,1,.89Z"/><path class="cls-3" d="M85.85,73.33a.77.77,0,0,1,.08,1.19l-5.61,5.6a.77.77,0,0,1-1.18-.07l-7.26-9.48A1,1,0,0,1,72,69.23L75,66.16a1.06,1.06,0,0,1,1.35-.09Z"/><path class="cls-3" d="M77.41,84.15a.76.76,0,0,1,.89.78v7.93a.77.77,0,0,1-.89.78L65.57,92.08a1.06,1.06,0,0,1-.89-1V86.72a1,1,0,0,1,.89-1Z"/><path class="cls-3" d="M79.08,97.76a.78.78,0,0,1,1.19-.07l5.6,5.6a.78.78,0,0,1-.07,1.19l-9.48,7.26a1,1,0,0,1-1.34-.09l-3.07-3.07a1,1,0,0,1-.09-1.34Z"/><path class="cls-3" d="M89.9,106.21a.76.76,0,0,1,.78-.89h7.93a.77.77,0,0,1,.78.89l-1.56,11.84a1.06,1.06,0,0,1-1,.88H92.47a1,1,0,0,1-1-.88Z"/><path class="cls-3" d="M103.51,104.53a.77.77,0,0,1-.07-1.18l5.6-5.61a.78.78,0,0,1,1.19.08l7.26,9.48a1,1,0,0,1-.09,1.34l-3.06,3.07a1.06,1.06,0,0,1-1.35.09Z"/><path class="cls-3" d="M112,93.72a.77.77,0,0,1-.89-.78V85a.77.77,0,0,1,.89-.78l11.84,1.56a1.05,1.05,0,0,1,.89,1v4.33a1.06,1.06,0,0,1-.89,1Z"/><path class="cls-3" d="M110.28,80.1a.76.76,0,0,1-1.18.08l-5.61-5.61a.77.77,0,0,1,.08-1.18l9.48-7.26a1,1,0,0,1,1.34.08l3.07,3.07a1.06,1.06,0,0,1,.09,1.35Z"/><path class="cls-9" d="M94.73,63.6a25.33,25.33,0,1,0,25.33,25.33A25.34,25.34,0,0,0,94.73,63.6Zm0,36.58A11.25,11.25,0,1,1,106,88.93,11.26,11.26,0,0,1,94.73,100.18Z"/><path class="cls-3" d="M94.73,72.68A16.25,16.25,0,1,0,111,88.93,16.27,16.27,0,0,0,94.73,72.68Zm0,27.5A11.25,11.25,0,1,1,106,88.93,11.26,11.26,0,0,1,94.73,100.18Z"/><g class="cls-14"><path class="cls-4" d="M111.06,74.38a1.5,1.5,0,0,1-2.12,0A19.75,19.75,0,0,0,81,74.09,1.5,1.5,0,1,1,79,72a22.75,22.75,0,0,1,32.13.31A1.5,1.5,0,0,1,111.06,74.38Z"/></g><path class="cls-4" d="M94.91,65.89a1.56,1.56,0,1,1-2.21,0A1.57,1.57,0,0,1,94.91,65.89Z"/><path class="cls-4" d="M98.72,67.23a.89.89,0,0,1,0,1.26.9.9,0,0,1-1.26,0,.89.89,0,0,1,1.27-1.25Z"/><path class="cls-3" d="M248.86,336.05a.64.64,0,0,1-.65.74H241.6a.63.63,0,0,1-.65-.74l1.3-9.87a.87.87,0,0,1,.84-.74h3.62a.89.89,0,0,1,.85.74Z"/><path class="cls-3" d="M237.5,337.45a.63.63,0,0,1,.07,1l-4.68,4.68a.63.63,0,0,1-1-.07l-6.06-7.9a.88.88,0,0,1,.07-1.12l2.56-2.56a.89.89,0,0,1,1.13-.07Z"/><path class="cls-3" d="M230.47,346.46a.64.64,0,0,1,.74.65v6.62a.64.64,0,0,1-.74.65l-9.87-1.3a.9.9,0,0,1-.75-.85v-3.62a.9.9,0,0,1,.74-.85Z"/><path class="cls-3" d="M231.86,357.82a.64.64,0,0,1,1-.07l4.67,4.68a.64.64,0,0,1-.06,1l-7.9,6.06a.88.88,0,0,1-1.12-.07l-2.56-2.56a.88.88,0,0,1-.08-1.12Z"/><path class="cls-3" d="M240.88,364.86a.64.64,0,0,1,.65-.74h6.61a.64.64,0,0,1,.65.75l-1.3,9.87a.88.88,0,0,1-.85.74H243a.88.88,0,0,1-.85-.74Z"/><path class="cls-3" d="M252.23,363.46a.64.64,0,0,1-.07-1l4.68-4.68a.65.65,0,0,1,1,.06l6.06,7.9a.89.89,0,0,1-.08,1.13l-2.56,2.56a.88.88,0,0,1-1.12.07Z"/><path class="cls-3" d="M259.27,354.45a.64.64,0,0,1-.74-.66v-6.61a.64.64,0,0,1,.74-.65l9.87,1.3a.89.89,0,0,1,.74.85v3.62a.87.87,0,0,1-.74.84Z"/><path class="cls-3" d="M257.88,343.09a.64.64,0,0,1-1,.07l-4.67-4.68a.63.63,0,0,1,.06-1l7.9-6.07a.88.88,0,0,1,1.12.08l2.56,2.56a.88.88,0,0,1,.07,1.12Z"/><path class="cls-9" d="M244.91,329.33A21.13,21.13,0,1,0,266,350.45,21.13,21.13,0,0,0,244.91,329.33Zm0,30.5a9.38,9.38,0,1,1,9.38-9.38A9.39,9.39,0,0,1,244.91,359.83Z"/><path class="cls-3" d="M244.91,336.9a13.55,13.55,0,1,0,13.54,13.55A13.57,13.57,0,0,0,244.91,336.9Zm0,22.93a9.38,9.38,0,1,1,9.38-9.38A9.39,9.39,0,0,1,244.91,359.83Z"/><g class="cls-14"><path class="cls-4" d="M259.19,338.73a1.29,1.29,0,0,1-1.84,0,17.19,17.19,0,0,0-24.28-.23,1.3,1.3,0,0,1-1.83-1.86,19.79,19.79,0,0,1,28,.27A1.3,1.3,0,0,1,259.19,338.73Z"/></g><path class="cls-4" d="M245.14,331.35a1.36,1.36,0,1,1-1.92,0A1.36,1.36,0,0,1,245.14,331.35Z"/><path class="cls-4" d="M248.46,332.51a.78.78,0,0,1-1.11,1.09.78.78,0,1,1,1.11-1.09Z"/><path class="cls-3" d="M160.8,252.13a.47.47,0,0,1-.48.54h-4.83a.47.47,0,0,1-.48-.54l1-7.21a.65.65,0,0,1,.62-.55h2.65a.65.65,0,0,1,.62.55Z"/><path class="cls-3" d="M152.5,253.15a.46.46,0,0,1,0,.72l-3.41,3.42a.47.47,0,0,1-.72-.05L144,251.47a.64.64,0,0,1,.05-.82l1.87-1.87a.64.64,0,0,1,.82-.06Z"/><path class="cls-3" d="M147.35,259.74a.47.47,0,0,1,.54.48v4.83a.47.47,0,0,1-.54.48l-7.21-.95a.65.65,0,0,1-.55-.62v-2.65a.65.65,0,0,1,.54-.62Z"/><path class="cls-3" d="M148.37,268a.46.46,0,0,1,.72,0l3.42,3.41a.47.47,0,0,1,0,.72l-5.77,4.43a.64.64,0,0,1-.82-.05L144,274.64a.64.64,0,0,1-.06-.82Z"/><path class="cls-3" d="M155,273.19a.47.47,0,0,1,.48-.54h4.83a.47.47,0,0,1,.48.54l-.95,7.22a.65.65,0,0,1-.62.54h-2.65a.65.65,0,0,1-.62-.54Z"/><path class="cls-3" d="M163.26,272.17a.47.47,0,0,1,0-.72l3.43-3.42a.46.46,0,0,1,.71.05l4.43,5.77a.64.64,0,0,1-.05.82l-1.87,1.88a.65.65,0,0,1-.82.05Z"/><path class="cls-3" d="M168.41,265.58a.47.47,0,0,1-.54-.48v-4.83a.47.47,0,0,1,.54-.48l7.22.95a.65.65,0,0,1,.54.62V264a.65.65,0,0,1-.54.62Z"/><path class="cls-3" d="M167.39,257.28a.47.47,0,0,1-.72.05l-3.42-3.42a.47.47,0,0,1,.05-.72l5.77-4.43a.64.64,0,0,1,.82.05l1.88,1.87a.65.65,0,0,1,0,.82Z"/><path class="cls-9" d="M157.91,247.22a15.44,15.44,0,1,0,15.44,15.44A15.45,15.45,0,0,0,157.91,247.22Zm0,22.3a6.86,6.86,0,1,1,6.86-6.86A6.86,6.86,0,0,1,157.91,269.52Z"/><path class="cls-3" d="M157.91,252.75a9.91,9.91,0,1,0,9.9,9.91A9.93,9.93,0,0,0,157.91,252.75Zm0,16.77a6.86,6.86,0,1,1,6.86-6.86A6.86,6.86,0,0,1,157.91,269.52Z"/><g class="cls-14"><path class="cls-4" d="M167.39,254.22a.9.9,0,0,1-1.27,0,11.82,11.82,0,0,0-16.7-.16.89.89,0,0,1-1.26,0,.88.88,0,0,1,0-1.26,13.62,13.62,0,0,1,19.23.18A.91.91,0,0,1,167.39,254.22Z"/></g><path class="cls-4" d="M157.72,249.14a.93.93,0,1,1-1.32,0A.93.93,0,0,1,157.72,249.14Z"/><path class="cls-4" d="M160,249.94a.52.52,0,0,1,0,.75.53.53,0,0,1-.75,0,.53.53,0,1,1,.76-.75Z"/><path class="cls-3" d="M125.29,120.72a.49.49,0,0,1-.5.56h-5a.49.49,0,0,1-.5-.56l1-7.5a.67.67,0,0,1,.65-.56h2.74a.67.67,0,0,1,.65.56Z"/><path class="cls-3" d="M116.66,121.78a.49.49,0,0,1,0,.75l-3.55,3.55a.49.49,0,0,1-.75,0l-4.6-6a.65.65,0,0,1,.06-.85l1.94-1.94a.67.67,0,0,1,.85-.06Z"/><path class="cls-3" d="M111.31,128.63a.49.49,0,0,1,.57.49v5a.49.49,0,0,1-.57.49l-7.49-1a.67.67,0,0,1-.57-.64v-2.75a.67.67,0,0,1,.57-.64Z"/><path class="cls-3" d="M112.38,137.25a.48.48,0,0,1,.74-.05l3.56,3.56a.48.48,0,0,1-.05.74l-6,4.61a.68.68,0,0,1-.86-.06l-1.94-1.94a.68.68,0,0,1-.06-.86Z"/><path class="cls-3" d="M119.22,142.6a.48.48,0,0,1,.5-.56h5a.48.48,0,0,1,.49.56l-1,7.5a.67.67,0,0,1-.65.56h-2.75a.66.66,0,0,1-.64-.56Z"/><path class="cls-3" d="M127.85,141.54a.49.49,0,0,1,0-.75l3.55-3.55a.49.49,0,0,1,.75,0l4.6,6a.65.65,0,0,1-.06.85l-1.94,2a.66.66,0,0,1-.85,0Z"/><path class="cls-3" d="M133.19,134.69a.49.49,0,0,1-.56-.49v-5a.49.49,0,0,1,.56-.5l7.5,1a.67.67,0,0,1,.57.64v2.75a.67.67,0,0,1-.57.64Z"/><path class="cls-3" d="M132.14,126.07a.49.49,0,0,1-.75.05l-3.56-3.55a.49.49,0,0,1,0-.75l6-4.6a.67.67,0,0,1,.85,0l1.94,1.94a.68.68,0,0,1,.06.86Z"/><path class="cls-9" d="M122.28,115.62a16,16,0,1,0,16.05,16A16,16,0,0,0,122.28,115.62Zm0,23.17a7.13,7.13,0,1,1,7.13-7.13A7.13,7.13,0,0,1,122.28,138.79Z"/><path class="cls-3" d="M122.28,121.37a10.29,10.29,0,1,0,10.3,10.29A10.31,10.31,0,0,0,122.28,121.37Zm0,17.42a7.13,7.13,0,1,1,7.13-7.13A7.13,7.13,0,0,1,122.28,138.79Z"/><g class="cls-14"><path class="cls-4" d="M132.05,122.48a.89.89,0,0,1-1.26,0,11.82,11.82,0,0,0-16.7-.16.9.9,0,0,1-1.27,0,.89.89,0,0,1,0-1.26,13.62,13.62,0,0,1,19.23.18A.9.9,0,0,1,132.05,122.48Z"/></g><path class="cls-4" d="M122.39,117.4a.94.94,0,0,1,0,1.33.94.94,0,1,1,0-1.33Z"/><path class="cls-4" d="M124.67,118.2a.53.53,0,0,1-.76.75.54.54,0,0,1,0-.76A.55.55,0,0,1,124.67,118.2Z"/><path class="cls-7" d="M140.39,34.63V73.47a15.63,15.63,0,0,0,31.25,0V34.63Z"/><rect class="cls-7" x="141.91" y="71.43" width="26.5" height="22.17"/><path class="cls-6" d="M156,65.43A11.59,11.59,0,1,1,167.6,53.84,11.6,11.6,0,0,1,156,65.43Z"/><polygon class="cls-6" points="147.74 93.59 147.74 71.42 140.39 71.42 129.91 102.92 147.74 93.59"/><polygon class="cls-6" points="164.32 93.59 164.32 71.42 171.68 71.42 182.16 102.92 164.32 93.59"/><polygon class="cls-6" points="156.01 0 156.01 0 140.39 34.66 171.64 34.66 156.01 0"/><rect class="cls-2" x="147.74" y="93.59" width="16.4" height="71.29"/><path class="cls-6" d="M79.73,222.1a30.71,30.71,0,0,0,15.57,4.39c8.88,0,14.08-4.69,14.08-11.48,0-6.28-3.6-9.88-12.68-13.37-11-3.89-17.77-9.58-17.77-19.07,0-10.48,8.68-18.27,21.76-18.27,6.89,0,11.88,1.6,14.87,3.3l-2.39,7.09a26.78,26.78,0,0,0-12.78-3.2c-9.18,0-12.68,5.49-12.68,10.08,0,6.29,4.1,9.39,13.38,13,11.38,4.39,17.17,9.88,17.17,19.77,0,10.38-7.69,19.36-23.56,19.36-6.49,0-13.57-1.89-17.17-4.29Z"/><path class="cls-6" d="M165,201.14H138.82V225.4H168v7.28H130.14V165.4h36.33v7.29H138.82V194H165Z"/><path class="cls-6" d="M236.75,198.34c0,23.16-14.08,35.44-31.25,35.44-17.77,0-30.25-13.77-30.25-34.14,0-21.36,13.28-35.34,31.25-35.34C224.87,164.3,236.75,178.38,236.75,198.34Zm-52.21,1.1c0,14.38,7.78,27.25,21.46,27.25s21.56-12.67,21.56-27.95c0-13.37-7-27.35-21.46-27.35S184.54,184.67,184.54,199.44Z"/></g></g></g></svg>