<svg xmlns="http://www.w3.org/2000/svg" xmlns:xlink="http://www.w3.org/1999/xlink" viewBox="0 0 424.8 361.77"><defs><style>.cls-1{fill:#cee4ea;}.cls-2{fill:#65c7ea;}.cls-3{fill:#e6f0f4;}.cls-4{fill:#f4f8f9;}.cls-5{fill:#3c5670;}.cls-6{fill:#e9f4f6;}.cls-7{fill:#dfeef2;}.cls-8{fill:#253a4c;}.cls-9{fill:#a8ff55;}.cls-10{fill:#4f7e9e;}.cls-11{fill:#6dd7ff;}.cls-12{fill:#08668d;}.cls-13{fill:#5dacf7;}.cls-14{fill:#5f8baf;}.cls-15{fill:#d7e1ff;}.cls-16{fill:#fff;}.cls-17{fill:#7285b2;}.cls-18{fill:#74d350;}.cls-19{fill:#ffd86c;}.cls-20{fill:#ff4d6a;}.cls-21{fill:#ef6970;}.cls-22{fill:#f5fdff;}.cls-23{fill:none;stroke:#5c6492;stroke-linecap:round;stroke-miterlimit:10;stroke-width:3px;}.cls-24{fill:#88c9ff;}.cls-25{fill:#c2dbef;}.cls-26{fill:#ffd7a4;}.cls-27{fill:#28debf;}.cls-28{fill:#fed94f;}.cls-29{fill:#0eaf90;}.cls-30{fill:#16c4a3;}.cls-31{fill:#f0f9fc;}.cls-32{clip-path:url(#clip-path);}.cls-33{fill:#57373a;}.cls-34{fill:#7f5b5f;}.cls-35{fill:#fff5e6;}.cls-36{fill:#f2e2cc;}.cls-37{fill:#191f34;}.cls-38{fill:#64c8ec;}.cls-39{fill:#3497d0;}.cls-40{fill:#0792b2;}.cls-41{fill:#0f3142;}.cls-41,.cls-45,.cls-54{opacity:0.3;}.cls-42{fill:#ee7060;}.cls-43{fill:#dd4b40;}.cls-44{fill:#f0b89f;}.cls-45{fill:#94dadd;}.cls-46{fill:#db5663;}.cls-47{fill:#f4d4b8;}.cls-48{fill:#0880a5;}.cls-49{fill:#0e547a;}.cls-50,.cls-54{fill:#134454;}.cls-51{fill:#e6354b;}.cls-52{fill:#f7818c;}.cls-53{fill:#0a6776;}.cls-55{fill:#fdf9d4;}.cls-56{fill:#f2f4fc;}.cls-57{fill:#dfe3f4;}.cls-58{fill:#be735a;}.cls-59{fill:#059dbf;}.cls-60{fill:#0086aa;}</style><clipPath id="clip-path"><path class="cls-1" d="M368.37,116.26c9.74,0,18.81-2.14,25.55-6,5.74-3.32,9-7.59,9-11.71s-3.3-8.4-9-11.72c-6.74-3.89-15.81-6-25.55-6s-18.8,2.14-25.54,6c-5.75,3.32-9,7.59-9,11.72s3.29,8.39,9,11.71C349.57,114.12,358.64,116.26,368.37,116.26Z"/></clipPath></defs><title>Asset 1</title><g id="Layer_2" data-name="Layer 2"><g id="Objects"><polygon class="cls-2" points="50.81 248.55 188.91 328.29 213.29 314.3 245.79 332.98 359.52 267.31 327.03 248.55 363.58 227.44 225.47 147.71 50.81 248.55"/><path class="cls-3" d="M71.12,243.88h0a11.48,11.48,0,0,0,5.74,10L184.5,316A11.48,11.48,0,0,0,196,316l150.9-87.09a11.48,11.48,0,0,0,5.74-9.94v-.88Z"/><path class="cls-4" d="M190.24,312.66l160.88-92.88c2-1.16,2-3,0-4.19l-115.5-66.68-164.5,95Z"/><path class="cls-5" d="M90.22,245.51l-4-2.34a.74.74,0,0,1,0-1.4l146-84.32a2.65,2.65,0,0,1,2.42,0l4,2.34a.74.74,0,0,1,0,1.4l-146,84.32A2.65,2.65,0,0,1,90.22,245.51Z"/><polygon class="cls-1" points="286.67 243.89 285.9 244.34 235.63 273.36 208.04 257.44 207.25 256.99 258.31 227.51 286.67 243.89"/><polygon class="cls-6" points="285.9 244.34 235.63 273.36 208.04 257.44 258.32 228.42 285.9 244.34"/><path class="cls-1" d="M296.42,195.87h0L152.11,279.19a2.67,2.67,0,0,1-2.43,0L97.55,249.77l-.06,0c-.67-.37-.67-1,0-1.38l144.93-83.72a2.63,2.63,0,0,1,2.41,0l51.59,29.82A.75.75,0,0,1,296.42,195.87Z"/><path class="cls-7" d="M296.38,195.88,152.11,279.19a2.67,2.67,0,0,1-2.43,0L97.55,249.77l144.87-83.69a2.63,2.63,0,0,1,2.41,0Z"/><path class="cls-8" d="M142.67,262.39a.17.17,0,0,0,0-.14.2.2,0,0,0,0-.15.19.19,0,0,0,0-.15.19.19,0,0,0,0-.15.17.17,0,0,0,0-.14.2.2,0,0,0,0-.15.19.19,0,0,0,0-.15.17.17,0,0,0,0-.14.2.2,0,0,0,0-.15.19.19,0,0,0,0-.15.19.19,0,0,0,0-.2l1.24.71a.81.81,0,0,0,.74,0l4.45-2.57a1.81,1.81,0,0,0,.11-.7.17.17,0,0,0,0-.14.2.2,0,0,0,0-.15.19.19,0,0,0,0-.15.19.19,0,0,0,0-.15.17.17,0,0,0,0-.14.2.2,0,0,0,0-.15.19.19,0,0,0,0-.15.19.19,0,0,0,0-.2l1.24.71a.81.81,0,0,0,.74,0l4.45-2.57a1.81,1.81,0,0,0,.11-.7.17.17,0,0,0,0-.14.2.2,0,0,0,0-.15.2.2,0,0,0,0-.15.19.19,0,0,0,0-.15.17.17,0,0,0,0-.14.2.2,0,0,0,0-.15.2.2,0,0,0,0-.15.19.19,0,0,0,0-.2l1.24.71a.81.81,0,0,0,.74,0l4.45-2.57a.19.19,0,0,0,.11-.25.19.19,0,0,0,0-.15.19.19,0,0,0,0-.15.17.17,0,0,0,0-.14.19.19,0,0,0,0-.15.19.19,0,0,0,0-.15.19.19,0,0,0,0-.15.17.17,0,0,0,0-.14.19.19,0,0,0,0-.15.19.19,0,0,0,0-.15.19.19,0,0,0,0-.15.19.19,0,0,0,0-.2l1.24.71a.81.81,0,0,0,.74,0l4.45-2.57a.19.19,0,0,0,.11-.25.19.19,0,0,0,0-.15.2.2,0,0,0,0-.15.17.17,0,0,0,0-.14.2.2,0,0,0,0-.15.2.2,0,0,0,0-.15.19.19,0,0,0,0-.15.17.17,0,0,0,0-.14.19.19,0,0,0,0-.15.2.2,0,0,0,0-.15.2.2,0,0,0,0-.15.19.19,0,0,0,0-.2l1.24.72a.84.84,0,0,0,.74,0l4.46-2.58a.19.19,0,0,0,.1-.25.19.19,0,0,0,0-.15.19.19,0,0,0,0-.15.17.17,0,0,0,0-.14.19.19,0,0,0,0-.15.19.19,0,0,0,0-.15.17.17,0,0,0,0-.14.19.19,0,0,0,0-.15.19.19,0,0,0,0-.15.19.19,0,0,0,0-.15.17.17,0,0,0,0-.14.2.2,0,0,0,0-.21l1.24.72a.84.84,0,0,0,.74,0l4.46-2.58a.19.19,0,0,0,.1-.25.19.19,0,0,0,0-.15.14.14,0,0,0,0-.14.16.16,0,0,0,0-.15.16.16,0,0,0,0-.15.16.16,0,0,0,0-.15.14.14,0,0,0,0-.14.16.16,0,0,0,0-.15.16.16,0,0,0,0-.15.16.16,0,0,0,0-.15.14.14,0,0,0,0-.14.2.2,0,0,0,0-.21l1.23.72a.84.84,0,0,0,.74,0l4.46-2.57a.2.2,0,0,0,.1-.26.16.16,0,0,0,0-.15.14.14,0,0,0,0-.14.16.16,0,0,0,0-.15.16.16,0,0,0,0-.15.16.16,0,0,0,0-.15.14.14,0,0,0,0-.14.16.16,0,0,0,0-.15.16.16,0,0,0,0-.15s0-.09,0-.15a.14.14,0,0,0,0-.14.2.2,0,0,0,0-.21l1.23.72a.84.84,0,0,0,.74,0l4.46-2.57a.2.2,0,0,0,.1-.26.14.14,0,0,0,0-.14.16.16,0,0,0,0-.15.16.16,0,0,0,0-.15.16.16,0,0,0,0-.15.14.14,0,0,0,0-.14.16.16,0,0,0,0-.15.16.16,0,0,0,0-.15.16.16,0,0,0,0-.15.14.14,0,0,0,0-.14.16.16,0,0,0,0-.15.18.18,0,0,0,0-.21l1.24.72a.79.79,0,0,0,.73,0l4.46-2.57a.2.2,0,0,0,.1-.26.14.14,0,0,0,0-.14.16.16,0,0,0,0-.15.16.16,0,0,0,0-.15.16.16,0,0,0,0-.15.14.14,0,0,0,0-.14.16.16,0,0,0,0-.15.16.16,0,0,0,0-.15.16.16,0,0,0,0-.15.14.14,0,0,0,0-.14.16.16,0,0,0,0-.15.17.17,0,0,0,0-.2l1.24.71a.79.79,0,0,0,.73,0l4.46-2.57a.2.2,0,0,0,.1-.26.14.14,0,0,0,0-.14.16.16,0,0,0,0-.15.16.16,0,0,0,0-.15.14.14,0,0,0,0-.14.16.16,0,0,0,0-.15.16.16,0,0,0,0-.15.16.16,0,0,0,0-.15.14.14,0,0,0,0-.14.16.16,0,0,0,0-.15.16.16,0,0,0,0-.15.17.17,0,0,0,0-.2l1.24.71a.81.81,0,0,0,.74,0l4.45-2.57a.19.19,0,0,0,.1-.25.16.16,0,0,0,0-.15.16.16,0,0,0,0-.15.16.16,0,0,0,0-.15.14.14,0,0,0,0-.14.16.16,0,0,0,0-.15.16.16,0,0,0,0-.15.16.16,0,0,0,0-.15.14.14,0,0,0,0-.14.16.16,0,0,0,0-.15.16.16,0,0,0,0-.15.17.17,0,0,0,0-.2l1.24.71a.81.81,0,0,0,.74,0l9.93-5.73a.2.2,0,0,0,.11-.26.19.19,0,0,0,0-.15.17.17,0,0,0,0-.14.19.19,0,0,0,0-.15.19.19,0,0,0,0-.15.19.19,0,0,0,0-.15.17.17,0,0,0,0-.14.19.19,0,0,0,0-.15.19.19,0,0,0,0-.15.19.19,0,0,0,0-.15.17.17,0,0,0,0-.14c.05-.11,0-.23-.16-.32l-13.45-7.77a.81.81,0,0,0-.74,0l-5.14,3a1.06,1.06,0,0,0-.11.55.17.17,0,0,0,0,.14.2.2,0,0,0,0,.15.2.2,0,0,0,0,.15.2.2,0,0,0,0,.15.17.17,0,0,0,0,.14.2.2,0,0,0,0,.15.2.2,0,0,0,0,.15.2.2,0,0,0,0,.15.19.19,0,0,0,0,.2l-1.24-.72a.84.84,0,0,0-.74,0l-4.45,2.58a1.06,1.06,0,0,0-.11.55.17.17,0,0,0,0,.14.19.19,0,0,0,0,.15.19.19,0,0,0,0,.15.19.19,0,0,0,0,.15.17.17,0,0,0,0,.14.19.19,0,0,0,0,.15.19.19,0,0,0,0,.15.17.17,0,0,0,0,.14.2.2,0,0,0,0,.21l-1.24-.72a.84.84,0,0,0-.74,0L193.77,215a.52.52,0,0,0-.11.4.17.17,0,0,0,0,.14.2.2,0,0,0,0,.15.2.2,0,0,0,0,.15.2.2,0,0,0,0,.15.17.17,0,0,0,0,.14.2.2,0,0,0,0,.15.2.2,0,0,0,0,.15.2.2,0,0,0,0,.15.17.17,0,0,0,0,.14.2.2,0,0,0,0,.21l-1.24-.72a.84.84,0,0,0-.74,0l-4.45,2.57a.21.21,0,0,0-.11.26.2.2,0,0,0,0,.15.17.17,0,0,0,0,.14.2.2,0,0,0,0,.15.2.2,0,0,0,0,.15.19.19,0,0,0,0,.15.17.17,0,0,0,0,.14.2.2,0,0,0,0,.15.2.2,0,0,0,0,.15.19.19,0,0,0,0,.15.17.17,0,0,0,0,.14.2.2,0,0,0,0,.21l-1.24-.72a.84.84,0,0,0-.74,0l-4.45,2.57a.2.2,0,0,0-.11.26.17.17,0,0,0,0,.14.2.2,0,0,0,0,.15.19.19,0,0,0,0,.15.19.19,0,0,0,0,.15.17.17,0,0,0,0,.14.2.2,0,0,0,0,.15.2.2,0,0,0,0,.15.19.19,0,0,0,0,.15.17.17,0,0,0,0,.14.19.19,0,0,0,0,.15.2.2,0,0,0,0,.21l-1.24-.72a.81.81,0,0,0-.74,0l-4.45,2.57a.2.2,0,0,0-.11.26.17.17,0,0,0,0,.14.19.19,0,0,0,0,.15.2.2,0,0,0,0,.15.19.19,0,0,0,0,.15.17.17,0,0,0,0,.14.2.2,0,0,0,0,.15.2.2,0,0,0,0,.15.19.19,0,0,0,0,.15.17.17,0,0,0,0,.14.2.2,0,0,0,0,.15.18.18,0,0,0,0,.2l-1.24-.71a.81.81,0,0,0-.74,0l-4.46,2.57a.2.2,0,0,0-.1.26.17.17,0,0,0,0,.14.19.19,0,0,0,0,.15.19.19,0,0,0,0,.15.17.17,0,0,0,0,.14.19.19,0,0,0,0,.15.19.19,0,0,0,0,.15.19.19,0,0,0,0,.15.17.17,0,0,0,0,.14.19.19,0,0,0,0,.15.19.19,0,0,0,0,.15.19.19,0,0,0,0,.2l-1.24-.71a.81.81,0,0,0-.74,0l-4.46,2.57a.19.19,0,0,0-.1.25.19.19,0,0,0,0,.15.19.19,0,0,0,0,.15.19.19,0,0,0,0,.15.17.17,0,0,0,0,.14.2.2,0,0,0,0,.15.19.19,0,0,0,0,.15.19.19,0,0,0,0,.15.17.17,0,0,0,0,.14.19.19,0,0,0,0,.15.2.2,0,0,0,0,.15.21.21,0,0,0,0,.2L159.9,235a.81.81,0,0,0-.74,0l-4.46,2.57a.19.19,0,0,0-.1.25.16.16,0,0,0,0,.15.16.16,0,0,0,0,.15.16.16,0,0,0,0,.15.14.14,0,0,0,0,.14.16.16,0,0,0,0,.15.16.16,0,0,0,0,.15.16.16,0,0,0,0,.15.14.14,0,0,0,0,.14.16.16,0,0,0,0,.15.16.16,0,0,0,0,.15.19.19,0,0,0,0,.2l-1.23-.71a.81.81,0,0,0-.74,0l-4.46,2.57a.19.19,0,0,0-.1.25.16.16,0,0,0,0,.15.16.16,0,0,0,0,.15.14.14,0,0,0,0,.14.16.16,0,0,0,0,.15.16.16,0,0,0,0,.15.16.16,0,0,0,0,.15.14.14,0,0,0,0,.14.16.16,0,0,0,0,.15.16.16,0,0,0,0,.15.16.16,0,0,0,0,.15.17.17,0,0,0,0,.2l-1.24-.71a.82.82,0,0,0-.73,0l-4.46,2.58a.19.19,0,0,0-.1.25.16.16,0,0,0,0,.15.16.16,0,0,0,0,.15.14.14,0,0,0,0,.14.16.16,0,0,0,0,.15.16.16,0,0,0,0,.15.16.16,0,0,0,0,.15.14.14,0,0,0,0,.14.16.16,0,0,0,0,.15.16.16,0,0,0,0,.15.16.16,0,0,0,0,.15.17.17,0,0,0,0,.2l-1.24-.72a.82.82,0,0,0-.73,0l-4.46,2.58a.19.19,0,0,0-.1.25.16.16,0,0,0,0,.15s0,.09,0,.15a.14.14,0,0,0,0,.14.16.16,0,0,0,0,.15.16.16,0,0,0,0,.15.14.14,0,0,0,0,.14.16.16,0,0,0,0,.15.16.16,0,0,0,0,.15.16.16,0,0,0,0,.15.14.14,0,0,0,0,.14.18.18,0,0,0,0,.21l-1.24-.72a.84.84,0,0,0-.74,0l-4.45,2.57a.2.2,0,0,0-.1.26.16.16,0,0,0,0,.15.14.14,0,0,0,0,.14.16.16,0,0,0,0,.15.16.16,0,0,0,0,.15.16.16,0,0,0,0,.15.14.14,0,0,0,0,.14.16.16,0,0,0,0,.15.16.16,0,0,0,0,.15.16.16,0,0,0,0,.15.14.14,0,0,0,0,.14.18.18,0,0,0,0,.21l-1.24-.72a.84.84,0,0,0-.74,0l-6.85,4a.19.19,0,0,0-.1.25.16.16,0,0,0,0,.15.16.16,0,0,0,0,.15s0,.09,0,.15a.14.14,0,0,0,0,.14.16.16,0,0,0,0,.15.16.16,0,0,0,0,.15s0,.09,0,.15a.14.14,0,0,0,0,.14.16.16,0,0,0,0,.15.16.16,0,0,0,0,.15c-.06.1,0,.23.15.32l5.54,3.2a.84.84,0,0,0,.74,0l6.85-4a.2.2,0,0,0,.11-.26.17.17,0,0,0,0-.14.2.2,0,0,0,0-.15.19.19,0,0,0,0-.15.19.19,0,0,0,0-.15.17.17,0,0,0,0-.14.19.19,0,0,0,0-.15.2.2,0,0,0,0-.15.17.17,0,0,0,0-.14.19.19,0,0,0,0-.15.2.2,0,0,0,0-.15.19.19,0,0,0,0-.2l1.24.71a.81.81,0,0,0,.74,0l4.46-2.57a.19.19,0,0,0,.1-.25.2.2,0,0,0,0-.15.19.19,0,0,0,0-.15.2.2,0,0,0,0-.15.17.17,0,0,0,0-.14.19.19,0,0,0,0-.15.19.19,0,0,0,0-.15.2.2,0,0,0,0-.15.17.17,0,0,0,0-.14.19.19,0,0,0,0-.15.19.19,0,0,0,0-.15.19.19,0,0,0,0-.2l1.24.71a.81.81,0,0,0,.74,0l4.46-2.57a.19.19,0,0,0,.1-.25.16.16,0,0,0,0-.15.16.16,0,0,0,0-.15s0-.09,0-.15a.14.14,0,0,0,0-.14.16.16,0,0,0,0-.15.16.16,0,0,0,0-.15s0-.09,0-.15a.14.14,0,0,0,0-.14.16.16,0,0,0,0-.15.16.16,0,0,0,0-.15.19.19,0,0,0,0-.2l1.23.71a.81.81,0,0,0,.74,0l4.46-2.57a.19.19,0,0,0,.1-.25.16.16,0,0,0,0-.15.16.16,0,0,0,0-.15.14.14,0,0,0,0-.14.16.16,0,0,0,0-.15.16.16,0,0,0,0-.15.16.16,0,0,0,0-.15.14.14,0,0,0,0-.14.16.16,0,0,0,0-.15.16.16,0,0,0,0-.15.16.16,0,0,0,0-.15.19.19,0,0,0,0-.2l1.23.71a.84.84,0,0,0,.74,0L159,244a.19.19,0,0,0,.1-.25.16.16,0,0,0,0-.15.16.16,0,0,0,0-.15.14.14,0,0,0,0-.14.16.16,0,0,0,0-.15.16.16,0,0,0,0-.15.16.16,0,0,0,0-.15.14.14,0,0,0,0-.14.16.16,0,0,0,0-.15.16.16,0,0,0,0-.15.16.16,0,0,0,0-.15.17.17,0,0,0,0-.2l1.24.72a.82.82,0,0,0,.73,0l4.46-2.58a.19.19,0,0,0,.1-.25.16.16,0,0,0,0-.15s0-.09,0-.15a.14.14,0,0,0,0-.14.16.16,0,0,0,0-.15.16.16,0,0,0,0-.15.14.14,0,0,0,0-.14.16.16,0,0,0,0-.15.16.16,0,0,0,0-.15.16.16,0,0,0,0-.15.14.14,0,0,0,0-.14.18.18,0,0,0,0-.21l1.24.72a.82.82,0,0,0,.73,0l4.46-2.57a.2.2,0,0,0,.1-.26.16.16,0,0,0,0-.15.14.14,0,0,0,0-.14.16.16,0,0,0,0-.15.16.16,0,0,0,0-.15.16.16,0,0,0,0-.15.14.14,0,0,0,0-.14.16.16,0,0,0,0-.15.16.16,0,0,0,0-.15.16.16,0,0,0,0-.15.14.14,0,0,0,0-.14.18.18,0,0,0,0-.21l1.24.72a.84.84,0,0,0,.74,0l4.45-2.57a.2.2,0,0,0,.1-.26s0-.09,0-.15a.14.14,0,0,0,0-.14.16.16,0,0,0,0-.15.16.16,0,0,0,0-.15s0-.09,0-.15a.14.14,0,0,0,0-.14.16.16,0,0,0,0-.15.16.16,0,0,0,0-.15.14.14,0,0,0,0-.14.16.16,0,0,0,0-.15.18.18,0,0,0,0-.21l1.24.72a.84.84,0,0,0,.74,0L185,229a.21.21,0,0,0,.11-.26.17.17,0,0,0,0-.14.2.2,0,0,0,0-.15.2.2,0,0,0,0-.15.2.2,0,0,0,0-.15.17.17,0,0,0,0-.14.2.2,0,0,0,0-.15.2.2,0,0,0,0-.15.2.2,0,0,0,0-.15.17.17,0,0,0,0-.14.2.2,0,0,0,0-.15.2.2,0,0,0,0-.21l1.24.72a.81.81,0,0,0,.74,0l4.45-2.57a.2.2,0,0,0,.11-.26.17.17,0,0,0,0-.14.19.19,0,0,0,0-.15.2.2,0,0,0,0-.15.2.2,0,0,0,0-.15.17.17,0,0,0,0-.14.2.2,0,0,0,0-.15.19.19,0,0,0,0-.15.19.19,0,0,0,0-.15.17.17,0,0,0,0-.14.19.19,0,0,0,0-.15.19.19,0,0,0,0-.2l1.24.71a.81.81,0,0,0,.74,0l4.45-2.57a.2.2,0,0,0,.11-.26.17.17,0,0,0,0-.14.19.19,0,0,0,0-.15.19.19,0,0,0,0-.15.17.17,0,0,0,0-.14.19.19,0,0,0,0-.15.19.19,0,0,0,0-.15.19.19,0,0,0,0-.15.17.17,0,0,0,0-.14.19.19,0,0,0,0-.15.19.19,0,0,0,0-.15.19.19,0,0,0,0-.2l1.24.71a.81.81,0,0,0,.74,0l4.45-2.57a1.81,1.81,0,0,0,.11-.7.17.17,0,0,0,0-.14.19.19,0,0,0,0-.15.19.19,0,0,0,0-.15.19.19,0,0,0,0-.15.17.17,0,0,0,0-.14.2.2,0,0,0,0-.15.2.2,0,0,0,0-.15.19.19,0,0,0,0-.2l1.24.71a.81.81,0,0,0,.74,0l4.45-2.57a.19.19,0,0,0,.11-.25.19.19,0,0,0,0-.15.19.19,0,0,0,0-.15.19.19,0,0,0,0-.15.17.17,0,0,0,0-.14.19.19,0,0,0,0-.15.19.19,0,0,0,0-.15.19.19,0,0,0,0-.15.17.17,0,0,0,0-.14.19.19,0,0,0,0-.15.19.19,0,0,0,0-.15.19.19,0,0,0,0-.2l1.82,1-3.05,1.77a.19.19,0,0,0-.11.25.2.2,0,0,0,0,.15.17.17,0,0,0,0,.14.2.2,0,0,0,0,.15.2.2,0,0,0,0,.15.2.2,0,0,0,0,.15.17.17,0,0,0,0,.14.2.2,0,0,0,0,.15.2.2,0,0,0,0,.15.19.19,0,0,0,0,.15.17.17,0,0,0,0,.14.2.2,0,0,0,0,.21l-1.24-.72a.84.84,0,0,0-.74,0l-4.46,2.57a.2.2,0,0,0-.1.26.19.19,0,0,0,0,.15.17.17,0,0,0,0,.14.2.2,0,0,0,0,.15.19.19,0,0,0,0,.15.19.19,0,0,0,0,.15.17.17,0,0,0,0,.14.19.19,0,0,0,0,.15.2.2,0,0,0,0,.15.2.2,0,0,0,0,.15.17.17,0,0,0,0,.14.2.2,0,0,0,0,.21l-1.24-.72a.84.84,0,0,0-.74,0l-4.46,2.57a.2.2,0,0,0-.1.26.19.19,0,0,0,0,.15.17.17,0,0,0,0,.14.2.2,0,0,0,0,.15.2.2,0,0,0,0,.15.19.19,0,0,0,0,.15.17.17,0,0,0,0,.14.2.2,0,0,0,0,.15.2.2,0,0,0,0,.15.19.19,0,0,0,0,.15.17.17,0,0,0,0,.14.23.23,0,0,0,0,.21l-1.23-.72a.84.84,0,0,0-.74,0l-4.46,2.57a.2.2,0,0,0-.1.26.14.14,0,0,0,0,.14.16.16,0,0,0,0,.15.16.16,0,0,0,0,.15.16.16,0,0,0,0,.15.14.14,0,0,0,0,.14.16.16,0,0,0,0,.15.16.16,0,0,0,0,.15.16.16,0,0,0,0,.15.14.14,0,0,0,0,.14.16.16,0,0,0,0,.15.2.2,0,0,0,0,.21l-1.23-.72a.81.81,0,0,0-.74,0l-4.46,2.57a.2.2,0,0,0-.1.26.14.14,0,0,0,0,.14.16.16,0,0,0,0,.15.16.16,0,0,0,0,.15.16.16,0,0,0,0,.15.14.14,0,0,0,0,.14.16.16,0,0,0,0,.15.16.16,0,0,0,0,.15.16.16,0,0,0,0,.15.14.14,0,0,0,0,.14.16.16,0,0,0,0,.15.17.17,0,0,0,0,.2l-1.24-.71a.79.79,0,0,0-.73,0l-4.46,2.57a.19.19,0,0,0-.1.25.16.16,0,0,0,0,.15.16.16,0,0,0,0,.15.16.16,0,0,0,0,.15.14.14,0,0,0,0,.14.16.16,0,0,0,0,.15.16.16,0,0,0,0,.15.16.16,0,0,0,0,.15.14.14,0,0,0,0,.14.16.16,0,0,0,0,.15.16.16,0,0,0,0,.15.17.17,0,0,0,0,.2l-1.24-.71a.79.79,0,0,0-.73,0l-4.46,2.57a.19.19,0,0,0-.1.25.16.16,0,0,0,0,.15.16.16,0,0,0,0,.15.16.16,0,0,0,0,.15.14.14,0,0,0,0,.14.16.16,0,0,0,0,.15.16.16,0,0,0,0,.15.16.16,0,0,0,0,.15.14.14,0,0,0,0,.14.16.16,0,0,0,0,.15.16.16,0,0,0,0,.15.17.17,0,0,0,0,.2l-1.24-.71a.81.81,0,0,0-.74,0l-4.45,2.57a.19.19,0,0,0-.1.25.16.16,0,0,0,0,.15.16.16,0,0,0,0,.15s0,.09,0,.15a.14.14,0,0,0,0,.14.16.16,0,0,0,0,.15.16.16,0,0,0,0,.15s0,.09,0,.15a.14.14,0,0,0,0,.14.16.16,0,0,0,0,.15.16.16,0,0,0,0,.15.17.17,0,0,0,0,.2l-1.24-.71a.81.81,0,0,0-.74,0l-4.45,2.57a.2.2,0,0,0-.11.25.2.2,0,0,0,0,.15.2.2,0,0,0,0,.15.17.17,0,0,0,0,.14.2.2,0,0,0,0,.15.2.2,0,0,0,0,.15.2.2,0,0,0,0,.15.17.17,0,0,0,0,.14.2.2,0,0,0,0,.15.2.2,0,0,0,0,.15.2.2,0,0,0,0,.15.19.19,0,0,0,0,.2l-1.24-.71a.84.84,0,0,0-.74,0l-4.45,2.58a1.06,1.06,0,0,0-.11.55.17.17,0,0,0,0,.14.19.19,0,0,0,0,.15.19.19,0,0,0,0,.15.2.2,0,0,0,0,.15.17.17,0,0,0,0,.14.19.19,0,0,0,0,.15.19.19,0,0,0,0,.15.19.19,0,0,0,0,.15.19.19,0,0,0,0,.2l-1.24-.72a.84.84,0,0,0-.74,0l-4.45,2.58a.52.52,0,0,0-.11.4.17.17,0,0,0,0,.14.19.19,0,0,0,0,.15.2.2,0,0,0,0,.15.2.2,0,0,0,0,.15.17.17,0,0,0,0,.14.19.19,0,0,0,0,.15.19.19,0,0,0,0,.15.19.19,0,0,0,0,.15.17.17,0,0,0,0,.14.2.2,0,0,0,0,.21l-1.24-.72a.84.84,0,0,0-.74,0l-4.45,2.57a.21.21,0,0,0-.11.26.2.2,0,0,0,0,.15.17.17,0,0,0,0,.14.19.19,0,0,0,0,.15.2.2,0,0,0,0,.15.19.19,0,0,0,0,.15.17.17,0,0,0,0,.14.19.19,0,0,0,0,.15.19.19,0,0,0,0,.15.2.2,0,0,0,0,.15.17.17,0,0,0,0,.14.2.2,0,0,0,0,.21L137,257.4a.84.84,0,0,0-.74,0l-8.57,4.95a.19.19,0,0,0-.1.25.19.19,0,0,0,0,.15.2.2,0,0,0,0,.15.17.17,0,0,0,0,.14.19.19,0,0,0,0,.15.2.2,0,0,0,0,.15.2.2,0,0,0,0,.15.17.17,0,0,0,0,.14.19.19,0,0,0,0,.15.19.19,0,0,0,0,.15.2.2,0,0,0,0,.15c0,.1,0,.22.16.32l5.54,3.19a.81.81,0,0,0,.74,0l8.56-4.94A.2.2,0,0,0,142.67,262.39Z"/><path class="cls-8" d="M112.66,243.69l5.54,3.2a.79.79,0,0,0,.73,0l4.46-2.57a.19.19,0,0,0,.1-.25.16.16,0,0,0,0-.15.16.16,0,0,0,0-.15.14.14,0,0,0,0-.14.16.16,0,0,0,0-.15.16.16,0,0,0,0-.15.16.16,0,0,0,0-.15.14.14,0,0,0,0-.14.16.16,0,0,0,0-.15.16.16,0,0,0,0-.15.16.16,0,0,0,0-.15.17.17,0,0,0,0-.2l1.24.71a.81.81,0,0,0,.74,0l4.45-2.57a.19.19,0,0,0,.1-.25.16.16,0,0,0,0-.15.16.16,0,0,0,0-.15.14.14,0,0,0,0-.14.16.16,0,0,0,0-.15.16.16,0,0,0,0-.15.16.16,0,0,0,0-.15.14.14,0,0,0,0-.14.16.16,0,0,0,0-.15.16.16,0,0,0,0-.15.16.16,0,0,0,0-.15.17.17,0,0,0,0-.2l1.24.72a.84.84,0,0,0,.74,0l4.45-2.58a1.06,1.06,0,0,0,.11-.55.17.17,0,0,0,0-.14.2.2,0,0,0,0-.15.2.2,0,0,0,0-.15.17.17,0,0,0,0-.14.2.2,0,0,0,0-.15.2.2,0,0,0,0-.15.2.2,0,0,0,0-.15.17.17,0,0,0,0-.14.2.2,0,0,0,0-.21l1.24.72a.84.84,0,0,0,.74,0l4.45-2.58a.52.52,0,0,0,.11-.4.17.17,0,0,0,0-.14.19.19,0,0,0,0-.15.19.19,0,0,0,0-.15.2.2,0,0,0,0-.15.17.17,0,0,0,0-.14.19.19,0,0,0,0-.15.19.19,0,0,0,0-.15.19.19,0,0,0,0-.15.17.17,0,0,0,0-.14c.05-.11,0-.23-.16-.32l-5.54-3.2a.81.81,0,0,0-.74,0l-4.45,2.57c-.12.07-.15.16-.11.25a.2.2,0,0,0,0,.15.19.19,0,0,0,0,.15.2.2,0,0,0,0,.15.17.17,0,0,0,0,.14.2.2,0,0,0,0,.15.2.2,0,0,0,0,.15.2.2,0,0,0,0,.15.17.17,0,0,0,0,.14.2.2,0,0,0,0,.15.2.2,0,0,0,0,.15.19.19,0,0,0,0,.2l-1.24-.71a.81.81,0,0,0-.74,0l-4.45,2.57a.19.19,0,0,0-.11.25.19.19,0,0,0,0,.15.19.19,0,0,0,0,.15.19.19,0,0,0,0,.15.17.17,0,0,0,0,.14.19.19,0,0,0,0,.15.19.19,0,0,0,0,.15.17.17,0,0,0,0,.14.19.19,0,0,0,0,.15.19.19,0,0,0,0,.15.19.19,0,0,0,0,.15.19.19,0,0,0,0,.2l-1.24-.71a.81.81,0,0,0-.74,0l-4.46,2.57a.19.19,0,0,0-.1.25.2.2,0,0,0,0,.15.2.2,0,0,0,0,.15.17.17,0,0,0,0,.14.2.2,0,0,0,0,.15.2.2,0,0,0,0,.15.2.2,0,0,0,0,.15.17.17,0,0,0,0,.14.2.2,0,0,0,0,.15.2.2,0,0,0,0,.15.2.2,0,0,0,0,.15.19.19,0,0,0,0,.2l-1.24-.71a.84.84,0,0,0-.74,0l-4.46,2.58a.19.19,0,0,0-.1.25.19.19,0,0,0,0,.15.19.19,0,0,0,0,.15.17.17,0,0,0,0,.14.19.19,0,0,0,0,.15.19.19,0,0,0,0,.15.19.19,0,0,0,0,.15.17.17,0,0,0,0,.14.19.19,0,0,0,0,.15.19.19,0,0,0,0,.15.19.19,0,0,0,0,.15C112.45,243.48,112.5,243.6,112.66,243.69Z"/><path class="cls-8" d="M147.5,268.74a.17.17,0,0,0,0-.14.19.19,0,0,0,0-.15.19.19,0,0,0,0-.15.19.19,0,0,0,0-.15.17.17,0,0,0,0-.14.19.19,0,0,0,0-.15.19.19,0,0,0,0-.15.19.19,0,0,0,0-.15.17.17,0,0,0,0-.14.2.2,0,0,0,0-.15.19.19,0,0,0,0-.2l1.24.71a.81.81,0,0,0,.74,0l4.45-2.57a1.81,1.81,0,0,0,.11-.7.17.17,0,0,0,0-.14.2.2,0,0,0,0-.15.2.2,0,0,0,0-.15.19.19,0,0,0,0-.15.17.17,0,0,0,0-.14.2.2,0,0,0,0-.15.2.2,0,0,0,0-.15.19.19,0,0,0,0-.2l1.24.71a.81.81,0,0,0,.74,0l4.45-2.57a1.81,1.81,0,0,0,.11-.7.17.17,0,0,0,0-.14.2.2,0,0,0,0-.15.2.2,0,0,0,0-.15.2.2,0,0,0,0-.15.17.17,0,0,0,0-.14.2.2,0,0,0,0-.15.19.19,0,0,0,0-.15.19.19,0,0,0,0-.2l1.24.71a.81.81,0,0,0,.74,0l4.45-2.57a.19.19,0,0,0,.11-.25.2.2,0,0,0,0-.15.19.19,0,0,0,0-.15.19.19,0,0,0,0-.15.17.17,0,0,0,0-.14.2.2,0,0,0,0-.15.19.19,0,0,0,0-.15.17.17,0,0,0,0-.14.19.19,0,0,0,0-.15.19.19,0,0,0,0-.15.19.19,0,0,0,0-.15.19.19,0,0,0,0-.2l1.24.71a.81.81,0,0,0,.74,0l4.45-2.57a.19.19,0,0,0,.11-.25.19.19,0,0,0,0-.15.19.19,0,0,0,0-.15.17.17,0,0,0,0-.14.19.19,0,0,0,0-.15.19.19,0,0,0,0-.15.19.19,0,0,0,0-.15.17.17,0,0,0,0-.14.19.19,0,0,0,0-.15.19.19,0,0,0,0-.15.19.19,0,0,0,0-.15.19.19,0,0,0,0-.2l1.24.71a.84.84,0,0,0,.74,0L180,250.2a.19.19,0,0,0,.1-.25.2.2,0,0,0,0-.15.2.2,0,0,0,0-.15.17.17,0,0,0,0-.14.2.2,0,0,0,0-.15.19.19,0,0,0,0-.15.19.19,0,0,0,0-.15.17.17,0,0,0,0-.14.2.2,0,0,0,0-.15.2.2,0,0,0,0-.15.19.19,0,0,0,0-.15.19.19,0,0,0,0-.2l1.24.72a.84.84,0,0,0,.74,0l4.46-2.58a.19.19,0,0,0,.1-.25.2.2,0,0,0,0-.15.17.17,0,0,0,0-.14.2.2,0,0,0,0-.15.2.2,0,0,0,0-.15.19.19,0,0,0,0-.15.17.17,0,0,0,0-.14.2.2,0,0,0,0-.15.19.19,0,0,0,0-.15.2.2,0,0,0,0-.15.17.17,0,0,0,0-.14.23.23,0,0,0,0-.21l1.23.72a.84.84,0,0,0,.74,0l4.46-2.57a.2.2,0,0,0,.1-.26.16.16,0,0,0,0-.15.14.14,0,0,0,0-.14.16.16,0,0,0,0-.15.16.16,0,0,0,0-.15.16.16,0,0,0,0-.15.14.14,0,0,0,0-.14.16.16,0,0,0,0-.15.16.16,0,0,0,0-.15.16.16,0,0,0,0-.15.14.14,0,0,0,0-.14.2.2,0,0,0,0-.21l1.23.72a.84.84,0,0,0,.74,0l4.46-2.57a.2.2,0,0,0,.1-.26s0-.09,0-.15a.14.14,0,0,0,0-.14.16.16,0,0,0,0-.15.16.16,0,0,0,0-.15.14.14,0,0,0,0-.14.16.16,0,0,0,0-.15.16.16,0,0,0,0-.15.16.16,0,0,0,0-.15.14.14,0,0,0,0-.14.16.16,0,0,0,0-.15.18.18,0,0,0,0-.21l1.24.72a.79.79,0,0,0,.73,0l4.46-2.57a.2.2,0,0,0,.1-.26.14.14,0,0,0,0-.14.16.16,0,0,0,0-.15.16.16,0,0,0,0-.15.16.16,0,0,0,0-.15.14.14,0,0,0,0-.14.16.16,0,0,0,0-.15.16.16,0,0,0,0-.15.16.16,0,0,0,0-.15.14.14,0,0,0,0-.14.16.16,0,0,0,0-.15.18.18,0,0,0,0-.21l1.24.72a.79.79,0,0,0,.73,0l4.46-2.57a.2.2,0,0,0,.1-.26.14.14,0,0,0,0-.14.16.16,0,0,0,0-.15.16.16,0,0,0,0-.15.16.16,0,0,0,0-.15.14.14,0,0,0,0-.14.16.16,0,0,0,0-.15.16.16,0,0,0,0-.15.16.16,0,0,0,0-.15.14.14,0,0,0,0-.14.16.16,0,0,0,0-.15.17.17,0,0,0,0-.2l1.24.71a.81.81,0,0,0,.74,0l4.45-2.57a.19.19,0,0,0,.1-.25.16.16,0,0,0,0-.15.16.16,0,0,0,0-.15.16.16,0,0,0,0-.15.14.14,0,0,0,0-.14.16.16,0,0,0,0-.15.16.16,0,0,0,0-.15.16.16,0,0,0,0-.15.14.14,0,0,0,0-.14.16.16,0,0,0,0-.15.16.16,0,0,0,0-.15.17.17,0,0,0,0-.2l1.24.71a.81.81,0,0,0,.74,0l13-7.52a.19.19,0,0,0,.1-.25.16.16,0,0,0,0-.15.14.14,0,0,0,0-.14.16.16,0,0,0,0-.15.16.16,0,0,0,0-.15.16.16,0,0,0,0-.15.14.14,0,0,0,0-.14.16.16,0,0,0,0-.15.16.16,0,0,0,0-.15.16.16,0,0,0,0-.15.14.14,0,0,0,0-.14c.05-.11,0-.23-.16-.32l-5.54-3.2a.79.79,0,0,0-.73,0l-13,7.52a.19.19,0,0,0-.1.25.19.19,0,0,0,0,.15.17.17,0,0,0,0,.14.19.19,0,0,0,0,.15.2.2,0,0,0,0,.15.2.2,0,0,0,0,.15.17.17,0,0,0,0,.14.19.19,0,0,0,0,.15.19.19,0,0,0,0,.15.2.2,0,0,0,0,.15.17.17,0,0,0,0,.14.2.2,0,0,0,0,.21l-1.24-.72a.84.84,0,0,0-.74,0l-4.46,2.57a.2.2,0,0,0-.1.26.19.19,0,0,0,0,.15.17.17,0,0,0,0,.14.19.19,0,0,0,0,.15.19.19,0,0,0,0,.15.19.19,0,0,0,0,.15.17.17,0,0,0,0,.14.19.19,0,0,0,0,.15.19.19,0,0,0,0,.15.19.19,0,0,0,0,.15.17.17,0,0,0,0,.14.23.23,0,0,0,0,.21l-1.23-.72a.84.84,0,0,0-.74,0l-4.46,2.57a.2.2,0,0,0-.1.26s0,.09,0,.15a.14.14,0,0,0,0,.14.16.16,0,0,0,0,.15.16.16,0,0,0,0,.15.14.14,0,0,0,0,.14.16.16,0,0,0,0,.15.16.16,0,0,0,0,.15.16.16,0,0,0,0,.15.14.14,0,0,0,0,.14.16.16,0,0,0,0,.15.2.2,0,0,0,0,.21l-1.23-.72a.81.81,0,0,0-.74,0l-4.46,2.57a.2.2,0,0,0-.1.26.14.14,0,0,0,0,.14.16.16,0,0,0,0,.15.16.16,0,0,0,0,.15.16.16,0,0,0,0,.15.14.14,0,0,0,0,.14.16.16,0,0,0,0,.15.16.16,0,0,0,0,.15.16.16,0,0,0,0,.15.14.14,0,0,0,0,.14.16.16,0,0,0,0,.15.17.17,0,0,0,0,.2l-1.24-.71a.79.79,0,0,0-.73,0l-4.46,2.57a.2.2,0,0,0-.1.26.14.14,0,0,0,0,.14.16.16,0,0,0,0,.15.16.16,0,0,0,0,.15s0,.09,0,.15a.14.14,0,0,0,0,.14.16.16,0,0,0,0,.15.16.16,0,0,0,0,.15s0,.09,0,.15a.14.14,0,0,0,0,.14.16.16,0,0,0,0,.15.17.17,0,0,0,0,.2l-1.24-.71a.79.79,0,0,0-.73,0L182.18,240a.19.19,0,0,0-.1.25.16.16,0,0,0,0,.15.16.16,0,0,0,0,.15.16.16,0,0,0,0,.15.14.14,0,0,0,0,.14.16.16,0,0,0,0,.15.16.16,0,0,0,0,.15.16.16,0,0,0,0,.15.14.14,0,0,0,0,.14.16.16,0,0,0,0,.15.16.16,0,0,0,0,.15.17.17,0,0,0,0,.2l-1.24-.71a.81.81,0,0,0-.74,0l-4.45,2.57a.19.19,0,0,0-.1.25.16.16,0,0,0,0,.15.16.16,0,0,0,0,.15.16.16,0,0,0,0,.15.14.14,0,0,0,0,.14.16.16,0,0,0,0,.15.16.16,0,0,0,0,.15.16.16,0,0,0,0,.15.14.14,0,0,0,0,.14.16.16,0,0,0,0,.15.16.16,0,0,0,0,.15.17.17,0,0,0,0,.2l-1.24-.71a.81.81,0,0,0-.74,0l-4.45,2.57a.2.2,0,0,0-.11.25.2.2,0,0,0,0,.15.2.2,0,0,0,0,.15.17.17,0,0,0,0,.14.2.2,0,0,0,0,.15.2.2,0,0,0,0,.15.2.2,0,0,0,0,.15.17.17,0,0,0,0,.14.2.2,0,0,0,0,.15.2.2,0,0,0,0,.15.2.2,0,0,0,0,.15.19.19,0,0,0,0,.2l-1.24-.71a.81.81,0,0,0-.74,0l-4.45,2.57a1.06,1.06,0,0,0-.11.55.17.17,0,0,0,0,.14.19.19,0,0,0,0,.15.19.19,0,0,0,0,.15.19.19,0,0,0,0,.15.17.17,0,0,0,0,.14.19.19,0,0,0,0,.15.19.19,0,0,0,0,.15.2.2,0,0,0,0,.15.19.19,0,0,0,0,.2l-1.24-.72a.84.84,0,0,0-.74,0L156.14,255a1.06,1.06,0,0,0-.11.55.17.17,0,0,0,0,.14.2.2,0,0,0,0,.15.2.2,0,0,0,0,.15.19.19,0,0,0,0,.15.17.17,0,0,0,0,.14.2.2,0,0,0,0,.15.2.2,0,0,0,0,.15.17.17,0,0,0,0,.14.2.2,0,0,0,0,.21l-1.24-.72a.84.84,0,0,0-.74,0l-4.45,2.58a.52.52,0,0,0-.11.4.17.17,0,0,0,0,.14.19.19,0,0,0,0,.15.2.2,0,0,0,0,.15.19.19,0,0,0,0,.15.17.17,0,0,0,0,.14.2.2,0,0,0,0,.15.2.2,0,0,0,0,.15.2.2,0,0,0,0,.15.17.17,0,0,0,0,.14.2.2,0,0,0,0,.21l-1.24-.72a.84.84,0,0,0-.74,0l-4.45,2.57a.2.2,0,0,0-.11.26.19.19,0,0,0,0,.15.17.17,0,0,0,0,.14.19.19,0,0,0,0,.15.19.19,0,0,0,0,.15.2.2,0,0,0,0,.15.17.17,0,0,0,0,.14.19.19,0,0,0,0,.15.19.19,0,0,0,0,.15.19.19,0,0,0,0,.15.17.17,0,0,0,0,.14.2.2,0,0,0,0,.21l-1.24-.72a.84.84,0,0,0-.74,0l-5.48,3.17a1.06,1.06,0,0,0-.11.55.17.17,0,0,0,0,.14.19.19,0,0,0,0,.15.2.2,0,0,0,0,.15.19.19,0,0,0,0,.15.17.17,0,0,0,0,.14.2.2,0,0,0,0,.15.19.19,0,0,0,0,.15.19.19,0,0,0,0,.15c-.05.1,0,.22.16.31l5.54,3.2a.81.81,0,0,0,.74,0l5.48-3.16A.2.2,0,0,0,147.5,268.74Z"/><path class="cls-8" d="M114.15,249.49a.19.19,0,0,0,0-.15.17.17,0,0,0,0-.14.2.2,0,0,0,0-.15.2.2,0,0,0,0-.15.19.19,0,0,0,0-.15.17.17,0,0,0,0-.14.19.19,0,0,0,0-.15.2.2,0,0,0,0-.15.19.19,0,0,0,0-.15.17.17,0,0,0,0-.14c0-.11,0-.23-.16-.32l-5.54-3.2a.81.81,0,0,0-.74,0l-5.48,3.16a.2.2,0,0,0-.1.26.16.16,0,0,0,0,.15.14.14,0,0,0,0,.14.16.16,0,0,0,0,.15.16.16,0,0,0,0,.15.16.16,0,0,0,0,.15.14.14,0,0,0,0,.14.16.16,0,0,0,0,.15.16.16,0,0,0,0,.15.16.16,0,0,0,0,.15.14.14,0,0,0,0,.14c-.06.11,0,.23.16.32l5.53,3.2a.81.81,0,0,0,.74,0l5.49-3.16A.2.2,0,0,0,114.15,249.49Z"/><path class="cls-8" d="M122.73,255.63a.2.2,0,0,0,0-.15.17.17,0,0,0,0-.14.2.2,0,0,0,0-.15.2.2,0,0,0,0-.15.2.2,0,0,0,0-.15.17.17,0,0,0,0-.14.2.2,0,0,0,0-.15.2.2,0,0,0,0-.15.2.2,0,0,0,0-.15.17.17,0,0,0,0-.14.2.2,0,0,0,0-.21l1.24.72a.84.84,0,0,0,.74,0l4.45-2.57a.2.2,0,0,0,.11-.26.19.19,0,0,0,0-.15.17.17,0,0,0,0-.14.19.19,0,0,0,0-.15.2.2,0,0,0,0-.15.19.19,0,0,0,0-.15.17.17,0,0,0,0-.14.2.2,0,0,0,0-.15.19.19,0,0,0,0-.15.19.19,0,0,0,0-.15.17.17,0,0,0,0-.14.2.2,0,0,0,0-.21l1.24.72a.84.84,0,0,0,.74,0l4.45-2.57a.2.2,0,0,0,.11-.26.17.17,0,0,0,0-.14.19.19,0,0,0,0-.15.19.19,0,0,0,0-.15.19.19,0,0,0,0-.15.17.17,0,0,0,0-.14.19.19,0,0,0,0-.15.2.2,0,0,0,0-.15.19.19,0,0,0,0-.15.17.17,0,0,0,0-.14.19.19,0,0,0,0-.15.2.2,0,0,0,0-.21l1.24.72a.81.81,0,0,0,.74,0l4.45-2.57a.2.2,0,0,0,.11-.26.17.17,0,0,0,0-.14.19.19,0,0,0,0-.15.19.19,0,0,0,0-.15.19.19,0,0,0,0-.15.17.17,0,0,0,0-.14.19.19,0,0,0,0-.15.19.19,0,0,0,0-.15.19.19,0,0,0,0-.15.17.17,0,0,0,0-.14.19.19,0,0,0,0-.15.18.18,0,0,0,0-.2l1.24.71a.81.81,0,0,0,.74,0l4.46-2.57a.2.2,0,0,0,.1-.26.17.17,0,0,0,0-.14.2.2,0,0,0,0-.15.2.2,0,0,0,0-.15.17.17,0,0,0,0-.14.2.2,0,0,0,0-.15.19.19,0,0,0,0-.15.2.2,0,0,0,0-.15.17.17,0,0,0,0-.14.2.2,0,0,0,0-.15.2.2,0,0,0,0-.15.19.19,0,0,0,0-.2l1.24.71a.81.81,0,0,0,.74,0l4.46-2.57a.19.19,0,0,0,.1-.25.19.19,0,0,0,0-.15.19.19,0,0,0,0-.15.19.19,0,0,0,0-.15.17.17,0,0,0,0-.14.19.19,0,0,0,0-.15.19.19,0,0,0,0-.15.19.19,0,0,0,0-.15.17.17,0,0,0,0-.14.19.19,0,0,0,0-.15.19.19,0,0,0,0-.15.21.21,0,0,0,0-.2l1.23.71a.81.81,0,0,0,.74,0l4.46-2.57a.19.19,0,0,0,.1-.25.16.16,0,0,0,0-.15.16.16,0,0,0,0-.15.16.16,0,0,0,0-.15.14.14,0,0,0,0-.14.16.16,0,0,0,0-.15.16.16,0,0,0,0-.15s0-.09,0-.15a.14.14,0,0,0,0-.14.16.16,0,0,0,0-.15.16.16,0,0,0,0-.15.19.19,0,0,0,0-.2l1.23.71a.81.81,0,0,0,.74,0l4.46-2.57a.19.19,0,0,0,.1-.25.16.16,0,0,0,0-.15.16.16,0,0,0,0-.15.14.14,0,0,0,0-.14.16.16,0,0,0,0-.15.16.16,0,0,0,0-.15.16.16,0,0,0,0-.15.14.14,0,0,0,0-.14.16.16,0,0,0,0-.15.16.16,0,0,0,0-.15.16.16,0,0,0,0-.15.17.17,0,0,0,0-.2l1.24.71a.82.82,0,0,0,.73,0l4.46-2.58a.19.19,0,0,0,.1-.25.16.16,0,0,0,0-.15.16.16,0,0,0,0-.15.14.14,0,0,0,0-.14.16.16,0,0,0,0-.15.16.16,0,0,0,0-.15.16.16,0,0,0,0-.15.14.14,0,0,0,0-.14.16.16,0,0,0,0-.15.16.16,0,0,0,0-.15.16.16,0,0,0,0-.15.17.17,0,0,0,0-.2l1.24.72a.82.82,0,0,0,.73,0l4.46-2.58a.19.19,0,0,0,.1-.25.16.16,0,0,0,0-.15.14.14,0,0,0,0-.14.16.16,0,0,0,0-.15.16.16,0,0,0,0-.15.16.16,0,0,0,0-.15.14.14,0,0,0,0-.14.16.16,0,0,0,0-.15.16.16,0,0,0,0-.15.16.16,0,0,0,0-.15.14.14,0,0,0,0-.14.18.18,0,0,0,0-.21l1.24.72a.84.84,0,0,0,.74,0l4.45-2.57a.2.2,0,0,0,.1-.26.16.16,0,0,0,0-.15.14.14,0,0,0,0-.14.16.16,0,0,0,0-.15.16.16,0,0,0,0-.15.16.16,0,0,0,0-.15.14.14,0,0,0,0-.14.16.16,0,0,0,0-.15.16.16,0,0,0,0-.15.16.16,0,0,0,0-.15.14.14,0,0,0,0-.14.18.18,0,0,0,0-.21l1.24.72a.84.84,0,0,0,.74,0l4.45-2.57a.21.21,0,0,0,.11-.26.19.19,0,0,0,0-.15.17.17,0,0,0,0-.14.19.19,0,0,0,0-.15.19.19,0,0,0,0-.15.19.19,0,0,0,0-.15.17.17,0,0,0,0-.14.19.19,0,0,0,0-.15.19.19,0,0,0,0-.15.19.19,0,0,0,0-.15.17.17,0,0,0,0-.14.2.2,0,0,0,0-.21l1.24.72a.84.84,0,0,0,.74,0l4.45-2.57a.2.2,0,0,0,.11-.26.17.17,0,0,0,0-.14.19.19,0,0,0,0-.15.19.19,0,0,0,0-.15.19.19,0,0,0,0-.15.17.17,0,0,0,0-.14.19.19,0,0,0,0-.15.19.19,0,0,0,0-.15.19.19,0,0,0,0-.15.17.17,0,0,0,0-.14.19.19,0,0,0,0-.15.2.2,0,0,0,0-.21l1.24.72a.81.81,0,0,0,.74,0l7.54-4.35a.2.2,0,0,0,.1-.26.17.17,0,0,0,0-.14.19.19,0,0,0,0-.15.19.19,0,0,0,0-.15.19.19,0,0,0,0-.15.17.17,0,0,0,0-.14.19.19,0,0,0,0-.15.19.19,0,0,0,0-.15.19.19,0,0,0,0-.15.17.17,0,0,0,0-.14.19.19,0,0,0,0-.15c.05-.1,0-.23-.16-.32l-5.54-3.2a.82.82,0,0,0-.73,0l-7.54,4.35a.2.2,0,0,0-.11.26.17.17,0,0,0,0,.14.19.19,0,0,0,0,.15.19.19,0,0,0,0,.15.19.19,0,0,0,0,.15.17.17,0,0,0,0,.14.19.19,0,0,0,0,.15.19.19,0,0,0,0,.15.19.19,0,0,0,0,.15.17.17,0,0,0,0,.14.19.19,0,0,0,0,.15.2.2,0,0,0,0,.21l-1.24-.72a.81.81,0,0,0-.74,0L190,208.07a.2.2,0,0,0-.11.26.17.17,0,0,0,0,.14.2.2,0,0,0,0,.15.2.2,0,0,0,0,.15.2.2,0,0,0,0,.15.17.17,0,0,0,0,.14.2.2,0,0,0,0,.15.2.2,0,0,0,0,.15.2.2,0,0,0,0,.15.17.17,0,0,0,0,.14.2.2,0,0,0,0,.15.18.18,0,0,0,0,.2l-1.24-.71a.81.81,0,0,0-.74,0l-4.45,2.57a.2.2,0,0,0-.11.26.17.17,0,0,0,0,.14.2.2,0,0,0,0,.15.2.2,0,0,0,0,.15.17.17,0,0,0,0,.14.2.2,0,0,0,0,.15.2.2,0,0,0,0,.15.2.2,0,0,0,0,.15.17.17,0,0,0,0,.14.2.2,0,0,0,0,.15.2.2,0,0,0,0,.15.19.19,0,0,0,0,.2l-1.24-.71a.81.81,0,0,0-.74,0l-4.46,2.57a.19.19,0,0,0-.1.25.2.2,0,0,0,0,.15.2.2,0,0,0,0,.15.2.2,0,0,0,0,.15.17.17,0,0,0,0,.14.2.2,0,0,0,0,.15.2.2,0,0,0,0,.15.2.2,0,0,0,0,.15.17.17,0,0,0,0,.14.2.2,0,0,0,0,.15.2.2,0,0,0,0,.15.19.19,0,0,0,0,.2l-1.24-.71a.81.81,0,0,0-.74,0l-4.46,2.57a.19.19,0,0,0-.1.25.16.16,0,0,0,0,.15.16.16,0,0,0,0,.15.16.16,0,0,0,0,.15.14.14,0,0,0,0,.14.16.16,0,0,0,0,.15.16.16,0,0,0,0,.15s0,.09,0,.15a.14.14,0,0,0,0,.14.16.16,0,0,0,0,.15.16.16,0,0,0,0,.15.19.19,0,0,0,0,.2l-1.23-.71a.81.81,0,0,0-.74,0l-4.46,2.57a.19.19,0,0,0-.1.25.16.16,0,0,0,0,.15.16.16,0,0,0,0,.15.14.14,0,0,0,0,.14.16.16,0,0,0,0,.15.16.16,0,0,0,0,.15.16.16,0,0,0,0,.15.14.14,0,0,0,0,.14.16.16,0,0,0,0,.15.16.16,0,0,0,0,.15.16.16,0,0,0,0,.15.19.19,0,0,0,0,.2l-1.23-.71a.84.84,0,0,0-.74,0l-4.46,2.58a.19.19,0,0,0-.1.25.16.16,0,0,0,0,.15.16.16,0,0,0,0,.15.14.14,0,0,0,0,.14.16.16,0,0,0,0,.15.16.16,0,0,0,0,.15.16.16,0,0,0,0,.15.14.14,0,0,0,0,.14.16.16,0,0,0,0,.15.16.16,0,0,0,0,.15.16.16,0,0,0,0,.15.17.17,0,0,0,0,.2l-1.24-.72a.82.82,0,0,0-.73,0l-4.46,2.58a.19.19,0,0,0-.1.25.16.16,0,0,0,0,.15s0,.09,0,.15a.14.14,0,0,0,0,.14.16.16,0,0,0,0,.15.16.16,0,0,0,0,.15.14.14,0,0,0,0,.14.16.16,0,0,0,0,.15.16.16,0,0,0,0,.15.16.16,0,0,0,0,.15.14.14,0,0,0,0,.14.18.18,0,0,0,0,.21l-1.24-.72a.82.82,0,0,0-.73,0l-4.46,2.57a.2.2,0,0,0-.1.26.16.16,0,0,0,0,.15.14.14,0,0,0,0,.14.16.16,0,0,0,0,.15.16.16,0,0,0,0,.15.16.16,0,0,0,0,.15.14.14,0,0,0,0,.14.16.16,0,0,0,0,.15.16.16,0,0,0,0,.15.16.16,0,0,0,0,.15.14.14,0,0,0,0,.14.18.18,0,0,0,0,.21l-1.24-.72a.84.84,0,0,0-.74,0l-4.45,2.57a.21.21,0,0,0-.11.26.26.26,0,0,0,0,.15.22.22,0,0,0,0,.14.26.26,0,0,0,0,.15.26.26,0,0,0,0,.15.25.25,0,0,0,0,.15.22.22,0,0,0,0,.14.26.26,0,0,0,0,.15.26.26,0,0,0,0,.15.25.25,0,0,0,0,.15.22.22,0,0,0,0,.14.2.2,0,0,0,0,.21l-1.24-.72a.84.84,0,0,0-.74,0l-4.45,2.57a.2.2,0,0,0-.11.26.17.17,0,0,0,0,.14.19.19,0,0,0,0,.15.19.19,0,0,0,0,.15.19.19,0,0,0,0,.15.17.17,0,0,0,0,.14.2.2,0,0,0,0,.15.19.19,0,0,0,0,.15.19.19,0,0,0,0,.15.17.17,0,0,0,0,.14.19.19,0,0,0,0,.15.2.2,0,0,0,0,.21l-1.24-.72a.81.81,0,0,0-.74,0l-4.45,2.57a.2.2,0,0,0-.11.26.17.17,0,0,0,0,.14.19.19,0,0,0,0,.15.19.19,0,0,0,0,.15.19.19,0,0,0,0,.15.17.17,0,0,0,0,.14.19.19,0,0,0,0,.15.19.19,0,0,0,0,.15.19.19,0,0,0,0,.15.17.17,0,0,0,0,.14.19.19,0,0,0,0,.15.19.19,0,0,0,0,.2l-1.24-.71a.81.81,0,0,0-.74,0l-4.45,2.57a.2.2,0,0,0-.11.26.17.17,0,0,0,0,.14.19.19,0,0,0,0,.15.19.19,0,0,0,0,.15.17.17,0,0,0,0,.14.19.19,0,0,0,0,.15.19.19,0,0,0,0,.15.19.19,0,0,0,0,.15.17.17,0,0,0,0,.14.19.19,0,0,0,0,.15.19.19,0,0,0,0,.15.19.19,0,0,0,0,.2l-1.24-.71a.81.81,0,0,0-.74,0l-4.45,2.57a1.81,1.81,0,0,0-.11.7.17.17,0,0,0,0,.14.2.2,0,0,0,0,.15.19.19,0,0,0,0,.15.19.19,0,0,0,0,.15.17.17,0,0,0,0,.14.19.19,0,0,0,0,.15.19.19,0,0,0,0,.15c0,.1,0,.23.16.32l5.54,3.2a.84.84,0,0,0,.74,0l4.45-2.57A.21.21,0,0,0,122.73,255.63Z"/><path class="cls-8" d="M234.71,200.31l4.45-2.57a.2.2,0,0,0,.11-.26.17.17,0,0,0,0-.14.19.19,0,0,0,0-.15.19.19,0,0,0,0-.15.19.19,0,0,0,0-.15.17.17,0,0,0,0-.14.19.19,0,0,0,0-.15.19.19,0,0,0,0-.15.19.19,0,0,0,0-.15.17.17,0,0,0,0-.14.19.19,0,0,0,0-.15c0-.1,0-.23-.16-.32l-5.54-3.2a.84.84,0,0,0-.74,0L228.38,195a.2.2,0,0,0-.11.26.17.17,0,0,0,0,.14.2.2,0,0,0,0,.15.2.2,0,0,0,0,.15.2.2,0,0,0,0,.15.17.17,0,0,0,0,.14.19.19,0,0,0,0,.15.2.2,0,0,0,0,.15.2.2,0,0,0,0,.15.17.17,0,0,0,0,.14.2.2,0,0,0,0,.15.2.2,0,0,0,0,.21l-1.24-.72a.81.81,0,0,0-.74,0l-4.45,2.57a.2.2,0,0,0-.11.26.17.17,0,0,0,0,.14.2.2,0,0,0,0,.15.2.2,0,0,0,0,.15.2.2,0,0,0,0,.15.17.17,0,0,0,0,.14.2.2,0,0,0,0,.15.2.2,0,0,0,0,.15.2.2,0,0,0,0,.15.17.17,0,0,0,0,.14.2.2,0,0,0,0,.15.18.18,0,0,0,0,.2l-1.24-.71a.81.81,0,0,0-.74,0l-4.45,2.57a.2.2,0,0,0-.11.26.17.17,0,0,0,0,.14.2.2,0,0,0,0,.15.2.2,0,0,0,0,.15.17.17,0,0,0,0,.14.2.2,0,0,0,0,.15.2.2,0,0,0,0,.15.2.2,0,0,0,0,.15.17.17,0,0,0,0,.14.2.2,0,0,0,0,.15.2.2,0,0,0,0,.15c-.05.1,0,.23.16.32l5.54,3.2a.84.84,0,0,0,.74,0l4.45-2.57a.2.2,0,0,0,.11-.26.19.19,0,0,0,0-.15.17.17,0,0,0,0-.14.19.19,0,0,0,0-.15.19.19,0,0,0,0-.15.19.19,0,0,0,0-.15.17.17,0,0,0,0-.14.19.19,0,0,0,0-.15.19.19,0,0,0,0-.15.17.17,0,0,0,0-.14.19.19,0,0,0,0-.15.2.2,0,0,0,0-.21l1.24.72a.84.84,0,0,0,.74,0l4.45-2.57a.2.2,0,0,0,.11-.26.17.17,0,0,0,0-.14.19.19,0,0,0,0-.15.19.19,0,0,0,0-.15.19.19,0,0,0,0-.15.17.17,0,0,0,0-.14.19.19,0,0,0,0-.15.19.19,0,0,0,0-.15.19.19,0,0,0,0-.15.17.17,0,0,0,0-.14.19.19,0,0,0,0-.15.2.2,0,0,0,0-.21l1.24.72A.81.81,0,0,0,234.71,200.31Z"/><path class="cls-8" d="M207.5,200l5.53,3.2a.84.84,0,0,0,.74,0l4.46-2.57a.2.2,0,0,0,.1-.26.14.14,0,0,0,0-.14.16.16,0,0,0,0-.15.16.16,0,0,0,0-.15.16.16,0,0,0,0-.15.14.14,0,0,0,0-.14.16.16,0,0,0,0-.15.16.16,0,0,0,0-.15.16.16,0,0,0,0-.15.14.14,0,0,0,0-.14.16.16,0,0,0,0-.15.18.18,0,0,0,0-.21l1.24.72a.79.79,0,0,0,.73,0l4.46-2.57a.2.2,0,0,0,.1-.26.14.14,0,0,0,0-.14.16.16,0,0,0,0-.15.16.16,0,0,0,0-.15.16.16,0,0,0,0-.15.14.14,0,0,0,0-.14.16.16,0,0,0,0-.15.16.16,0,0,0,0-.15s0-.09,0-.15a.14.14,0,0,0,0-.14.16.16,0,0,0,0-.15.17.17,0,0,0,0-.2l1.24.71a.79.79,0,0,0,.73,0l4.46-2.57a.19.19,0,0,0,.1-.25.16.16,0,0,0,0-.15.16.16,0,0,0,0-.15.16.16,0,0,0,0-.15.14.14,0,0,0,0-.14.16.16,0,0,0,0-.15.16.16,0,0,0,0-.15.16.16,0,0,0,0-.15.14.14,0,0,0,0-.14.16.16,0,0,0,0-.15.16.16,0,0,0,0-.15c.06-.1,0-.23-.15-.32l-5.54-3.2a.84.84,0,0,0-.74,0l-4.46,2.57a.2.2,0,0,0-.1.26.16.16,0,0,0,0,.15.14.14,0,0,0,0,.14.16.16,0,0,0,0,.15.16.16,0,0,0,0,.15.16.16,0,0,0,0,.15.14.14,0,0,0,0,.14.16.16,0,0,0,0,.15.16.16,0,0,0,0,.15.16.16,0,0,0,0,.15.14.14,0,0,0,0,.14.2.2,0,0,0,0,.21l-1.23-.72a.84.84,0,0,0-.74,0L214,194.22a.2.2,0,0,0-.1.26.14.14,0,0,0,0,.14.16.16,0,0,0,0,.15.16.16,0,0,0,0,.15.16.16,0,0,0,0,.15.14.14,0,0,0,0,.14.16.16,0,0,0,0,.15.16.16,0,0,0,0,.15.16.16,0,0,0,0,.15.14.14,0,0,0,0,.14.16.16,0,0,0,0,.15.2.2,0,0,0,0,.21l-1.23-.72a.81.81,0,0,0-.74,0L207.44,198a.2.2,0,0,0-.1.26.14.14,0,0,0,0,.14.16.16,0,0,0,0,.15.16.16,0,0,0,0,.15.16.16,0,0,0,0,.15.14.14,0,0,0,0,.14.16.16,0,0,0,0,.15.16.16,0,0,0,0,.15.16.16,0,0,0,0,.15.14.14,0,0,0,0,.14.16.16,0,0,0,0,.15C207.28,199.81,207.34,199.94,207.5,200Z"/><path class="cls-8" d="M197.89,194.49l5.54,3.19a.81.81,0,0,0,.74,0l4.45-2.57a1.06,1.06,0,0,0,.11-.55.17.17,0,0,0,0-.14.19.19,0,0,0,0-.15.19.19,0,0,0,0-.15.19.19,0,0,0,0-.15.17.17,0,0,0,0-.14.19.19,0,0,0,0-.15.19.19,0,0,0,0-.15.19.19,0,0,0,0-.15.19.19,0,0,0,0-.2l1.24.71a.84.84,0,0,0,.74,0l4.45-2.58a.19.19,0,0,0,.11-.25.19.19,0,0,0,0-.15.19.19,0,0,0,0-.15.17.17,0,0,0,0-.14.19.19,0,0,0,0-.15.19.19,0,0,0,0-.15.19.19,0,0,0,0-.15.17.17,0,0,0,0-.14.19.19,0,0,0,0-.15.19.19,0,0,0,0-.15.19.19,0,0,0,0-.15.19.19,0,0,0,0-.2l1.24.72a.84.84,0,0,0,.74,0l4.45-2.58a.19.19,0,0,0,.11-.25.19.19,0,0,0,0-.15.17.17,0,0,0,0-.14.19.19,0,0,0,0-.15.19.19,0,0,0,0-.15.19.19,0,0,0,0-.15.17.17,0,0,0,0-.14.19.19,0,0,0,0-.15.19.19,0,0,0,0-.15.19.19,0,0,0,0-.15.17.17,0,0,0,0-.14c.05-.11,0-.23-.16-.32l-5.54-3.2a.81.81,0,0,0-.74,0l-4.45,2.57a1.81,1.81,0,0,0-.11.7.17.17,0,0,0,0,.14.2.2,0,0,0,0,.15.2.2,0,0,0,0,.15.19.19,0,0,0,0,.15.17.17,0,0,0,0,.14.2.2,0,0,0,0,.15.2.2,0,0,0,0,.15.19.19,0,0,0,0,.2l-1.24-.71a.81.81,0,0,0-.74,0l-4.45,2.57a1.06,1.06,0,0,0-.11.55.17.17,0,0,0,0,.14.2.2,0,0,0,0,.15.19.19,0,0,0,0,.15.2.2,0,0,0,0,.15.17.17,0,0,0,0,.14.2.2,0,0,0,0,.15.2.2,0,0,0,0,.15.2.2,0,0,0,0,.15.19.19,0,0,0,0,.2L203,189.9a.81.81,0,0,0-.74,0l-4.45,2.57a1.06,1.06,0,0,0-.11.55.17.17,0,0,0,0,.14.2.2,0,0,0,0,.15.2.2,0,0,0,0,.15.2.2,0,0,0,0,.15.17.17,0,0,0,0,.14.2.2,0,0,0,0,.15.2.2,0,0,0,0,.15.19.19,0,0,0,0,.15C197.68,194.27,197.73,194.39,197.89,194.49Z"/><path class="cls-8" d="M247.8,176.57l-1.24-.72a.84.84,0,0,0-.74,0l-4.45,2.58a.19.19,0,0,0-.11.25.2.2,0,0,0,0,.15.17.17,0,0,0,0,.14.2.2,0,0,0,0,.15.2.2,0,0,0,0,.15.2.2,0,0,0,0,.15.17.17,0,0,0,0,.14.2.2,0,0,0,0,.15.2.2,0,0,0,0,.15.2.2,0,0,0,0,.15.17.17,0,0,0,0,.14.2.2,0,0,0,0,.21l-1.24-.72a.84.84,0,0,0-.74,0l-4.45,2.57a.2.2,0,0,0-.11.26.2.2,0,0,0,0,.15.17.17,0,0,0,0,.14.2.2,0,0,0,0,.15.2.2,0,0,0,0,.15.2.2,0,0,0,0,.15.17.17,0,0,0,0,.14.2.2,0,0,0,0,.15.2.2,0,0,0,0,.15.2.2,0,0,0,0,.15.17.17,0,0,0,0,.14.2.2,0,0,0,0,.21l-1.24-.72a.84.84,0,0,0-.74,0l-4.45,2.57a.54.54,0,0,0-.11.41.17.17,0,0,0,0,.14.2.2,0,0,0,0,.15.2.2,0,0,0,0,.15.19.19,0,0,0,0,.15.17.17,0,0,0,0,.14.2.2,0,0,0,0,.15.2.2,0,0,0,0,.15.19.19,0,0,0,0,.15.17.17,0,0,0,0,.14c-.05.11,0,.23.16.32l5.54,3.2a.81.81,0,0,0,.74,0l4.45-2.57a.21.21,0,0,0,.11-.26.17.17,0,0,0,0-.14.19.19,0,0,0,0-.15.19.19,0,0,0,0-.15.19.19,0,0,0,0-.15.17.17,0,0,0,0-.14.19.19,0,0,0,0-.15.19.19,0,0,0,0-.15.17.17,0,0,0,0-.14.19.19,0,0,0,0-.15.19.19,0,0,0,0-.15.19.19,0,0,0,0-.2l1.24.71a.81.81,0,0,0,.74,0l4.45-2.57a1.81,1.81,0,0,0,.11-.7.17.17,0,0,0,0-.14.19.19,0,0,0,0-.15.19.19,0,0,0,0-.15.19.19,0,0,0,0-.15.17.17,0,0,0,0-.14.19.19,0,0,0,0-.15.19.19,0,0,0,0-.15.19.19,0,0,0,0-.2l1.24.71a.81.81,0,0,0,.74,0l4.45-2.57a1.81,1.81,0,0,0,.11-.7.17.17,0,0,0,0-.14.19.19,0,0,0,0-.15.19.19,0,0,0,0-.15.19.19,0,0,0,0-.15.17.17,0,0,0,0-.14.19.19,0,0,0,0-.15.19.19,0,0,0,0-.15.19.19,0,0,0,0-.2l1.24.71a.81.81,0,0,0,.74,0l4.45-2.57a1.06,1.06,0,0,0,.11-.55.17.17,0,0,0,0-.14.2.2,0,0,0,0-.15.2.2,0,0,0,0-.15.19.19,0,0,0,0-.15.17.17,0,0,0,0-.14.2.2,0,0,0,0-.15.19.19,0,0,0,0-.15.2.2,0,0,0,0-.15c.05-.1,0-.22-.16-.32l-5.54-3.19a.84.84,0,0,0-.74,0l-4.45,2.58a1.06,1.06,0,0,0-.11.55.17.17,0,0,0,0,.14.2.2,0,0,0,0,.15.2.2,0,0,0,0,.15.19.19,0,0,0,0,.15.17.17,0,0,0,0,.14.19.19,0,0,0,0,.15.2.2,0,0,0,0,.15.19.19,0,0,0,0,.15A.19.19,0,0,0,247.8,176.57Z"/><path class="cls-8" d="M220.83,183.59l1.47.85a.81.81,0,0,0,.74,0l4.45-2.57c.12-.07.15-.16.11-.25a.19.19,0,0,0,0-.15.19.19,0,0,0,0-.15.19.19,0,0,0,0-.15.17.17,0,0,0,0-.14.19.19,0,0,0,0-.15.19.19,0,0,0,0-.15.19.19,0,0,0,0-.15.17.17,0,0,0,0-.14.19.19,0,0,0,0-.15.19.19,0,0,0,0-.15.19.19,0,0,0,0-.2l1.24.71a.81.81,0,0,0,.74,0l4.45-2.57a.19.19,0,0,0,.11-.25.19.19,0,0,0,0-.15.19.19,0,0,0,0-.15.19.19,0,0,0,0-.15.17.17,0,0,0,0-.14.19.19,0,0,0,0-.15.19.19,0,0,0,0-.15.17.17,0,0,0,0-.14.19.19,0,0,0,0-.15.19.19,0,0,0,0-.15.19.19,0,0,0,0-.15.19.19,0,0,0,0-.2l1.24.71a.81.81,0,0,0,.74,0l4.46-2.57a.19.19,0,0,0,.1-.25.19.19,0,0,0,0-.15.2.2,0,0,0,0-.15.17.17,0,0,0,0-.14.2.2,0,0,0,0-.15.2.2,0,0,0,0-.15.19.19,0,0,0,0-.15.17.17,0,0,0,0-.14.19.19,0,0,0,0-.15.19.19,0,0,0,0-.15.2.2,0,0,0,0-.15.19.19,0,0,0,0-.2l1.24.71a.84.84,0,0,0,.74,0l4.46-2.58a.19.19,0,0,0,.1-.25.2.2,0,0,0,0-.15.19.19,0,0,0,0-.15.17.17,0,0,0,0-.14.2.2,0,0,0,0-.15.2.2,0,0,0,0-.15.19.19,0,0,0,0-.15.17.17,0,0,0,0-.14.19.19,0,0,0,0-.15.2.2,0,0,0,0-.15.19.19,0,0,0,0-.15c.05-.1,0-.22-.16-.31l-1.47-.86a.84.84,0,0,0-.74,0l-4.45,2.58a.19.19,0,0,0-.11.25.19.19,0,0,0,0,.15.17.17,0,0,0,0,.14.19.19,0,0,0,0,.15.19.19,0,0,0,0,.15.2.2,0,0,0,0,.15.17.17,0,0,0,0,.14.2.2,0,0,0,0,.15.2.2,0,0,0,0,.15.19.19,0,0,0,0,.15.17.17,0,0,0,0,.14.2.2,0,0,0,0,.21l-1.24-.72a.84.84,0,0,0-.74,0L233.79,174a.2.2,0,0,0-.1.26.2.2,0,0,0,0,.15.17.17,0,0,0,0,.14.19.19,0,0,0,0,.15.2.2,0,0,0,0,.15.19.19,0,0,0,0,.15.17.17,0,0,0,0,.14.2.2,0,0,0,0,.15.2.2,0,0,0,0,.15.19.19,0,0,0,0,.15.17.17,0,0,0,0,.14.2.2,0,0,0,0,.21l-1.24-.72a.84.84,0,0,0-.74,0l-4.46,2.57a.2.2,0,0,0-.1.26.17.17,0,0,0,0,.14.2.2,0,0,0,0,.15.2.2,0,0,0,0,.15.2.2,0,0,0,0,.15.17.17,0,0,0,0,.14.2.2,0,0,0,0,.15.2.2,0,0,0,0,.15.2.2,0,0,0,0,.15.17.17,0,0,0,0,.14.2.2,0,0,0,0,.15.2.2,0,0,0,0,.21L226,179a.81.81,0,0,0-.74,0l-4.46,2.57a.2.2,0,0,0-.1.26.14.14,0,0,0,0,.14.16.16,0,0,0,0,.15.16.16,0,0,0,0,.15.16.16,0,0,0,0,.15.14.14,0,0,0,0,.14.16.16,0,0,0,0,.15.16.16,0,0,0,0,.15.16.16,0,0,0,0,.15.14.14,0,0,0,0,.14.16.16,0,0,0,0,.15C220.62,183.37,220.67,183.5,220.83,183.59Z"/><path class="cls-8" d="M141.53,227l5.54,3.2a.81.81,0,0,0,.74,0l4.46-2.57a.19.19,0,0,0,.1-.25.2.2,0,0,0,0-.15.2.2,0,0,0,0-.15.19.19,0,0,0,0-.15.17.17,0,0,0,0-.14.19.19,0,0,0,0-.15.2.2,0,0,0,0-.15.2.2,0,0,0,0-.15.17.17,0,0,0,0-.14.2.2,0,0,0,0-.15.19.19,0,0,0,0-.15.19.19,0,0,0,0-.2l1.24.71a.81.81,0,0,0,.74,0l4.46-2.57a.19.19,0,0,0,.1-.25.2.2,0,0,0,0-.15.2.2,0,0,0,0-.15.19.19,0,0,0,0-.15.17.17,0,0,0,0-.14.2.2,0,0,0,0-.15.2.2,0,0,0,0-.15.17.17,0,0,0,0-.14.2.2,0,0,0,0-.15.2.2,0,0,0,0-.15.2.2,0,0,0,0-.15.21.21,0,0,0,0-.2l1.23.71a.81.81,0,0,0,.74,0l4.46-2.57a.19.19,0,0,0,.1-.25.16.16,0,0,0,0-.15.16.16,0,0,0,0-.15.14.14,0,0,0,0-.14.16.16,0,0,0,0-.15.16.16,0,0,0,0-.15.16.16,0,0,0,0-.15.14.14,0,0,0,0-.14.16.16,0,0,0,0-.15.16.16,0,0,0,0-.15.16.16,0,0,0,0-.15.19.19,0,0,0,0-.2l1.23.71a.84.84,0,0,0,.74,0l4.46-2.58a.19.19,0,0,0,.1-.25.16.16,0,0,0,0-.15.16.16,0,0,0,0-.15.14.14,0,0,0,0-.14.16.16,0,0,0,0-.15.16.16,0,0,0,0-.15s0-.09,0-.15a.14.14,0,0,0,0-.14.16.16,0,0,0,0-.15.16.16,0,0,0,0-.15s0-.09,0-.15,0-.22-.16-.31l-5.54-3.2a.79.79,0,0,0-.73,0L161,213.7a.19.19,0,0,0-.1.25.16.16,0,0,0,0,.15.16.16,0,0,0,0,.15.14.14,0,0,0,0,.14.16.16,0,0,0,0,.15.16.16,0,0,0,0,.15.16.16,0,0,0,0,.15.14.14,0,0,0,0,.14.16.16,0,0,0,0,.15.16.16,0,0,0,0,.15.16.16,0,0,0,0,.15.17.17,0,0,0,0,.2l-1.24-.71a.79.79,0,0,0-.73,0l-4.46,2.57a.19.19,0,0,0-.1.25.16.16,0,0,0,0,.15.16.16,0,0,0,0,.15.14.14,0,0,0,0,.14.16.16,0,0,0,0,.15.16.16,0,0,0,0,.15.16.16,0,0,0,0,.15.14.14,0,0,0,0,.14.16.16,0,0,0,0,.15.16.16,0,0,0,0,.15.16.16,0,0,0,0,.15.17.17,0,0,0,0,.2l-1.24-.72a.82.82,0,0,0-.73,0L148,221.22a.19.19,0,0,0-.1.25.16.16,0,0,0,0,.15.16.16,0,0,0,0,.15.14.14,0,0,0,0,.14.16.16,0,0,0,0,.15.16.16,0,0,0,0,.15s0,.09,0,.15a.14.14,0,0,0,0,.14.16.16,0,0,0,0,.15.16.16,0,0,0,0,.15s0,.09,0,.15a.17.17,0,0,0,0,.2l-1.24-.72a.84.84,0,0,0-.74,0L141.48,225a.2.2,0,0,0-.11.25.2.2,0,0,0,0,.15.17.17,0,0,0,0,.14.19.19,0,0,0,0,.15.2.2,0,0,0,0,.15.2.2,0,0,0,0,.15.17.17,0,0,0,0,.14.2.2,0,0,0,0,.15.2.2,0,0,0,0,.15.2.2,0,0,0,0,.15.17.17,0,0,0,0,.14C141.32,226.81,141.37,226.93,141.53,227Z"/><path class="cls-8" d="M170.41,210.35l5.54,3.2a.81.81,0,0,0,.74,0l4.45-2.57a.2.2,0,0,0,.11-.26.17.17,0,0,0,0-.14.19.19,0,0,0,0-.15.19.19,0,0,0,0-.15.17.17,0,0,0,0-.14.19.19,0,0,0,0-.15.19.19,0,0,0,0-.15.19.19,0,0,0,0-.15.17.17,0,0,0,0-.14.19.19,0,0,0,0-.15.19.19,0,0,0,0-.15.19.19,0,0,0,0-.2l1.24.71a.81.81,0,0,0,.74,0l4.45-2.57a1.81,1.81,0,0,0,.11-.7.17.17,0,0,0,0-.14.19.19,0,0,0,0-.15.19.19,0,0,0,0-.15.19.19,0,0,0,0-.15.17.17,0,0,0,0-.14.19.19,0,0,0,0-.15.19.19,0,0,0,0-.15.19.19,0,0,0,0-.2L189,206a.81.81,0,0,0,.74,0l4.45-2.57a1.81,1.81,0,0,0,.11-.7.17.17,0,0,0,0-.14.19.19,0,0,0,0-.15.19.19,0,0,0,0-.15.19.19,0,0,0,0-.15.17.17,0,0,0,0-.14.19.19,0,0,0,0-.15.19.19,0,0,0,0-.15.19.19,0,0,0,0-.2l1.24.71a.81.81,0,0,0,.74,0l4.45-2.57a1.06,1.06,0,0,0,.11-.55.17.17,0,0,0,0-.14.19.19,0,0,0,0-.15.19.19,0,0,0,0-.15.19.19,0,0,0,0-.15.17.17,0,0,0,0-.14.19.19,0,0,0,0-.15.19.19,0,0,0,0-.15.19.19,0,0,0,0-.15c.05-.1,0-.22-.16-.32l-5.54-3.19a.84.84,0,0,0-.74,0L189.89,197a1.06,1.06,0,0,0-.11.55.17.17,0,0,0,0,.14.2.2,0,0,0,0,.15.2.2,0,0,0,0,.15.19.19,0,0,0,0,.15.17.17,0,0,0,0,.14.2.2,0,0,0,0,.15.2.2,0,0,0,0,.15.2.2,0,0,0,0,.15.19.19,0,0,0,0,.2l-1.24-.72a.84.84,0,0,0-.74,0l-4.45,2.58a1.06,1.06,0,0,0-.11.55.17.17,0,0,0,0,.14.2.2,0,0,0,0,.15.2.2,0,0,0,0,.15.17.17,0,0,0,0,.14.2.2,0,0,0,0,.15.2.2,0,0,0,0,.15.2.2,0,0,0,0,.15.17.17,0,0,0,0,.14.2.2,0,0,0,0,.21l-1.24-.72a.84.84,0,0,0-.74,0l-4.45,2.57a.2.2,0,0,0-.11.26.2.2,0,0,0,0,.15.17.17,0,0,0,0,.14.2.2,0,0,0,0,.15.2.2,0,0,0,0,.15.2.2,0,0,0,0,.15.17.17,0,0,0,0,.14.2.2,0,0,0,0,.15.2.2,0,0,0,0,.15.2.2,0,0,0,0,.15.17.17,0,0,0,0,.14.2.2,0,0,0,0,.21l-1.24-.72a.84.84,0,0,0-.74,0l-4.45,2.57a.54.54,0,0,0-.11.41.17.17,0,0,0,0,.14.2.2,0,0,0,0,.15.2.2,0,0,0,0,.15.19.19,0,0,0,0,.15.17.17,0,0,0,0,.14.2.2,0,0,0,0,.15.2.2,0,0,0,0,.15.17.17,0,0,0,0,.14.2.2,0,0,0,0,.15C170.2,210.14,170.25,210.26,170.41,210.35Z"/><path class="cls-8" d="M290.42,193.89c.06-.1,0-.23-.16-.32l-13.45-7.77a.84.84,0,0,0-.74,0l-4.45,2.57a.2.2,0,0,0-.11.26.19.19,0,0,0,0,.15.17.17,0,0,0,0,.14.2.2,0,0,0,0,.15.2.2,0,0,0,0,.15.19.19,0,0,0,0,.15.17.17,0,0,0,0,.14.2.2,0,0,0,0,.15.2.2,0,0,0,0,.15.17.17,0,0,0,0,.14.2.2,0,0,0,0,.15.2.2,0,0,0,0,.21l-1.24-.72a.84.84,0,0,0-.74,0l-4.45,2.57a.2.2,0,0,0-.11.26.17.17,0,0,0,0,.14.2.2,0,0,0,0,.15.2.2,0,0,0,0,.15.2.2,0,0,0,0,.15.17.17,0,0,0,0,.14.2.2,0,0,0,0,.15.2.2,0,0,0,0,.15.2.2,0,0,0,0,.15.17.17,0,0,0,0,.14.2.2,0,0,0,0,.15.2.2,0,0,0,0,.21l-1.24-.72a.81.81,0,0,0-.74,0l-4.45,2.57a.2.2,0,0,0-.11.26.17.17,0,0,0,0,.14.2.2,0,0,0,0,.15.2.2,0,0,0,0,.15.2.2,0,0,0,0,.15.17.17,0,0,0,0,.14.2.2,0,0,0,0,.15.2.2,0,0,0,0,.15.19.19,0,0,0,0,.15.17.17,0,0,0,0,.14.2.2,0,0,0,0,.15.19.19,0,0,0,0,.2l-1.24-.71a.81.81,0,0,0-.74,0l-4.45,2.57c-.12.07-.15.16-.11.25a.2.2,0,0,0,0,.15.2.2,0,0,0,0,.15.2.2,0,0,0,0,.15.17.17,0,0,0,0,.14.2.2,0,0,0,0,.15.2.2,0,0,0,0,.15.2.2,0,0,0,0,.15.17.17,0,0,0,0,.14.2.2,0,0,0,0,.15.2.2,0,0,0,0,.15c0,.1,0,.23.16.32l5.54,3.2a.84.84,0,0,0,.74,0l4.45-2.57a.21.21,0,0,0,.11-.26.19.19,0,0,0,0-.15.17.17,0,0,0,0-.14.19.19,0,0,0,0-.15.19.19,0,0,0,0-.15.19.19,0,0,0,0-.15.17.17,0,0,0,0-.14.19.19,0,0,0,0-.15.19.19,0,0,0,0-.15.19.19,0,0,0,0-.15.17.17,0,0,0,0-.14.2.2,0,0,0,0-.21l1.24.72a.84.84,0,0,0,.74,0l4.45-2.57a.2.2,0,0,0,.11-.26.17.17,0,0,0,0-.14.19.19,0,0,0,0-.15.19.19,0,0,0,0-.15.19.19,0,0,0,0-.15.17.17,0,0,0,0-.14.19.19,0,0,0,0-.15.19.19,0,0,0,0-.15.19.19,0,0,0,0-.15.17.17,0,0,0,0-.14.19.19,0,0,0,0-.15.2.2,0,0,0,0-.21l1.24.72a.81.81,0,0,0,.74,0l4.45-2.57a.2.2,0,0,0,.11-.26.17.17,0,0,0,0-.14.19.19,0,0,0,0-.15.19.19,0,0,0,0-.15.19.19,0,0,0,0-.15.17.17,0,0,0,0-.14.19.19,0,0,0,0-.15.19.19,0,0,0,0-.15.19.19,0,0,0,0-.15.17.17,0,0,0,0-.14.19.19,0,0,0,0-.15.18.18,0,0,0,0-.2l2.12,1.22a.76.76,0,0,0-.61,0L273,196.67a.2.2,0,0,0-.1.26.14.14,0,0,0,0,.14.16.16,0,0,0,0,.15.16.16,0,0,0,0,.15.16.16,0,0,0,0,.15.14.14,0,0,0,0,.14.16.16,0,0,0,0,.15.16.16,0,0,0,0,.15.16.16,0,0,0,0,.15.14.14,0,0,0,0,.14.16.16,0,0,0,0,.15.17.17,0,0,0,0,.2l-1.24-.71a.81.81,0,0,0-.74,0l-11,6.33a.21.21,0,0,0-.11.25.19.19,0,0,0,0,.15.2.2,0,0,0,0,.15.19.19,0,0,0,0,.15.17.17,0,0,0,0,.14.2.2,0,0,0,0,.15.2.2,0,0,0,0,.15.19.19,0,0,0,0,.15.17.17,0,0,0,0,.14.2.2,0,0,0,0,.15.2.2,0,0,0,0,.15c-.05.1,0,.23.16.32l5.54,3.2a.84.84,0,0,0,.74,0l11-6.33a.2.2,0,0,0,.1-.26.19.19,0,0,0,0-.15.17.17,0,0,0,0-.14.19.19,0,0,0,0-.15.2.2,0,0,0,0-.15.2.2,0,0,0,0-.15.17.17,0,0,0,0-.14.2.2,0,0,0,0-.15.19.19,0,0,0,0-.15.19.19,0,0,0,0-.15.17.17,0,0,0,0-.14.23.23,0,0,0,0-.21l1.23.72a.84.84,0,0,0,.74,0l4.46-2.57a.2.2,0,0,0,.1-.26.14.14,0,0,0,0-.14.16.16,0,0,0,0-.15.16.16,0,0,0,0-.15.16.16,0,0,0,0-.15.14.14,0,0,0,0-.14.16.16,0,0,0,0-.15.16.16,0,0,0,0-.15.16.16,0,0,0,0-.15.14.14,0,0,0,0-.14.16.16,0,0,0,0-.15.2.2,0,0,0,0-.21l1.23.72a.81.81,0,0,0,.74,0l4.46-2.57a.2.2,0,0,0,.1-.26.14.14,0,0,0,0-.14.16.16,0,0,0,0-.15.16.16,0,0,0,0-.15.16.16,0,0,0,0-.15.14.14,0,0,0,0-.14.16.16,0,0,0,0-.15.16.16,0,0,0,0-.15.16.16,0,0,0,0-.15.14.14,0,0,0,0-.14A.16.16,0,0,0,290.42,193.89Z"/><path class="cls-8" d="M242,221.47l-5.54-3.2a.81.81,0,0,0-.74,0l-6.85,3.95a.2.2,0,0,0-.11.26.17.17,0,0,0,0,.14.2.2,0,0,0,0,.15.2.2,0,0,0,0,.15.2.2,0,0,0,0,.15.17.17,0,0,0,0,.14.2.2,0,0,0,0,.15.2.2,0,0,0,0,.15.2.2,0,0,0,0,.15.17.17,0,0,0,0,.14.19.19,0,0,0,0,.15.2.2,0,0,0,0,.21l-1.24-.72a.81.81,0,0,0-.74,0l-5.48,3.17a.52.52,0,0,0-.11.4.17.17,0,0,0,0,.14.19.19,0,0,0,0,.15.19.19,0,0,0,0,.15.19.19,0,0,0,0,.15.17.17,0,0,0,0,.14.19.19,0,0,0,0,.15.19.19,0,0,0,0,.15.19.19,0,0,0,0,.15.17.17,0,0,0,0,.14.2.2,0,0,0,0,.21l-1.24-.72a.84.84,0,0,0-.74,0l-5.48,3.17a1.06,1.06,0,0,0-.11.55.17.17,0,0,0,0,.14.2.2,0,0,0,0,.15.19.19,0,0,0,0,.15.2.2,0,0,0,0,.15.17.17,0,0,0,0,.14.2.2,0,0,0,0,.15.19.19,0,0,0,0,.15.19.19,0,0,0,0,.15.19.19,0,0,0,0,.2l-1.24-.71a.81.81,0,0,0-.74,0l-5.48,3.16a.2.2,0,0,0-.1.26.14.14,0,0,0,0,.14.16.16,0,0,0,0,.15.16.16,0,0,0,0,.15.14.14,0,0,0,0,.14.16.16,0,0,0,0,.15.16.16,0,0,0,0,.15.16.16,0,0,0,0,.15.14.14,0,0,0,0,.14.16.16,0,0,0,0,.15.16.16,0,0,0,0,.15.17.17,0,0,0,0,.2l-1.24-.71a.81.81,0,0,0-.74,0l-36.66,21.17a1.06,1.06,0,0,0-.11.55.17.17,0,0,0,0,.14.19.19,0,0,0,0,.15.2.2,0,0,0,0,.15.19.19,0,0,0,0,.15.17.17,0,0,0,0,.14.2.2,0,0,0,0,.15.19.19,0,0,0,0,.15.19.19,0,0,0,0,.15.19.19,0,0,0,0,.2l-1.24-.72a.84.84,0,0,0-.74,0L159.94,262a.21.21,0,0,0-.11.25.2.2,0,0,0,0,.15.2.2,0,0,0,0,.15.19.19,0,0,0,0,.15.17.17,0,0,0,0,.14.2.2,0,0,0,0,.15.2.2,0,0,0,0,.15.19.19,0,0,0,0,.15.17.17,0,0,0,0,.14.2.2,0,0,0,0,.15.2.2,0,0,0,0,.15.19.19,0,0,0,0,.2l-1.24-.71a.81.81,0,0,0-.74,0l-5.48,3.16a.2.2,0,0,0-.1.26.14.14,0,0,0,0,.14.16.16,0,0,0,0,.15.16.16,0,0,0,0,.15.16.16,0,0,0,0,.15.14.14,0,0,0,0,.14.16.16,0,0,0,0,.15.16.16,0,0,0,0,.15.16.16,0,0,0,0,.15.14.14,0,0,0,0,.14.16.16,0,0,0,0,.15.17.17,0,0,0,0,.2l-1.24-.71a.81.81,0,0,0-.74,0l-6.85,4a.19.19,0,0,0-.1.25.16.16,0,0,0,0,.15.14.14,0,0,0,0,.14.16.16,0,0,0,0,.15.16.16,0,0,0,0,.15.16.16,0,0,0,0,.15.14.14,0,0,0,0,.14.16.16,0,0,0,0,.15.16.16,0,0,0,0,.15.16.16,0,0,0,0,.15.14.14,0,0,0,0,.14c-.06.11,0,.23.15.32l5.54,3.2a.81.81,0,0,0,.74,0l6.86-4a.2.2,0,0,0,.1-.26.19.19,0,0,0,0-.15.17.17,0,0,0,0-.14.19.19,0,0,0,0-.15.19.19,0,0,0,0-.15.19.19,0,0,0,0-.15.17.17,0,0,0,0-.14.19.19,0,0,0,0-.15.2.2,0,0,0,0-.15.19.19,0,0,0,0-.15.17.17,0,0,0,0-.14.2.2,0,0,0,0-.21l1.24.72a.84.84,0,0,0,.74,0l5.48-3.17a.19.19,0,0,0,.11-.25.2.2,0,0,0,0-.15.19.19,0,0,0,0-.15.17.17,0,0,0,0-.14.2.2,0,0,0,0-.15.2.2,0,0,0,0-.15.19.19,0,0,0,0-.15.17.17,0,0,0,0-.14.2.2,0,0,0,0-.15.2.2,0,0,0,0-.15.19.19,0,0,0,0-.15.19.19,0,0,0,0-.2l1.24.72a.84.84,0,0,0,.74,0l5.48-3.17a1.81,1.81,0,0,0,.11-.7.17.17,0,0,0,0-.14.2.2,0,0,0,0-.15.2.2,0,0,0,0-.15.19.19,0,0,0,0-.15.17.17,0,0,0,0-.14.2.2,0,0,0,0-.15.2.2,0,0,0,0-.15.19.19,0,0,0,0-.2l1.24.71a.81.81,0,0,0,.74,0l36.67-21.17a.19.19,0,0,0,.1-.25.2.2,0,0,0,0-.15.17.17,0,0,0,0-.14.2.2,0,0,0,0-.15.2.2,0,0,0,0-.15.2.2,0,0,0,0-.15.17.17,0,0,0,0-.14.2.2,0,0,0,0-.15.2.2,0,0,0,0-.15.2.2,0,0,0,0-.15.17.17,0,0,0,0-.14.2.2,0,0,0,0-.21l1.24.72a.84.84,0,0,0,.74,0l5.48-3.17a.19.19,0,0,0,.11-.25.19.19,0,0,0,0-.15.2.2,0,0,0,0-.15.17.17,0,0,0,0-.14.2.2,0,0,0,0-.15.2.2,0,0,0,0-.15.19.19,0,0,0,0-.15.17.17,0,0,0,0-.14.19.19,0,0,0,0-.15.2.2,0,0,0,0-.15.2.2,0,0,0,0-.15.19.19,0,0,0,0-.2l1.24.71a.84.84,0,0,0,.74,0l5.48-3.17a1.81,1.81,0,0,0,.11-.7.17.17,0,0,0,0-.14.2.2,0,0,0,0-.15.2.2,0,0,0,0-.15.19.19,0,0,0,0-.15.17.17,0,0,0,0-.14.19.19,0,0,0,0-.15.2.2,0,0,0,0-.15.19.19,0,0,0,0-.2l1.24.71a.81.81,0,0,0,.74,0l5.48-3.16a.2.2,0,0,0,.11-.26.17.17,0,0,0,0-.14.19.19,0,0,0,0-.15.19.19,0,0,0,0-.15.19.19,0,0,0,0-.15.17.17,0,0,0,0-.14.19.19,0,0,0,0-.15.19.19,0,0,0,0-.15.19.19,0,0,0,0-.15.17.17,0,0,0,0-.14.19.19,0,0,0,0-.15.2.2,0,0,0,0-.21l1.24.72a.81.81,0,0,0,.74,0l6.85-4a.2.2,0,0,0,.11-.25.2.2,0,0,0,0-.15.19.19,0,0,0,0-.15.17.17,0,0,0,0-.14.19.19,0,0,0,0-.15.2.2,0,0,0,0-.15.19.19,0,0,0,0-.15.17.17,0,0,0,0-.14.19.19,0,0,0,0-.15.19.19,0,0,0,0-.15.19.19,0,0,0,0-.15C242.16,221.68,242.11,221.56,242,221.47Z"/><path class="cls-8" d="M248.43,208.59l-5.54-3.2a.81.81,0,0,0-.74,0l-4.46,2.57a.19.19,0,0,0-.1.25.2.2,0,0,0,0,.15.2.2,0,0,0,0,.15.2.2,0,0,0,0,.15.17.17,0,0,0,0,.14.2.2,0,0,0,0,.15.2.2,0,0,0,0,.15.19.19,0,0,0,0,.15.17.17,0,0,0,0,.14.19.19,0,0,0,0,.15.19.19,0,0,0,0,.15c-.05.1,0,.23.16.32l5.54,3.2a.82.82,0,0,0,.73,0l4.46-2.57a.2.2,0,0,0,.1-.26.16.16,0,0,0,0-.15.14.14,0,0,0,0-.14.16.16,0,0,0,0-.15.16.16,0,0,0,0-.15.16.16,0,0,0,0-.15.14.14,0,0,0,0-.14.16.16,0,0,0,0-.15.16.16,0,0,0,0-.15.16.16,0,0,0,0-.15.14.14,0,0,0,0-.14C248.64,208.8,248.58,208.68,248.43,208.59Z"/><path class="cls-8" d="M262.85,209.4l-5.54-3.2a.81.81,0,0,0-.74,0l-4.45,2.57a1.81,1.81,0,0,0-.11.7.17.17,0,0,0,0,.14.19.19,0,0,0,0,.15.19.19,0,0,0,0,.15.2.2,0,0,0,0,.15.17.17,0,0,0,0,.14.2.2,0,0,0,0,.15.19.19,0,0,0,0,.15.19.19,0,0,0,0,.2L250.8,210a.81.81,0,0,0-.74,0l-4.45,2.57a1.81,1.81,0,0,0-.11.7.17.17,0,0,0,0,.14.2.2,0,0,0,0,.15.2.2,0,0,0,0,.15.19.19,0,0,0,0,.15.17.17,0,0,0,0,.14.2.2,0,0,0,0,.15.2.2,0,0,0,0,.15.19.19,0,0,0,0,.2l-1.24-.71a.81.81,0,0,0-.74,0l-4.45,2.57a.19.19,0,0,0-.11.25.2.2,0,0,0,0,.15.2.2,0,0,0,0,.15.17.17,0,0,0,0,.14.2.2,0,0,0,0,.15.2.2,0,0,0,0,.15.2.2,0,0,0,0,.15.17.17,0,0,0,0,.14.2.2,0,0,0,0,.15.2.2,0,0,0,0,.15.2.2,0,0,0,0,.15c-.05.1,0,.22.16.32l5.54,3.19a.84.84,0,0,0,.74,0l4.45-2.58a1.06,1.06,0,0,0,.11-.55.17.17,0,0,0,0-.14.2.2,0,0,0,0-.15.19.19,0,0,0,0-.15.19.19,0,0,0,0-.15.17.17,0,0,0,0-.14.2.2,0,0,0,0-.15.2.2,0,0,0,0-.15.19.19,0,0,0,0-.15.19.19,0,0,0,0-.2l1.24.72a.84.84,0,0,0,.74,0l4.45-2.58a.52.52,0,0,0,.11-.4.17.17,0,0,0,0-.14.19.19,0,0,0,0-.15.2.2,0,0,0,0-.15.19.19,0,0,0,0-.15.17.17,0,0,0,0-.14.19.19,0,0,0,0-.15.2.2,0,0,0,0-.15.2.2,0,0,0,0-.15.17.17,0,0,0,0-.14.2.2,0,0,0,0-.21l1.24.72a.84.84,0,0,0,.74,0l4.45-2.57a.2.2,0,0,0,.11-.26.2.2,0,0,0,0-.15.17.17,0,0,0,0-.14.2.2,0,0,0,0-.15.2.2,0,0,0,0-.15.19.19,0,0,0,0-.15.17.17,0,0,0,0-.14.2.2,0,0,0,0-.15.19.19,0,0,0,0-.15.2.2,0,0,0,0-.15.17.17,0,0,0,0-.14C263.06,209.61,263,209.49,262.85,209.4Z"/><path class="cls-8" d="M255.69,179.46a.16.16,0,0,0,0,.15.14.14,0,0,0,0,.14.16.16,0,0,0,0,.15.16.16,0,0,0,0,.15.16.16,0,0,0,0,.15.14.14,0,0,0,0,.14.16.16,0,0,0,0,.15.16.16,0,0,0,0,.15.16.16,0,0,0,0,.15.14.14,0,0,0,0,.14.18.18,0,0,0,0,.21l-1.24-.72a.84.84,0,0,0-.74,0L249.28,183a.2.2,0,0,0-.1.26.16.16,0,0,0,0,.15.14.14,0,0,0,0,.14.16.16,0,0,0,0,.15.16.16,0,0,0,0,.15.16.16,0,0,0,0,.15.14.14,0,0,0,0,.14.16.16,0,0,0,0,.15.16.16,0,0,0,0,.15.16.16,0,0,0,0,.15.14.14,0,0,0,0,.14.18.18,0,0,0,0,.21l-1.24-.72a.84.84,0,0,0-.74,0l-4.45,2.57a.21.21,0,0,0-.11.26.19.19,0,0,0,0,.15.17.17,0,0,0,0,.14.2.2,0,0,0,0,.15.2.2,0,0,0,0,.15.19.19,0,0,0,0,.15.17.17,0,0,0,0,.14.2.2,0,0,0,0,.15.2.2,0,0,0,0,.15.19.19,0,0,0,0,.15.17.17,0,0,0,0,.14.2.2,0,0,0,0,.21l-1.24-.72a.84.84,0,0,0-.74,0l-4.45,2.57a.2.2,0,0,0-.11.26.17.17,0,0,0,0,.14.2.2,0,0,0,0,.15.2.2,0,0,0,0,.15.2.2,0,0,0,0,.15.17.17,0,0,0,0,.14.2.2,0,0,0,0,.15.2.2,0,0,0,0,.15.19.19,0,0,0,0,.15.17.17,0,0,0,0,.14.2.2,0,0,0,0,.15c-.05.11,0,.23.16.32l5.54,3.2a.81.81,0,0,0,.74,0l4.45-2.57a.2.2,0,0,0,.11-.26.17.17,0,0,0,0-.14.19.19,0,0,0,0-.15.19.19,0,0,0,0-.15.19.19,0,0,0,0-.15.17.17,0,0,0,0-.14.19.19,0,0,0,0-.15.19.19,0,0,0,0-.15.19.19,0,0,0,0-.15.17.17,0,0,0,0-.14.19.19,0,0,0,0-.15.18.18,0,0,0,0-.2l1.24.71a.81.81,0,0,0,.74,0l4.45-2.57a.2.2,0,0,0,.11-.26.17.17,0,0,0,0-.14.19.19,0,0,0,0-.15.19.19,0,0,0,0-.15.19.19,0,0,0,0-.15.17.17,0,0,0,0-.14.19.19,0,0,0,0-.15.19.19,0,0,0,0-.15.19.19,0,0,0,0-.15.17.17,0,0,0,0-.14.19.19,0,0,0,0-.15.19.19,0,0,0,0-.2l1.24.71a.81.81,0,0,0,.74,0l4.46-2.57a.19.19,0,0,0,.1-.25.19.19,0,0,0,0-.15.19.19,0,0,0,0-.15.19.19,0,0,0,0-.15.17.17,0,0,0,0-.14.19.19,0,0,0,0-.15.19.19,0,0,0,0-.15.19.19,0,0,0,0-.15.17.17,0,0,0,0-.14.19.19,0,0,0,0-.15.19.19,0,0,0,0-.15.19.19,0,0,0,0-.2l2.12,1.22a.76.76,0,0,0-.61,0l-4.46,2.57a.2.2,0,0,0-.1.26.19.19,0,0,0,0,.15.17.17,0,0,0,0,.14.2.2,0,0,0,0,.15.2.2,0,0,0,0,.15.19.19,0,0,0,0,.15.17.17,0,0,0,0,.14.2.2,0,0,0,0,.15.2.2,0,0,0,0,.15.19.19,0,0,0,0,.15.17.17,0,0,0,0,.14.23.23,0,0,0,0,.21l-1.23-.72a.84.84,0,0,0-.74,0l-4.46,2.57a.2.2,0,0,0-.1.26.14.14,0,0,0,0,.14.16.16,0,0,0,0,.15.16.16,0,0,0,0,.15.16.16,0,0,0,0,.15.14.14,0,0,0,0,.14.16.16,0,0,0,0,.15.16.16,0,0,0,0,.15.16.16,0,0,0,0,.15.14.14,0,0,0,0,.14.16.16,0,0,0,0,.15.2.2,0,0,0,0,.21l-1.23-.72a.81.81,0,0,0-.74,0l-4.46,2.57a.2.2,0,0,0-.1.26.14.14,0,0,0,0,.14.16.16,0,0,0,0,.15.16.16,0,0,0,0,.15.16.16,0,0,0,0,.15.14.14,0,0,0,0,.14.16.16,0,0,0,0,.15.16.16,0,0,0,0,.15.16.16,0,0,0,0,.15.14.14,0,0,0,0,.14.16.16,0,0,0,0,.15c-.06.1,0,.23.16.32l5.53,3.2a.84.84,0,0,0,.74,0l4.46-2.57a.2.2,0,0,0,.1-.26.14.14,0,0,0,0-.14.16.16,0,0,0,0-.15.16.16,0,0,0,0-.15.16.16,0,0,0,0-.15.14.14,0,0,0,0-.14.16.16,0,0,0,0-.15.16.16,0,0,0,0-.15.16.16,0,0,0,0-.15.14.14,0,0,0,0-.14.16.16,0,0,0,0-.15.18.18,0,0,0,0-.21l1.24.72a.79.79,0,0,0,.73,0l4.46-2.57a.2.2,0,0,0,.1-.26.14.14,0,0,0,0-.14.16.16,0,0,0,0-.15.16.16,0,0,0,0-.15.16.16,0,0,0,0-.15.14.14,0,0,0,0-.14.16.16,0,0,0,0-.15.16.16,0,0,0,0-.15.16.16,0,0,0,0-.15.14.14,0,0,0,0-.14.16.16,0,0,0,0-.15.17.17,0,0,0,0-.2l1.24.71a.79.79,0,0,0,.73,0l4.46-2.57a.2.2,0,0,0,.1-.26.14.14,0,0,0,0-.14.16.16,0,0,0,0-.15.16.16,0,0,0,0-.15s0-.09,0-.15a.14.14,0,0,0,0-.14.16.16,0,0,0,0-.15.16.16,0,0,0,0-.15.14.14,0,0,0,0-.14.16.16,0,0,0,0-.15.16.16,0,0,0,0-.15.17.17,0,0,0,0-.2l1.24.71a.81.81,0,0,0,.74,0l4.45-2.57a.21.21,0,0,0,.11-.25.26.26,0,0,0,0-.15.26.26,0,0,0,0-.15.26.26,0,0,0,0-.15.22.22,0,0,0,0-.14.26.26,0,0,0,0-.15.26.26,0,0,0,0-.15.26.26,0,0,0,0-.15.22.22,0,0,0,0-.14.26.26,0,0,0,0-.15.26.26,0,0,0,0-.15c0-.1,0-.23-.16-.32L261,176.66a.82.82,0,0,0-.73,0l-4.46,2.58A.19.19,0,0,0,255.69,179.46Z"/><path class="cls-5" d="M228.2,202.45l4.45-2.57c.19-.11.17-.3-.05-.43l-5.54-3.2a.81.81,0,0,0-.74,0l-4.45,2.57c-.19.11-.17.3,0,.43l5.54,3.2A.84.84,0,0,0,228.2,202.45Z"/><path class="cls-5" d="M218.41,191.65,214,194.22c-.19.11-.16.3.06.43l5.54,3.2a.82.82,0,0,0,.73,0l4.46-2.57c.19-.11.16-.3-.05-.43l-5.54-3.2A.84.84,0,0,0,218.41,191.65Z"/><path class="cls-5" d="M204,200l-7.54,4.35c-.19.11-.17.3.05.43l5.54,3.2a.84.84,0,0,0,.74,0l7.54-4.35c.19-.11.16-.3-.06-.43l-5.54-3.2A.82.82,0,0,0,204,200Z"/><path class="cls-5" d="M211.9,195.41,207.44,198c-.19.11-.16.3.06.43l5.53,3.2a.84.84,0,0,0,.74,0l4.46-2.57c.19-.11.16-.3-.06-.43l-5.53-3.2A.81.81,0,0,0,211.9,195.41Z"/><path class="cls-5" d="M194.42,205.5,190,208.07c-.19.11-.17.3.05.43l5.54,3.2a.84.84,0,0,0,.74,0l4.45-2.57c.19-.11.17-.31-.05-.43l-5.54-3.2A.81.81,0,0,0,194.42,205.5Z"/><path class="cls-5" d="M187.91,209.26l-4.45,2.57c-.19.11-.17.3,0,.43l5.54,3.2a.84.84,0,0,0,.74,0l4.45-2.58c.19-.11.17-.3-.05-.42l-5.54-3.2A.81.81,0,0,0,187.91,209.26Z"/><path class="cls-5" d="M209.73,222.25l4.45-2.57c.19-.11.17-.3-.05-.43l-5.54-3.2a.84.84,0,0,0-.74,0l-4.46,2.57c-.18.11-.16.3.06.43l5.54,3.2A.81.81,0,0,0,209.73,222.25Z"/><path class="cls-5" d="M203.21,226l4.46-2.57c.19-.11.16-.3,0-.43l-5.54-3.2a.84.84,0,0,0-.74,0l-4.46,2.57c-.19.11-.16.3.06.43l5.54,3.2A.82.82,0,0,0,203.21,226Z"/><path class="cls-5" d="M196.7,229.77l4.46-2.57c.19-.11.16-.3,0-.43l-5.54-3.2a.84.84,0,0,0-.74,0l-4.46,2.57c-.19.11-.16.3.06.43l5.54,3.2A.82.82,0,0,0,196.7,229.77Z"/><path class="cls-5" d="M190.19,233.53l4.46-2.58c.19-.1.16-.3-.06-.42l-5.53-3.2a.81.81,0,0,0-.74,0l-4.46,2.57c-.19.11-.16.3.06.43l5.53,3.2A.84.84,0,0,0,190.19,233.53Z"/><path class="cls-5" d="M221.69,206.21l4.45-2.58c.19-.11.17-.3,0-.42l-5.54-3.2a.81.81,0,0,0-.74,0l-4.45,2.57c-.19.11-.17.3,0,.43l5.54,3.2A.84.84,0,0,0,221.69,206.21Z"/><path class="cls-5" d="M216.24,218.49l9.93-5.74c.19-.11.17-.3,0-.42l-13.45-7.77a.81.81,0,0,0-.74,0l-5.14,3c-.19.11-.17.3.05.42L214,212c.22.12.25.31.06.42l-4.11,2.38c-.19.11-.17.3.05.42l5.54,3.2A.81.81,0,0,0,216.24,218.49Z"/><path class="cls-5" d="M181.4,213l-4.46,2.57c-.19.11-.16.3.06.43l5.54,3.19a.84.84,0,0,0,.74,0l4.45-2.58c.19-.11.17-.3,0-.42l-5.54-3.2A.81.81,0,0,0,181.4,213Z"/><path class="cls-5" d="M174.89,216.78l-4.46,2.57c-.19.11-.16.3.06.43L176,223a.79.79,0,0,0,.73,0l4.46-2.57c.19-.11.16-.3-.05-.42l-5.54-3.2A.81.81,0,0,0,174.89,216.78Z"/><path class="cls-5" d="M143.88,259.81a.81.81,0,0,0,.74,0l4.45-2.57c.19-.11.17-.3,0-.43l-5.54-3.2a.84.84,0,0,0-.74,0l-4.45,2.57c-.19.11-.17.3.05.43Z"/><path class="cls-5" d="M122.8,246.85l-4.45,2.57c-.19.11-.17.3.05.43l5.54,3.2a.84.84,0,0,0,.74,0l4.45-2.58c.19-.11.17-.3,0-.42l-5.54-3.2A.81.81,0,0,0,122.8,246.85Z"/><path class="cls-5" d="M134.25,256.23a.81.81,0,0,0,.74,0l4.46-2.57c.18-.11.16-.3-.06-.43l-5.54-3.2a.84.84,0,0,0-.74,0l-4.45,2.57c-.19.11-.17.31.05.43Z"/><path class="cls-5" d="M156,262.43l4.45-2.57c.19-.11.17-.3,0-.43l-5.54-3.2a.84.84,0,0,0-.74,0l-4.45,2.58c-.19.1-.17.3.05.42l5.54,3.2A.81.81,0,0,0,156,262.43Z"/><path class="cls-5" d="M148.71,266.16a.84.84,0,0,0,.74,0l4.45-2.57c.19-.11.17-.3-.05-.43l-5.54-3.2a.84.84,0,0,0-.74,0l-4.45,2.57c-.19.11-.17.3,0,.43Z"/><path class="cls-5" d="M129.31,243.09l-4.45,2.57c-.19.11-.17.3,0,.43l5.54,3.2a.84.84,0,0,0,.74,0l4.45-2.57c.19-.11.17-.31,0-.43l-5.54-3.2A.81.81,0,0,0,129.31,243.09Z"/><path class="cls-5" d="M161.87,224.29l-4.46,2.58c-.19.11-.16.3.06.42l5.53,3.2a.81.81,0,0,0,.74,0L168.2,228c.19-.11.16-.3-.06-.43l-5.53-3.19A.84.84,0,0,0,161.87,224.29Z"/><path class="cls-5" d="M135.82,239.33l-4.45,2.57c-.19.11-.17.3,0,.43l5.54,3.2a.84.84,0,0,0,.74,0l4.45-2.57c.19-.11.17-.3-.05-.43l-5.54-3.2A.84.84,0,0,0,135.82,239.33Z"/><path class="cls-5" d="M168.38,220.54l-4.46,2.57c-.19.11-.16.3.06.42l5.54,3.2a.79.79,0,0,0,.73,0l4.46-2.57c.19-.11.16-.3-.05-.43l-5.54-3.19A.81.81,0,0,0,168.38,220.54Z"/><path class="cls-5" d="M155.36,228.05l-4.46,2.58c-.19.11-.16.3,0,.42l5.54,3.2a.81.81,0,0,0,.74,0l4.46-2.57c.19-.11.16-.3-.06-.43l-5.54-3.2A.82.82,0,0,0,155.36,228.05Z"/><path class="cls-5" d="M148.85,231.81l-4.46,2.57c-.19.11-.16.31.05.43L150,238a.81.81,0,0,0,.74,0l4.46-2.57c.19-.11.16-.3-.06-.43l-5.54-3.2A.82.82,0,0,0,148.85,231.81Z"/><path class="cls-5" d="M142.33,235.57l-4.45,2.57c-.19.11-.17.3.05.43l5.54,3.2a.84.84,0,0,0,.74,0l4.46-2.57c.18-.11.16-.3-.06-.43l-5.54-3.2A.84.84,0,0,0,142.33,235.57Z"/><path class="cls-5" d="M177.17,241.05l4.46-2.58c.19-.11.16-.3-.06-.42l-5.54-3.2a.79.79,0,0,0-.73,0l-4.46,2.57c-.19.11-.16.3,0,.43l5.54,3.19A.84.84,0,0,0,177.17,241.05Z"/><path class="cls-5" d="M232.8,183.34l-4.45,2.57c-.19.11-.17.3.05.43l5.54,3.2a.84.84,0,0,0,.74,0l4.45-2.57c.19-.11.17-.3,0-.43l-5.54-3.2A.84.84,0,0,0,232.8,183.34Z"/><path class="cls-5" d="M224.92,187.89l-4.46,2.57c-.19.11-.16.3.06.43l5.54,3.2a.82.82,0,0,0,.73,0l4.46-2.57c.19-.11.16-.3-.05-.43l-5.54-3.2A.84.84,0,0,0,224.92,187.89Z"/><path class="cls-5" d="M239.31,179.58l-4.45,2.57c-.19.11-.17.3,0,.43l5.54,3.2a.81.81,0,0,0,.74,0l4.45-2.57c.19-.11.17-.3,0-.43l-5.54-3.2A.84.84,0,0,0,239.31,179.58Z"/><path class="cls-5" d="M206.61,214.91l4.45-2.57c.19-.11.17-.3-.05-.43l-5.54-3.2a.84.84,0,0,0-.74,0l-4.45,2.58c-.19.11-.17.3.05.42l5.54,3.2A.81.81,0,0,0,206.61,214.91Z"/><path class="cls-5" d="M246.56,175.85a.84.84,0,0,0-.74,0l-4.45,2.58c-.19.11-.17.3,0,.42L247,182a.81.81,0,0,0,.74,0l4.45-2.57c.19-.11.17-.3-.05-.43Z"/><path class="cls-5" d="M183.68,237.29l4.46-2.58c.19-.11.16-.3-.06-.42l-5.54-3.2a.79.79,0,0,0-.73,0l-4.46,2.57c-.19.11-.16.3.05.43l5.54,3.2A.84.84,0,0,0,183.68,237.29Z"/><path class="cls-5" d="M263.52,191.19l4.46-2.57c.19-.11.16-.3-.05-.43l-5.54-3.2a.84.84,0,0,0-.74,0l-4.46,2.57c-.19.11-.16.3.06.43l5.54,3.2A.82.82,0,0,0,263.52,191.19Z"/><path class="cls-5" d="M249.1,190.38l4.45-2.57c.19-.11.17-.3-.05-.43l-5.54-3.2a.84.84,0,0,0-.74,0l-4.45,2.57c-.19.11-.17.3,0,.43l5.54,3.2A.84.84,0,0,0,249.1,190.38Z"/><path class="cls-5" d="M254.47,180.42a.84.84,0,0,0-.74,0L249.28,183c-.19.11-.17.3.05.43l5.54,3.2a.81.81,0,0,0,.74,0l4.46-2.57c.19-.11.16-.3-.06-.43Z"/><path class="cls-5" d="M255.84,179.63l13.46,7.77a.81.81,0,0,0,.74,0l4.45-2.57c.19-.11.17-.3-.05-.43L261,176.66a.82.82,0,0,0-.73,0l-4.46,2.58C255.6,179.31,255.63,179.51,255.84,179.63Z"/><path class="cls-5" d="M240.71,187.91l-4.45,2.57c-.19.11-.17.3.05.43l5.54,3.2a.84.84,0,0,0,.74,0l4.45-2.57c.19-.11.17-.3,0-.43l-5.54-3.2A.84.84,0,0,0,240.71,187.91Z"/><path class="cls-5" d="M191.71,216.2l-4.45,2.57c-.19.11-.17.3.05.43l5.54,3.2a.84.84,0,0,0,.74,0l4.45-2.57c.19-.11.17-.3,0-.43l-5.54-3.2A.84.84,0,0,0,191.71,216.2Z"/><path class="cls-5" d="M256.28,194.92a.82.82,0,0,0,.73,0l4.46-2.57c.19-.11.16-.3-.05-.43l-5.54-3.2a.84.84,0,0,0-.74,0l-4.46,2.57c-.19.11-.16.3.06.43Z"/><path class="cls-5" d="M198.22,212.44,193.77,215c-.19.1-.17.3,0,.42l5.54,3.2a.81.81,0,0,0,.74,0l4.45-2.57c.19-.11.17-.3-.05-.43l-5.54-3.2A.84.84,0,0,0,198.22,212.44Z"/><path class="cls-5" d="M150.39,256.05a.81.81,0,0,0,.74,0l4.45-2.57c.19-.11.17-.3-.05-.43l-5.54-3.2a.84.84,0,0,0-.74,0l-4.45,2.58c-.19.1-.17.3,0,.42Z"/><path class="cls-5" d="M139.63,246.27l-4.46,2.58c-.19.11-.16.3.05.42l5.54,3.2a.81.81,0,0,0,.74,0l4.46-2.57c.19-.11.16-.3-.06-.43l-5.54-3.2A.82.82,0,0,0,139.63,246.27Z"/><path class="cls-5" d="M157.64,252.32l4.45-2.57c.19-.11.17-.3-.05-.43l-5.54-3.19a.84.84,0,0,0-.74,0l-4.45,2.58c-.19.11-.17.3.05.42l5.54,3.2A.81.81,0,0,0,157.64,252.32Z"/><path class="cls-5" d="M164.15,248.56,168.6,246c.19-.11.17-.3,0-.43L163,242.37a.81.81,0,0,0-.74,0l-4.45,2.57c-.19.11-.17.3.05.42l5.54,3.2A.81.81,0,0,0,164.15,248.56Z"/><path class="cls-5" d="M170.66,244.8l4.46-2.57c.18-.11.16-.3-.06-.42l-5.54-3.2a.81.81,0,0,0-.74,0l-4.45,2.57c-.19.11-.17.3,0,.43l5.54,3.19A.81.81,0,0,0,170.66,244.8Z"/><path class="cls-5" d="M146.14,242.51l-4.46,2.58c-.19.11-.16.3,0,.42l5.54,3.2a.81.81,0,0,0,.74,0l4.46-2.57c.19-.11.16-.3-.06-.43l-5.54-3.19A.82.82,0,0,0,146.14,242.51Z"/><path class="cls-5" d="M152.65,238.76l-4.46,2.57c-.19.11-.16.3.06.42l5.53,3.2a.81.81,0,0,0,.74,0l4.46-2.57c.19-.11.16-.3-.06-.43l-5.53-3.19A.81.81,0,0,0,152.65,238.76Z"/><path class="cls-5" d="M178.69,223.72l-4.45,2.57c-.19.11-.17.3,0,.43l5.54,3.2a.84.84,0,0,0,.74,0l4.45-2.57c.19-.11.17-.31-.05-.43l-5.54-3.2A.81.81,0,0,0,178.69,223.72Z"/><path class="cls-5" d="M172.18,227.48l-4.46,2.57c-.18.11-.16.3.06.43l5.54,3.2a.84.84,0,0,0,.74,0l4.45-2.58c.19-.11.17-.3,0-.42l-5.54-3.2A.81.81,0,0,0,172.18,227.48Z"/><path class="cls-5" d="M185.2,220l-4.45,2.57c-.19.11-.17.3.05.43l5.54,3.2a.84.84,0,0,0,.74,0l4.45-2.57c.19-.11.17-.3-.05-.43l-5.54-3.2A.84.84,0,0,0,185.2,220Z"/><path class="cls-5" d="M159.16,235l-4.46,2.57c-.19.11-.16.3.06.43l5.54,3.19a.79.79,0,0,0,.73,0l4.46-2.57c.19-.11.16-.3-.05-.42L159.9,235A.81.81,0,0,0,159.16,235Z"/><path class="cls-5" d="M165.67,231.24l-4.46,2.57c-.19.11-.16.3.06.43l5.54,3.19a.82.82,0,0,0,.73,0l4.46-2.58c.19-.11.16-.3-.05-.42l-5.54-3.2A.81.81,0,0,0,165.67,231.24Z"/><path class="cls-5" d="M162.47,258.67l4.45-2.57c.19-.11.17-.3,0-.43l-5.54-3.2a.84.84,0,0,0-.74,0L156.14,255c-.19.11-.17.3.05.42l5.54,3.2A.81.81,0,0,0,162.47,258.67Z"/><path class="cls-5" d="M122.57,253.84l-5.54-3.2a.81.81,0,0,0-.74,0l-4.45,2.57c-.19.11-.17.3,0,.43l5.54,3.19a.81.81,0,0,0,.74,0l4.45-2.57C122.81,254.15,122.79,254,122.57,253.84Z"/><path class="cls-5" d="M132.88,257l-5.54-3.2a.84.84,0,0,0-.74,0l-6.85,4c-.19.11-.16.3,0,.42l5.54,3.2a.81.81,0,0,0,.74,0l6.85-3.95C133.12,257.34,133.1,257.15,132.88,257Z"/><path class="cls-5" d="M114,247.7l-5.54-3.2a.79.79,0,0,0-.73,0l-5.49,3.16c-.19.11-.16.3.06.43l5.54,3.2a.79.79,0,0,0,.73,0l5.49-3.17C114.24,248,114.21,247.82,114,247.7Z"/><path class="cls-5" d="M118.2,245.27a.79.79,0,0,0,.73,0l4.46-2.57c.19-.11.17-.3,0-.43l-5.54-3.19a.84.84,0,0,0-.74,0l-4.46,2.58c-.19.11-.16.3.06.42Z"/><path class="cls-5" d="M142.51,260.6,137,257.4a.84.84,0,0,0-.74,0l-8.57,4.95c-.19.11-.16.3.06.42l5.54,3.2a.81.81,0,0,0,.74,0l8.56-4.94C142.75,260.92,142.73,260.73,142.51,260.6Z"/><path class="cls-5" d="M147.34,267l-5.54-3.2a.84.84,0,0,0-.74,0l-5.48,3.17c-.19.11-.17.3,0,.42l5.54,3.2a.81.81,0,0,0,.74,0l5.48-3.16C147.58,267.27,147.56,267.08,147.34,267Z"/><path class="cls-5" d="M166.6,217.32a.81.81,0,0,0,.74,0l4.46-2.57c.19-.11.16-.3-.06-.42l-5.54-3.2a.79.79,0,0,0-.73,0L161,213.7c-.19.11-.16.3.05.42Z"/><path class="cls-5" d="M153.58,224.84a.81.81,0,0,0,.74,0l4.46-2.57c.19-.11.16-.3-.06-.43l-5.54-3.2a.82.82,0,0,0-.73,0L148,221.22c-.19.11-.17.3,0,.42Z"/><path class="cls-5" d="M124.71,241.51a.81.81,0,0,0,.74,0L129.9,239c.19-.11.17-.3-.05-.43l-5.54-3.19a.81.81,0,0,0-.74,0l-4.46,2.57c-.18.11-.16.3.06.42Z"/><path class="cls-5" d="M160.09,221.08a.81.81,0,0,0,.74,0l4.46-2.57c.19-.11.16-.3-.06-.43l-5.54-3.19a.79.79,0,0,0-.73,0l-4.46,2.57c-.19.11-.16.3.05.42Z"/><path class="cls-5" d="M147.07,228.6a.81.81,0,0,0,.74,0l4.46-2.57c.18-.11.16-.3-.06-.43l-5.54-3.2a.84.84,0,0,0-.74,0L141.48,225c-.19.1-.17.3.05.42Z"/><path class="cls-5" d="M151.08,267.53a.81.81,0,0,0-.74,0l-6.85,4c-.19.1-.16.3,0,.42l5.54,3.2a.81.81,0,0,0,.74,0l6.86-4c.18-.11.16-.3-.06-.42Z"/><path class="cls-5" d="M137.73,234a.81.81,0,0,0,.74,0l4.45-2.57c.19-.11.17-.3,0-.42l-5.54-3.2a.81.81,0,0,0-.74,0l-4.45,2.57c-.19.11-.17.3.05.43Z"/><path class="cls-5" d="M131.22,237.75a.81.81,0,0,0,.74,0l4.45-2.57c.19-.11.17-.3,0-.42l-5.54-3.2a.81.81,0,0,0-.74,0l-4.45,2.57c-.19.11-.17.3.05.42Z"/><path class="cls-5" d="M271.7,197.89a.79.79,0,0,0-.73,0l-11,6.33c-.19.11-.17.3.05.43l5.54,3.19a.81.81,0,0,0,.74,0l11-6.33c.19-.11.16-.3-.06-.42Z"/><path class="cls-5" d="M257.31,206.2a.81.81,0,0,0-.74,0l-4.45,2.57c-.19.11-.17.3,0,.43l5.54,3.19a.84.84,0,0,0,.74,0l4.45-2.58c.19-.11.17-.3,0-.42Z"/><path class="cls-5" d="M169,254.91l4.45-2.57c.19-.11.17-.3-.05-.43l-5.54-3.19a.81.81,0,0,0-.74,0l-4.45,2.57c-.19.11-.17.3,0,.42l5.54,3.2A.81.81,0,0,0,169,254.91Z"/><path class="cls-5" d="M244.29,213.72a.81.81,0,0,0-.74,0l-4.45,2.57c-.19.11-.17.3.05.42l5.54,3.2a.81.81,0,0,0,.74,0l4.45-2.57c.19-.11.17-.3,0-.43Z"/><path class="cls-5" d="M278.21,194.13a.79.79,0,0,0-.73,0L273,196.67c-.19.11-.16.3.05.43l5.54,3.2a.84.84,0,0,0,.74,0l4.46-2.58c.19-.1.16-.3-.06-.42Z"/><path class="cls-5" d="M290.26,193.57l-13.45-7.77a.84.84,0,0,0-.74,0l-4.45,2.57c-.19.11-.17.3.05.43l13.45,7.77a.84.84,0,0,0,.74,0l4.46-2.57C290.51,193.89,290.48,193.7,290.26,193.57Z"/><path class="cls-5" d="M220,227.76a.84.84,0,0,0-.74,0l-5.48,3.17c-.19.11-.17.3,0,.42l5.54,3.2a.81.81,0,0,0,.74,0l5.48-3.16c.19-.11.17-.3-.05-.43Z"/><path class="cls-5" d="M236.41,218.27a.81.81,0,0,0-.74,0l-6.85,3.95c-.19.11-.17.3.05.43l5.54,3.2a.84.84,0,0,0,.74,0l6.85-4c.19-.11.17-.3-.05-.42Z"/><path class="cls-5" d="M204.88,236.47a.81.81,0,0,0-.74,0l-36.66,21.17c-.19.11-.17.3.05.42l5.54,3.2a.81.81,0,0,0,.74,0l36.67-21.17c.18-.11.16-.3-.06-.42Z"/><path class="cls-5" d="M166.16,258.82a.84.84,0,0,0-.74,0L159.94,262c-.19.11-.17.3.05.43l5.54,3.19a.81.81,0,0,0,.74,0l5.48-3.16c.19-.11.17-.3-.05-.43Z"/><path class="cls-5" d="M212.42,232.12a.81.81,0,0,0-.74,0l-5.48,3.16c-.19.11-.17.3.05.43l5.54,3.2a.84.84,0,0,0,.74,0l5.48-3.17c.19-.11.17-.3,0-.43Z"/><path class="cls-5" d="M158.62,263.18a.81.81,0,0,0-.74,0l-5.48,3.16c-.19.11-.16.3,0,.43l5.54,3.2a.84.84,0,0,0,.74,0l5.48-3.17c.19-.11.17-.3-.05-.42Z"/><path class="cls-5" d="M227.5,223.41a.81.81,0,0,0-.74,0l-5.48,3.17c-.19.1-.17.3.05.42l5.54,3.2a.81.81,0,0,0,.74,0l5.48-3.16c.19-.11.17-.3-.05-.43Z"/><path class="cls-5" d="M250.8,210a.81.81,0,0,0-.74,0l-4.45,2.57c-.19.11-.17.3,0,.43l5.54,3.19a.81.81,0,0,0,.74,0l4.45-2.57c.19-.11.17-.3-.05-.42Z"/><path class="cls-5" d="M264.93,199.52l4.45-2.58c.19-.1.17-.3-.05-.42l-5.54-3.2a.81.81,0,0,0-.74,0l-4.45,2.57c-.19.11-.17.3,0,.43l5.54,3.2A.84.84,0,0,0,264.93,199.52Z"/><path class="cls-5" d="M234.71,198.69l4.45-2.57c.19-.11.17-.3,0-.43l-5.54-3.2a.84.84,0,0,0-.74,0L228.38,195c-.19.11-.17.3.05.43l5.54,3.2A.84.84,0,0,0,234.71,198.69Z"/><path class="cls-5" d="M221.07,224.84l13-7.52c.19-.11.16-.3-.06-.42l-5.54-3.2a.79.79,0,0,0-.73,0l-13,7.52c-.18.1-.16.3.06.42l5.54,3.2A.81.81,0,0,0,221.07,224.84Z"/><path class="cls-5" d="M257.68,203.25a.84.84,0,0,0,.74,0l4.45-2.58c.19-.11.17-.3-.05-.42l-5.54-3.2a.81.81,0,0,0-.74,0l-4.45,2.57c-.19.11-.17.3,0,.43Z"/><path class="cls-5" d="M250.5,198.71l4.46-2.58c.19-.1.16-.3-.06-.42l-5.53-3.2a.81.81,0,0,0-.74,0l-4.46,2.57c-.19.11-.16.3.06.43l5.53,3.2A.84.84,0,0,0,250.5,198.71Z"/><path class="cls-5" d="M214.55,228.6,219,226c.19-.11.17-.3,0-.43l-5.54-3.2a.84.84,0,0,0-.74,0l-4.46,2.57c-.19.11-.16.3.06.43l5.54,3.2A.79.79,0,0,0,214.55,228.6Z"/><path class="cls-5" d="M243.29,211.55a.82.82,0,0,0,.73,0l4.46-2.58c.19-.11.16-.3,0-.42l-5.54-3.2a.81.81,0,0,0-.74,0l-4.46,2.57c-.19.11-.16.3.06.43Z"/><path class="cls-5" d="M182,247.39l4.46-2.57c.19-.11.16-.3-.06-.42l-5.54-3.2a.81.81,0,0,0-.74,0l-4.45,2.57c-.19.11-.17.3.05.43l5.54,3.19A.81.81,0,0,0,182,247.39Z"/><path class="cls-5" d="M188.51,243.64l4.46-2.58c.19-.11.16-.3-.06-.42l-5.54-3.2a.79.79,0,0,0-.73,0L182.18,240c-.19.11-.16.3,0,.43l5.54,3.19A.84.84,0,0,0,188.51,243.64Z"/><path class="cls-5" d="M175.49,251.15l4.46-2.57c.18-.11.16-.3-.06-.42l-5.54-3.2a.81.81,0,0,0-.74,0l-4.45,2.57c-.19.11-.17.3.05.42l5.54,3.2A.81.81,0,0,0,175.49,251.15Z"/><path class="cls-5" d="M201.53,236.12l4.46-2.57c.19-.11.16-.3-.05-.43l-5.54-3.2a.81.81,0,0,0-.74,0l-4.46,2.57c-.19.11-.16.3.06.43l5.54,3.2A.82.82,0,0,0,201.53,236.12Z"/><path class="cls-5" d="M195,239.88l4.46-2.58c.19-.1.16-.3-.06-.42l-5.54-3.2a.79.79,0,0,0-.73,0l-4.46,2.57c-.19.11-.16.3.05.43l5.54,3.2A.84.84,0,0,0,195,239.88Z"/><path class="cls-5" d="M208,232.36l4.46-2.57c.19-.11.16-.3-.05-.43l-5.54-3.2a.84.84,0,0,0-.74,0l-4.46,2.57c-.19.11-.16.3.06.43l5.54,3.2A.82.82,0,0,0,208,232.36Z"/><path class="cls-5" d="M203.43,196.06a.81.81,0,0,0,.74,0l4.45-2.57c.19-.11.17-.3-.05-.43L203,189.9a.81.81,0,0,0-.74,0l-4.45,2.57c-.19.11-.17.3,0,.42Z"/><path class="cls-5" d="M216.45,188.54a.81.81,0,0,0,.74,0l4.45-2.57c.19-.11.17-.3,0-.42l-5.54-3.2a.81.81,0,0,0-.74,0l-4.45,2.57c-.19.11-.17.3,0,.43Z"/><path class="cls-5" d="M195.48,200.65a.81.81,0,0,0,.74,0l4.45-2.57c.19-.11.17-.3,0-.43l-5.54-3.19a.81.81,0,0,0-.74,0L189.89,197c-.19.11-.17.3.05.42Z"/><path class="cls-5" d="M209.94,192.3a.81.81,0,0,0,.74,0l4.45-2.57c.19-.11.17-.3,0-.43l-5.54-3.19a.81.81,0,0,0-.74,0l-4.45,2.57c-.19.11-.17.3.05.42Z"/><path class="cls-5" d="M182.46,208.17a.81.81,0,0,0,.74,0l4.45-2.57c.19-.11.17-.3-.05-.43l-5.54-3.2a.84.84,0,0,0-.74,0l-4.45,2.57c-.19.11-.17.3,0,.43Z"/><path class="cls-5" d="M189,204.41a.81.81,0,0,0,.74,0l4.45-2.57c.19-.11.17-.3,0-.43l-5.54-3.2a.84.84,0,0,0-.74,0l-4.45,2.58c-.19.1-.17.3.05.42Z"/><path class="cls-5" d="M253.47,178.26a.81.81,0,0,0,.74,0l4.45-2.57c.19-.11.17-.3-.05-.43l-5.54-3.19a.84.84,0,0,0-.74,0l-4.45,2.58c-.19.11-.17.3.05.42Z"/><path class="cls-5" d="M271.44,195.76l4.45-2.57c.19-.11.17-.3-.05-.43l-5.54-3.2a.84.84,0,0,0-.74,0l-4.45,2.57c-.19.11-.17.3.05.43l5.54,3.2A.84.84,0,0,0,271.44,195.76Z"/><path class="cls-5" d="M176,211.93a.84.84,0,0,0,.74,0l4.45-2.57c.19-.11.17-.3,0-.43l-5.54-3.2a.84.84,0,0,0-.74,0l-4.45,2.57c-.19.11-.17.3,0,.43Z"/><path class="cls-9" d="M235.32,175.3a.81.81,0,0,0,.74,0l4.46-2.57c.18-.11.16-.3-.06-.43l-1.47-.85a.84.84,0,0,0-.74,0L233.79,174c-.18.11-.16.3.06.43Z"/><path class="cls-9" d="M222.3,182.82a.81.81,0,0,0,.74,0l4.45-2.57c.19-.11.17-.3-.05-.43L226,179a.81.81,0,0,0-.74,0l-4.46,2.57c-.19.11-.16.3.06.43Z"/><path class="cls-9" d="M241.83,171.54a.81.81,0,0,0,.74,0L247,169c.19-.11.16-.3-.06-.42l-1.47-.86a.84.84,0,0,0-.74,0l-4.45,2.58c-.19.1-.17.3.05.42Z"/><path class="cls-9" d="M228.81,179.06a.81.81,0,0,0,.74,0l4.45-2.57c.19-.11.17-.3-.05-.43l-1.47-.85a.84.84,0,0,0-.74,0l-4.46,2.57c-.19.11-.16.3.06.43Z"/><path class="cls-3" d="M71.12,243.88h0l164.5-95L213.8,19.38l-1.27-2.9-1.37-.68h0a11.39,11.39,0,0,0-11.35,0L49.3,102.71a11.32,11.32,0,0,0-5.68,9.83L65.45,234.06C66.49,240.35,67.61,241.86,71.12,243.88Z"/><path class="cls-5" d="M210,16.48,52,107.67a5.5,5.5,0,0,0-2.75,4.76L71.12,243.88l164.5-95L213.8,18.67A2.53,2.53,0,0,0,210,16.48Z"/><polygon class="cls-10" points="229.94 142.93 209.5 23.26 207.52 24.4 227.97 141.78 229.94 142.93"/><polygon class="cls-11" points="207.52 24.4 227.96 141.79 74.22 230.35 54.59 112.72 207.52 24.4"/><path class="cls-12" d="M204.4,37.88l-.71-4.26a1.27,1.27,0,0,0-2-.94L64.31,111.79a3.09,3.09,0,0,0-1.4,3l.74,4.4,17.85,107L222.28,145Z"/><path class="cls-13" d="M223.07,144.62,82.29,225.71l-17.85-107-.74-4.44a3.09,3.09,0,0,1,1.4-3l137.32-79.1a1.3,1.3,0,0,1,2.06,1l.71,4.26Z"/><polygon class="cls-14" points="229.94 142.93 74.56 232.49 74.22 230.35 227.96 141.79 229.94 142.93"/><path class="cls-15" d="M205.19,37.47,64.44,118.75l-.74-4.44a3.09,3.09,0,0,1,1.4-3l137.32-79.1a1.3,1.3,0,0,1,2.06,1Z"/><polygon class="cls-16" points="70.06 110.42 70.6 113.45 191.34 43.75 190.79 40.71 70.06 110.42"/><polygon class="cls-17" points="68.86 111.73 65.67 113.56 65.55 112.86 68.74 111.02 68.86 111.73"/><polygon class="cls-17" points="69.07 112.88 65.88 114.71 65.76 114 68.94 112.17 69.07 112.88"/><polygon class="cls-17" points="69.28 114.05 66.09 115.89 65.97 115.18 69.15 113.35 69.28 114.05"/><path class="cls-18" d="M195.09,39.89A2.36,2.36,0,0,1,194,42.18a1,1,0,0,1-1.6-.75,2.37,2.37,0,0,1,1.06-2.29A1,1,0,0,1,195.09,39.89Z"/><path class="cls-19" d="M198.64,37.85a2.35,2.35,0,0,1-1.06,2.29,1,1,0,0,1-1.6-.75A2.34,2.34,0,0,1,197,37.1,1,1,0,0,1,198.64,37.85Z"/><path class="cls-20" d="M202.2,35.8a2.34,2.34,0,0,1-1.06,2.29,1,1,0,0,1-1.61-.75,2.36,2.36,0,0,1,1.07-2.29A1,1,0,0,1,202.2,35.8Z"/><path class="cls-3" d="M238.62,78.28l0,27.17c0,1.8,1.26,2.53,2.83,1.63L273,88.91A6.26,6.26,0,0,0,275.8,84l0-27.18c0-1.81-1.27-2.54-2.84-1.63L241.46,73.37A6.27,6.27,0,0,0,238.62,78.28Z"/><polygon class="cls-3" points="280.22 58 275.03 55.07 274.79 61.8 280.22 58"/><polygon class="cls-3" points="244.76 110.36 239.45 107.3 244.35 104.45 244.76 110.36"/><polygon class="cls-3" points="257.2 113.33 257.2 101.06 251.89 98.02 251.89 110.28 257.2 113.33"/><path class="cls-16" d="M243.92,81.37v27.15c0,1.81,1.27,2.54,2.83,1.64L278.26,92a6.26,6.26,0,0,0,2.83-4.9V59.85c0-1.8-1.27-2.54-2.83-1.63L246.75,76.46A6.28,6.28,0,0,0,243.92,81.37Z"/><polygon class="cls-16" points="257.22 101.06 257.2 113.33 270.47 93.4 257.22 101.06"/><path class="cls-13" d="M260.38,82.5s2.35-5.37,2.57-6.14a23.29,23.29,0,0,0,0-4c0-.52,2.13-1.95,2.8-.46a7.73,7.73,0,0,1,.34,5l5.18-3c1.1-.63,1.55.27,1.55,1a3.88,3.88,0,0,1-.84,2.23s1-.31,1,1.08a3.67,3.67,0,0,1-1.26,2.54s.33.26.33,1.23a4.05,4.05,0,0,1-1.45,2.59,3,3,0,0,1,.22,1.23,4,4,0,0,1-1.9,3l-8.57,5Z"/><polygon class="cls-13" points="255.42 98.08 259.15 95.92 259.14 82.89 255.41 85.05 255.42 98.08"/><path class="cls-3" d="M227.74,23.47l0,27.17c0,1.8,1.26,2.54,2.83,1.63L262.09,34.1a6.26,6.26,0,0,0,2.83-4.9l0-27.18c0-1.8-1.27-2.54-2.83-1.63L230.58,18.56A6.29,6.29,0,0,0,227.74,23.47Z"/><polygon class="cls-3" points="269.34 3.19 264.16 0.26 263.91 6.99 269.34 3.19"/><polygon class="cls-3" points="233.88 55.55 228.58 52.49 233.47 49.64 233.88 55.55"/><polygon class="cls-3" points="246.32 58.52 246.32 46.25 241.01 43.21 241.01 55.47 246.32 58.52"/><path class="cls-16" d="M233,26.56V53.71c0,1.81,1.27,2.54,2.83,1.64l31.51-18.21a6.26,6.26,0,0,0,2.83-4.9V5c0-1.8-1.27-2.53-2.83-1.63L235.87,21.65A6.28,6.28,0,0,0,233,26.56Z"/><polygon class="cls-16" points="246.34 46.25 246.32 58.52 259.59 38.59 246.34 46.25"/><path class="cls-21" d="M252,38.4l-3-.79c-2.88-.76-6.3-2.44-6.3-6.12,0-2.58,2.09-5.87,4.67-7.36A2.92,2.92,0,0,1,252,26.35c.3-2.46,2.26-6.19,4.63-7.56,2.57-1.48,4.66-.6,4.66,2,0,3.68-3.41,9.3-6.28,13.36Z"/><polygon class="cls-13" points="358.33 259.61 248.65 322.89 248.65 320.61 358.32 257.31 358.33 259.61"/><path class="cls-22" d="M220.81,153.79l-44.65,25.78-12.1,7a13,13,0,0,0-1.14.66,16,16,0,0,0-7.69,13.8v23.45a16,16,0,0,1-6.49,13,16.39,16.39,0,0,1-9.79,3.29,16.12,16.12,0,0,1-8.09-2.2,48.75,48.75,0,0,1-24.37-42.21V170.76a48.74,48.74,0,0,0-24.37-42.21L191.79,65.23v0a48.72,48.72,0,0,1,24.38,42.21V133A48.55,48.55,0,0,0,220.81,153.79Z"/><line class="cls-23" x1="194.03" y1="78.61" x2="101.69" y2="131.92"/><line class="cls-23" x1="201.58" y1="88.25" x2="109.24" y2="141.56"/><line class="cls-23" x1="206.5" y1="99.45" x2="114.16" y2="152.76"/><line class="cls-23" x1="208.47" y1="111.7" x2="116.13" y2="165.01"/><line class="cls-23" x1="208.5" y1="124.11" x2="116.16" y2="177.42"/><line class="cls-23" x1="208.5" y1="136.48" x2="116.16" y2="189.79"/><line class="cls-23" x1="209.55" y1="148.89" x2="117.21" y2="202.2"/><line class="cls-23" x1="213.57" y1="160.48" x2="121.23" y2="213.79"/><line class="cls-23" x1="220.33" y1="170.67" x2="127.99" y2="223.98"/><line class="cls-23" x1="229.52" y1="178.93" x2="137.18" y2="232.24"/><path class="cls-24" d="M248.65,320.61v2.29l-1-.56-20.31-11.72A50.89,50.89,0,0,1,202,266.68V229.14a46.84,46.84,0,0,0-23.37-40.47A14.25,14.25,0,0,0,157.23,201v23.45a18,18,0,0,1-8.06,15.14l0,0c-.34.23-.68.44-1,.64a18.06,18.06,0,0,1-18.25,0,50.88,50.88,0,0,1-25.37-43.94V170.76a46.85,46.85,0,0,0-22.37-39.87v-2.34a48.74,48.74,0,0,1,24.37,42.21v25.56a48.75,48.75,0,0,0,24.37,42.21,16.12,16.12,0,0,0,8.09,2.2,16.39,16.39,0,0,0,9.79-3.29l0,0a8.32,8.32,0,0,0,.68-.53c.23-.19.46-.39.68-.6l.14-.13c.38-.36.74-.74,1.08-1.13l0-.05c.19-.23.38-.46.56-.7l.36-.49c.16-.22.3-.44.44-.66s.25-.41.37-.61a14.55,14.55,0,0,0,.81-1.63,13,13,0,0,0,.52-1.4,2.07,2.07,0,0,0,.1-.33c.08-.23.14-.47.2-.71l0-.12c.06-.26.12-.52.16-.79a.51.51,0,0,0,0-.17c0-.21.08-.43.11-.65s0-.24,0-.36,0-.49.07-.74c0-.05,0-.1,0-.15,0-.33,0-.66,0-1V201c0-.38,0-.75,0-1.12s0-.55.07-.81,0-.4.08-.6a2,2,0,0,1,0-.24,6.18,6.18,0,0,1,.12-.62s0,0,0,0a9.08,9.08,0,0,1,.22-.9c.08-.31.17-.61.27-.91l.09-.27c.07-.2.15-.4.23-.59.16-.41.34-.8.53-1.18s.29-.57.46-.85v0c.17-.29.34-.57.53-.84s.31-.46.48-.68a16,16,0,0,1,1.3-1.54,4,4,0,0,1,.29-.29l.53-.5h0c.25-.23.5-.44.76-.65,0,0,.05,0,.07-.06a15,15,0,0,1,1.56-1.08c.15-.09.29-.19.44-.27s.31-.18.46-.26l.24-.13a13,13,0,0,1,1.43-.64,5.38,5.38,0,0,1,.51-.2l.32-.11.53-.17q.36-.12.75-.21l.66-.15.12,0c.25-.05.5-.1.76-.13s.52-.08.78-.1a15.92,15.92,0,0,1,8.69,1.59c.33.16.66.34,1,.53a48.73,48.73,0,0,1,17.84,17.83,50,50,0,0,1,2.7,5.44A48.61,48.61,0,0,1,204,229.14v37.54a48.72,48.72,0,0,0,24.37,42.2Z"/><path class="cls-25" d="M198.38,211.22,149.16,239.6a18,18,0,0,0,8.06-15.14V201a14.25,14.25,0,0,1,21.37-12.34A46.82,46.82,0,0,1,198.38,211.22Z"/><path class="cls-16" d="M358.32,257.32,248.65,320.61l-20.31-11.73A48.72,48.72,0,0,1,204,266.68V229.14a48.61,48.61,0,0,0-3.83-18.93,50,50,0,0,0-2.7-5.44,48.73,48.73,0,0,0-17.84-17.83,16.06,16.06,0,0,0-15.54-.39l12.1-7,44.65-25.78,52.11-30.08.13-.08a16.08,16.08,0,0,1,16.22,0,48.74,48.74,0,0,1,24.37,42.21v37.53A48.75,48.75,0,0,0,338,245.59Z"/><line class="cls-23" x1="237.72" y1="160.48" x2="195.61" y2="184.94"/><line class="cls-23" x1="307.22" y1="201.56" x2="214.88" y2="254.87"/><line class="cls-23" x1="307.22" y1="213.41" x2="214.88" y2="266.72"/><line class="cls-23" x1="307.22" y1="188.42" x2="214.88" y2="241.73"/><line class="cls-23" x1="306.81" y1="176.21" x2="214.46" y2="229.52"/><line class="cls-23" x1="255.59" y1="192.49" x2="213.47" y2="216.95"/><line class="cls-23" x1="252.46" y1="179.83" x2="210.35" y2="204.3"/><line class="cls-23" x1="245.98" y1="169.06" x2="203.87" y2="193.52"/><path class="cls-26" d="M264.14,192.49c-.57-8.16-4.65-16.85-8.55-23.61-4.21-7.29-8.21-12.34-15.75-16.69l44.09-25.63c7.54,4.35,13.34,11.22,17.55,18.51a47.19,47.19,0,0,1,6.78,21.8Z"/><polygon class="cls-2" points="45.91 320.57 98.56 290.25 52.48 263.48 0 294.02 45.91 320.57"/><polygon class="cls-3" points="95.53 288.45 46.82 316.57 46.82 311.89 95.53 283.76 95.53 288.45"/><polygon class="cls-4" points="95.53 283.76 46.82 311.88 2.24 286.11 50.96 257.98 95.53 283.76"/><polygon class="cls-7" points="46.82 316.57 2.24 290.79 2.24 286.11 46.82 311.89 46.82 316.57"/><polygon class="cls-27" points="46.82 311.88 26.47 300.12 26.47 286.04 59.02 286.1 63.09 274.29 83.42 276.75 95.53 283.76 46.82 311.88"/><path class="cls-28" d="M45.91,270.82c-2.48,1.43-2.48,3.75,0,5.18a9.91,9.91,0,0,0,9,0c2.48-1.43,2.48-3.75,0-5.18A9.91,9.91,0,0,0,45.91,270.82Z"/><polygon class="cls-29" points="46.82 316.57 46.82 311.88 26.47 300.12 26.47 304.81 46.82 316.57"/><polygon class="cls-30" points="46.82 311.88 95.53 283.76 95.53 288.45 46.82 316.57 46.82 311.88"/><polygon class="cls-2" points="117.3 361.77 169.95 331.45 123.87 304.68 71.38 335.22 117.3 361.77"/><polygon class="cls-3" points="166.91 329.65 118.2 357.77 118.2 353.09 166.91 324.96 166.91 329.65"/><polygon class="cls-4" points="166.91 324.96 118.2 353.08 73.62 327.31 122.34 299.18 166.91 324.96"/><polygon class="cls-7" points="118.2 357.77 73.62 331.99 73.62 327.31 118.2 353.09 118.2 357.77"/><polygon class="cls-27" points="118.2 353.08 97.86 341.32 97.86 327.24 130.41 327.3 134.47 315.5 154.8 317.95 166.91 324.96 118.2 353.08"/><path class="cls-28" d="M117.29,312c-2.48,1.43-2.48,3.75,0,5.18a9.87,9.87,0,0,0,9,0c2.48-1.43,2.48-3.75,0-5.18A9.93,9.93,0,0,0,117.29,312Z"/><polygon class="cls-29" points="118.2 357.77 118.2 353.08 97.86 341.32 97.86 346.01 118.2 357.77"/><polygon class="cls-30" points="118.2 353.08 166.91 324.96 166.91 329.65 118.2 357.77 118.2 353.08"/><path class="cls-2" d="M395.63,183.31c-15.38,7.28-39.55,7.74-54,1s-13.55-18.07,1.95-25.34,39.66-7.74,54-1S411,176,395.63,183.31Z"/><path class="cls-16" d="M398,157.59c1-.11,10.57-1.48,20.17-15.73,4.56-6.78,8.21-19.19,6-28.85-1.11-4.82-3.64-8.49-7.32-10.61-10.19-5.88-19.06.47-22.33,4.64l6.2,4.87-3.1-2.44,3.09,2.46c.55-.68,5.55-6.54,12.19-2.7,1.77,1,3,2.88,3.59,5.55,1.6,6.9-1.21,17.29-4.83,22.67-7.49,11.11-14.38,12.29-14.45,12.29Z"/><path class="cls-31" d="M328.59,99.76l79.54.24-7.23,63.72h0c-.06,4.76-3.22,9.51-9.51,13.14-12.71,7.34-33.31,7.34-46,0-6.32-3.64-9.49-8.42-9.52-13.2Z"/><path class="cls-16" d="M396.55,82.25c15.56,9,15.56,23.55,0,32.53s-40.79,9-56.35,0-15.56-23.55,0-32.53S381,73.26,396.55,82.25Z"/><path class="cls-1" d="M368.37,116.26c9.74,0,18.81-2.14,25.55-6,5.74-3.32,9-7.59,9-11.71s-3.3-8.4-9-11.72c-6.74-3.89-15.81-6-25.55-6s-18.8,2.14-25.54,6c-5.75,3.32-9,7.59-9,11.72s3.29,8.39,9,11.71C349.57,114.12,358.64,116.26,368.37,116.26Z"/><g class="cls-32"><path class="cls-33" d="M368.37,126.85c9.73,0,18.81-2.14,25.55-6,5.74-3.32,9-7.59,9-11.71s-3.3-8.4-9-11.72c-6.74-3.89-15.82-6-25.55-6s-18.8,2.14-25.54,6c-5.75,3.32-9,7.59-9,11.72s3.29,8.39,9,11.71C349.57,124.71,358.64,126.85,368.37,126.85Z"/></g><path class="cls-34" d="M380.74,95.25c-10.12-.87-26,1.59-30.36,7.37S362.53,114,362.53,114s-16.92-1-21.26-7.8S362.38,90.91,380.74,95.25Z"/><path class="cls-2" d="M379.63,327.12c-20.24,8.41-52,8.94-71,1.17s-17.83-20.9,2.56-29.32,52.16-8.94,71-1.17S399.86,318.7,379.63,327.12Z"/><polygon class="cls-35" points="253.68 245.33 243.55 268.18 265.61 256.15 253.68 245.33"/><polygon class="cls-36" points="243.55 268.18 260.81 251.8 265.61 256.15 243.55 268.18"/><polygon class="cls-37" points="243.55 268.18 246.2 262.2 246.19 263.7 247.23 262.95 246.96 264.43 248.45 263.92 247.78 265.14 249.69 264.83 243.55 268.18"/><path class="cls-38" d="M375.86,136.28l-1.44,1.56-1.73,1.89L265.61,256.15a10.24,10.24,0,0,1-7.14-2.27c-3.13-2.35-5.19-6-4.78-8.54L360.31,129.42l3.32-3.6C361.61,128.27,373.8,138.71,375.86,136.28Z"/><path class="cls-39" d="M374.42,137.84l-1.73,1.89L265.61,256.15a10.24,10.24,0,0,1-7.14-2.27L368,135.6Z"/><path class="cls-28" d="M370.4,142.24l-3.22,3.48c-.9,1-3.65-.3-6.34-2.37-3.58-2.74-7-6.76-5.86-8.14l2.38-2.56.85-.92c-1.19,1.38,2.28,5.41,5.86,8.15,2.58,2,5.23,3.29,6.22,2.46h0A.28.28,0,0,0,370.4,142.24Z"/><path class="cls-40" d="M369.59,143.1c-2.09,2.42-14.28-8.09-12.2-10.51l3.22-3.5c-2.09,2.42,10.1,12.93,12.19,10.51Z"/><path class="cls-28" d="M375.86,136.28l-3.17,3.45c-2,2.39-13.9-7.64-12.38-10.31a.65.65,0,0,1,.1-.15l3.22-3.45C361.61,128.27,373.8,138.71,375.86,136.28Z"/><path class="cls-41" d="M375.86,136.28l-3.07,3.34-.11.12-2.38,2.59h0l-.71.76-2.4,2.62c-.9,1-3.65-.3-6.34-2.37l2.42-2.6.81-.87,2.29-2.46.14-.15,3.07-3.3.52-.56Z"/><path class="cls-42" d="M389.32,121.65l-13.46,14.63c-.88,1-3.61-.27-6.29-2.31-3.59-2.73-7.1-6.75-5.94-8.15v0l12.95-14.07c2.75-3.53,10.26.77,12.66,5.25C390.16,118.65,390.35,120.33,389.32,121.65Z"/><path class="cls-43" d="M389.32,121.65l-13.46,14.63c-.88,1-3.61-.27-6.29-2.31l13-14.83s3.75,2.6,5.51,2,1.87-2.25,1.13-4.16C390.16,118.65,390.35,120.33,389.32,121.65Z"/><path class="cls-44" d="M320.53,149.4s-2.3,6.53-2,7,2.49.49,2.49.49Z"/><path class="cls-45" d="M317,149.14l4.08-.23v6.29s-2.54.39-3.53-1S317,149.14,317,149.14Z"/><path class="cls-21" d="M358.54,174.34a49,49,0,0,1-1.37,6.51L349,163.3a5.94,5.94,0,0,1,6.24.29c1.91,1.36,2.87,4.07,3.24,6.62A17.29,17.29,0,0,1,358.54,174.34Z"/><path class="cls-46" d="M358.54,174.34a49,49,0,0,1-1.37,6.51L349,163.3l3.1.94s2.22,1.25,4.38,5.34,2,.63,2,.63A17.29,17.29,0,0,1,358.54,174.34Z"/><path class="cls-47" d="M343.18,163.55l-10.42,5.38s-1.75-4.46-2.67-4.83-4,.55-6.5.53a1.18,1.18,0,0,1-.46-.09c-1.5-.55-2.17-3.87-2.44-8.92,0-.32,0-.66-.05-1-.07-1.6-.1-3.35-.11-5.22,0-.16,0-.33,0-.49v-.52c.1-8.55,4-9.47,7.64-11.37a10.68,10.68,0,0,1,11.53.54c5,3.26,4.23,10.67,3.22,16.09-.24,1.33-.5,2.54-.69,3.54C341.27,162.25,343.18,163.55,343.18,163.55Z"/><path class="cls-44" d="M330.66,149.55s.85-1.92,2.26-1c1.1.75,1,3.31-.14,4.83,0,0,.8-2.94-.28-3.85A1.68,1.68,0,0,0,330.66,149.55Z"/><path class="cls-44" d="M343.18,163.55l-10.42,5.38s-1.75-4.46-2.67-4.83-4,.55-6.5.53a1.18,1.18,0,0,1-.46-.09A54.82,54.82,0,0,0,329,162c1.21-.77,2.62-5.81,2.62-5.81l11.31-2.57c-.24,1.33-.5,2.54-.69,3.54C341.27,162.25,343.18,163.55,343.18,163.55Z"/><path class="cls-48" d="M374.94,283.61c-2.89,5.82-7.19,5.53-7.19,5.53s-17.57-24.56-18.12-26.68-3.45-19.12-3.45-19.12l-6.52,21.73a27.18,27.18,0,0,1,.67,5.82,54.88,54.88,0,0,1-1.49,11.46c-1.89,8.93-3.45,16.26-3.45,16.26a7.22,7.22,0,0,1-5.41,1.13,11,11,0,0,1-4.06-1.58s.22-20.71-.06-26.25-1-8.14-.6-11.77,1.31-12.6,2.53-22S330.9,216,330.9,216l27.4-6s2.86,3.35,3.15,15.41c.23,9.42,1.07,32.93,1.07,32.93,4.32,2.71,5.54,5.62,7.6,10.92,1.3,3.34,2.87,7.87,3.86,10.94A30.82,30.82,0,0,1,374.94,283.61Z"/><path class="cls-49" d="M374.94,283.61c-2.89,5.82-7.19,5.53-7.19,5.53s-17.57-24.56-18.12-26.68-3.45-19.12-3.45-19.12l2.77-9.28s5.67-2.74,9-6.82a38.1,38.1,0,0,1-5.89,8.26s.05,16.72,0,21.26,6.15,14.7,12,22.92c5.13,7.23,9,1.95,9.91.56A30.82,30.82,0,0,1,374.94,283.61Z"/><path class="cls-50" d="M345.87,142c-1-2.82-2.81-3.14-2.81-3.14s-.44-3.49-5.09-4.94-4.78.47-9.67.11-4.11-7.68-6.29-5.07.3,7.93.3,7.93a17.55,17.55,0,0,1-4.81-2.08c-1.76-1.29-4.23-2.56-2.23,2.48a8.49,8.49,0,0,0,7.09,5.29,9.29,9.29,0,0,0,4.21,3.72s-.09.65-.13,1.72c0,.3,0,.64,0,1s0,.52,0,.79c0,2.09.63,3.32,1.56,2.94s1.07-2.73,1.52-3.91a3.08,3.08,0,0,1,.17-.36,5.72,5.72,0,0,1,.88-.7c2-1.27,3.61.14,4.22,2,.69,2.1-.5,4.21-1.35,5.44s-1.8,1-1.8,1c.26,6.12,3.63,7.73,3.86,6.65s.44-3.19.44-3.19a4.32,4.32,0,0,0,.91,1.41c1.18,1.12,3.11.74,2.94-.67-.05-.46-.19-1.38-.19-1.38a8.36,8.36,0,0,0,1.15,1.54c.68.54,2-.14,2.24-1.62a23,23,0,0,1,1.16-4C345.19,151.65,346.89,144.84,345.87,142Z"/><path class="cls-51" d="M326.44,148.05l-5.92.34-4.07.24,0,.44a19.2,19.2,0,0,0,.3,4.78c.4,1.56,2.15,1.81,3.24,1.81a6.18,6.18,0,0,0,.73,0c0-.32,0-.66-.05-1-.39,0-2.63.22-2.95-1a16.57,16.57,0,0,1-.29-4l3.13-.18,5.88-.35,3.07-.18a3.08,3.08,0,0,1,.17-.36,5.72,5.72,0,0,1,.88-.7Z"/><path class="cls-52" d="M329.42,172.29c-1.63,1-6.24,3.26-7.29,6.2s1.82,12.81,4.55,17.44A30.51,30.51,0,0,1,331,207c.43,3-.26,7-.4,8.4s8.36,4.26,17.44,1.17,10.83-6.32,10.72-8.51-1.46-10.47-1.36-19-.6-18.08-3.46-22.71-6.07-3-8.36-1.79S329.42,172.29,329.42,172.29Z"/><path class="cls-53" d="M368.49,291.44s0,0,.06,0h0Z"/><path class="cls-53" d="M385.15,291.14s-.54,17.87-.44,18.31-6.73,4.36-9.49,5.87c-.16.09-.32.16-.47.23s0,0,0,0a4.35,4.35,0,0,1-4.48-1.05,7.61,7.61,0,0,1,1.86-8.38s.35,0,.28-2.68,0-7.06-.71-8a43,43,0,0,0-3.12-3.95l5.75-4,3.14-2.17c2.44,2.25,3.07,2.08,5.7,3.36S385.15,291.14,385.15,291.14Z"/><path class="cls-54" d="M377.25,311.26c-.82,2.2-1.44,3.65-2.5,4.29,0,0,0,0,0,0a4.35,4.35,0,0,1-4.48-1.05,7.61,7.61,0,0,1,1.86-8.38s.35,0,.28-2.68,0-7.06-.71-8a43,43,0,0,0-3.12-3.95l5.75-4c1.11.7,2.46,1.81,2.55,3.16.15,2.34.41,3.22,2.48,4.3C381.07,295.88,378.59,307.67,377.25,311.26Z"/><path class="cls-55" d="M372.8,307.66a.72.72,0,1,1,.72.72A.72.72,0,0,1,372.8,307.66Z"/><circle class="cls-55" cx="373.93" cy="304.13" r="0.72"/><path class="cls-55" d="M373.41,299.37a.72.72,0,1,1,.72.72A.72.72,0,0,1,373.41,299.37Z"/><path class="cls-56" d="M372.1,306.13a9.6,9.6,0,0,0-.89,1.29h0a9.63,9.63,0,0,0-1,7.09c-4.83-.44-6.1-3.23-6.1-3.23a4.65,4.65,0,0,1,2.51-4.16,6.62,6.62,0,0,1,1.05-.55l.05,0A7.07,7.07,0,0,1,372.1,306.13Z"/><path class="cls-57" d="M370.24,314.51c-4.83-.44-6.1-3.23-6.1-3.23a4.65,4.65,0,0,1,2.51-4.16,6.62,6.62,0,0,1,1.05-.55c-.38.28-2.14,2.12-1.59,3.42s3.14-1.58,5.09-2.57A9.63,9.63,0,0,0,370.24,314.51Z"/><path class="cls-58" d="M387.05,291.79c1.27.5.94,4,.14,7.34s-1.24,4.53-.83,7.32.64,4.05-.5,5.07-10.2,5.26-10.2,5.26a33.25,33.25,0,0,0,2-10.49c.24-6.19.65-10.18,3.52-13A5.43,5.43,0,0,1,387.05,291.79Z"/><path class="cls-56" d="M364.14,311.27a16.84,16.84,0,0,0,7.56,3.3c4,.46,4.24-1.09,4.67-5.88s.59-11.42,2.47-14.33,5.06-4.21,6.31-3.92c.26-.13,1.49.8,1.9,1.35a6.92,6.92,0,0,0-5.29,2.13c-2.53,2.46-3,7.68-3.11,12.41s-.32,10.23-4.09,10.8A13.74,13.74,0,0,1,364.28,314,1.92,1.92,0,0,1,364.14,311.27Z"/><path class="cls-56" d="M320.93,305.73l-.2.15-10,7.57c-6.49-1-6.54-3.53-6.54-3.53a5,5,0,0,1,.21-1.07c-.18-2.06,1-4.36,4.39-5.52h0a12.91,12.91,0,0,1,1.93-.49C317.78,301.6,320.93,305.73,320.93,305.73Z"/><path class="cls-57" d="M320.73,305.88l-10,7.57c-6.49-1-6.54-3.53-6.54-3.53a5,5,0,0,1,.21-1.07c-.18-2.06,1-4.36,4.39-5.52-2.74,1.55-2.87,4.64-1.3,6S315.76,304.34,320.73,305.88Z"/><path class="cls-53" d="M336.67,313.22s-4.29,4-8.43,4.09-5.34-1.54-9.94-2.62a47.81,47.81,0,0,0-7.52-1.24,6.67,6.67,0,0,1,.18-.82c.55-2.05,2.76-7.24,10.72-6.88a3.32,3.32,0,0,0,2.44-1.61,13.34,13.34,0,0,0,1.06-3.46l4.76.15,6.17.2a32,32,0,0,0,.32,5.42A25.67,25.67,0,0,1,336.67,313.22Z"/><path class="cls-54" d="M336.67,313.22s-4.29,4-8.43,4.09-5.34-1.54-9.94-2.62a47.81,47.81,0,0,0-7.52-1.24,6.67,6.67,0,0,1,.18-.82c1-.15,6-.86,9.36,0,3.71,1,5.65,1.71,7.82,1.12,4.49-1.23,3-5.08,2.88-7.66-.06-1.69-.33-3.38.39-5.29l4.7.2a32,32,0,0,0,.32,5.42A25.67,25.67,0,0,1,336.67,313.22Z"/><circle class="cls-55" cx="323.21" cy="308.14" r="0.72"/><circle class="cls-55" cx="316.06" cy="308.59" r="0.72"/><path class="cls-55" d="M319,308.86a.72.72,0,1,1,.72.72A.72.72,0,0,1,319,308.86Z"/><path class="cls-58" d="M336.67,313.69a12.57,12.57,0,0,1-8.83,2.94c-5.62-.21-7.25-2.47-12-3s-8.82-.36-11.34-4.27c0,0-.4-.15-.45,1.68s2.61,3.73,5.87,4.24,6.72,0,10.06,1.64,4.89,2.16,7.74,2.3,6.92-1.57,8.89-3.07C337.41,314.2,336.67,313.69,336.67,313.69Z"/><path class="cls-56" d="M336.67,313.21a12.57,12.57,0,0,1-8.83,2.94c-5.62-.2-7.25-2.47-12-3s-8.82-.35-11.34-4.27c0,0-.4-.15-.45,1.69s2.61,3.73,5.87,4.23,6.72,0,10.06,1.65,4.89,2.16,7.74,2.29,6.92-1.57,8.89-3.07C337.41,313.72,336.67,313.21,336.67,313.21Z"/><path class="cls-21" d="M346.38,166.34l0,0c-.26.39-2.56,3.56-9.26,4.74-2.49.44-4.23,0-7.67,1.17a9.89,9.89,0,0,1,3.19-5.57,28.92,28.92,0,0,1,6.6-4.06c1.65-.78,2.89-1.28,2.89-1.28s1.33-1.16,2.51,1.29Z"/><path class="cls-47" d="M324.5,195.26c-3.18,5-10.87,17.28-13.06,18.77-1.79,1.21-8.95,1.87-12.82,2.05s-5.48.47-8.79.74-7.37-2.79-7.37-2.79l-4.3,4.66a0,0,0,0,0,0,0s-.9-1.74.69-4.12,4.21-6.85,7.07-6.43,4.57,2.52,10.9-.11a32.06,32.06,0,0,1,8.56-2.23s6.52-12.32,10.53-18.77c2.25-3.61,4.18-6,6-7.08a4,4,0,0,1,4.23-.08C331.48,182.91,327.67,190.27,324.5,195.26Z"/><path class="cls-44" d="M324.5,195.26c-3.18,5-10.87,17.28-13.06,18.77-1.79,1.21-8.95,1.87-12.82,2.05s-5.48.47-8.79.74-7.37-2.79-7.37-2.79l-4.3,4.66c.19-.32,3.44-6.38,5.77-6.89s4.21,2.15,7.91,2.29,15.59-1.79,17.3-2.61,4.18-5.53,11.38-16.72,3.76-14.73,1.4-14.77v0a4,4,0,0,1,4.23-.08C331.48,182.91,327.67,190.27,324.5,195.26Z"/><path class="cls-21" d="M328.59,189.91a83.31,83.31,0,0,1-5.42,9.88c-1,1-3.22.57-5.5-.54-3.94-1.91-8.1-6-6.73-9.05,0,0,5.18-7.5,7.61-10.2,1.92-2.13,4.18-3.87,7-3a7.35,7.35,0,0,1,2.43,1.3C331.93,181.32,330.15,186.07,328.59,189.91Z"/><path class="cls-59" d="M337.53,295l-.84,5.95c-1.35,2-8.15,1.68-10.95.09l0,0a2.15,2.15,0,0,1-1.16-1.29l0-5.68a.62.62,0,0,1,.83-.59c1.91.68,6.76,2.08,11.39.86A.63.63,0,0,1,337.53,295Z"/><path class="cls-60" d="M337.53,295l-.84,5.95c-1.35,2-8.15,1.68-10.95.09,1.84.7,6.29.26,7.12-.95s-4.16-2.9-6.25-4.32-1.95-1.75-.91-1.13a16.86,16.86,0,0,0,8.58,1.26c3.2-.55,2.83-1.38,2.45-1.58A.63.63,0,0,1,337.53,295Z"/><path class="cls-59" d="M364.1,286.24l3.35,5c2.07,1.18,8.07-2,9.9-4.68,0,0,0,0,0,0a2.17,2.17,0,0,0,.48-1.66l-2.44-5.13a.63.63,0,0,0-1-.17c-1.42,1.44-5.18,4.81-9.88,5.72A.64.64,0,0,0,364.1,286.24Z"/><path class="cls-60" d="M364.1,286.24l3.35,5c2.07,1.18,8.07-2,9.9-4.68-1.35,1.43-5.55,3-6.83,2.24s2.49-4.42,3.75-6.61,1-2.42.33-1.41a16.88,16.88,0,0,1-7.18,4.86c-3.12.9-3.15,0-2.89-.36A.64.64,0,0,0,364.1,286.24Z"/><path class="cls-46" d="M328.59,189.91a83.31,83.31,0,0,1-5.42,9.88c-1,1-3.22.57-5.5-.54a121.53,121.53,0,0,0,7.86-12.74c2.77-5.52,2-8.58,0-9.55a7.35,7.35,0,0,1,2.43,1.3C331.93,181.32,330.15,186.07,328.59,189.91Z"/><path class="cls-46" d="M346.35,166.38c-.26.39-2.56,3.56-9.26,4.74-2.49.44-4.23,0-7.67,1.17a9.89,9.89,0,0,1,3.19-5.57,28.92,28.92,0,0,1,6.6-4.06c-2.28,1.76-2.41,4.79-1.67,5.73S344.12,168.86,346.35,166.38Z"/><path class="cls-40" d="M322.3,305.56s-3.92-1.24-6.69,3c0,0,.28.4.9,0A12.82,12.82,0,0,1,322.3,305.56Z"/><path class="cls-40" d="M323.13,305.21s-2.93-.3-3.69,3.59c0,0,.13.71.75-.17A7.24,7.24,0,0,1,323.13,305.21Z"/><path class="cls-40" d="M322.9,308.22s-.39-2.5.31-3.6,1.16-1,1.16-1a11.62,11.62,0,0,0-.89,4.48C323.5,308.41,322.94,308.49,322.9,308.22Z"/><path class="cls-40" d="M372.39,304.37a1.31,1.31,0,0,0-.56.87,2.69,2.69,0,0,0,1.37,2.49c.51.29.94.17.12-.82A5.17,5.17,0,0,1,372.39,304.37Z"/><path class="cls-40" d="M372.31,301a1.18,1.18,0,0,0-.35.72,4.18,4.18,0,0,0,1.67,2.62c.88.39.41-.59,0-1A18,18,0,0,1,372.31,301Z"/><path class="cls-40" d="M372.09,297.36a.79.79,0,0,0-.42.59c0,.39,1.8,1.76,2.37,1.71s.7-.23,0-.71A23.42,23.42,0,0,1,372.09,297.36Z"/><path class="cls-54" d="M368.49,291.44s0,0,.06,0h0Z"/></g></g></svg>