<svg xmlns="http://www.w3.org/2000/svg" viewBox="0 0 418.91 352.39"><defs><style>.cls-1{fill:#ebf5ff;}.cls-2{fill:#d7e9f7;}.cls-3{fill:#525d65;}.cls-10,.cls-4{fill:#fff;}.cls-5{fill:#cad6dd;}.cls-6{fill:#384457;}.cls-7{fill:#fdb827;}.cls-8{fill:#df4d68;}.cls-9{fill:#ec838e;}.cls-10{opacity:0.4;isolation:isolate;}.cls-11{fill:#ec9b5e;}.cls-12{fill:#ffc94e;}.cls-13{fill:#fdd2b9;}.cls-14{fill:#00b37f;}.cls-15{fill:#7c8b96;}.cls-16{fill:#d8e2e7;}.cls-17{fill:#a6b3bd;}.cls-18{fill:#80b1dd;}</style></defs><title>Asset 1</title><g id="Layer_2" data-name="Layer 2"><g id="Layer_1-2" data-name="Layer 1"><g id="OBJECTS"><path class="cls-1" d="M64.81,112.11l.6,100.1c0,7.6.3,15.8,5.1,21.6,5.4,6.6,14.8,8.1,23.3,9a1312.1,1312.1,0,0,0,241.1,3.2c7-.6,14.6-1.4,19.6-6.3,5.6-5.4,6.4-14,6.7-21.7A821.3,821.3,0,0,0,357,96.51c-.9-8.1-2.3-17-8.6-22.2-4.9-4-11.6-4.7-17.9-5.2q-63.75-5.25-127.9-5.3c-21.3,0-42.7.4-64,1.3-10.7.4-21.5,1-32.3,1.6-8.1.5-17.1.1-25,2.2C64.61,73.21,64.71,98.51,64.81,112.11Z"/><rect class="cls-2" x="94.41" y="96.01" width="89.6" height="54.9"/><rect class="cls-2" x="195.51" y="175.51" width="57.4" height="54.9"/><rect class="cls-2" x="259.01" y="175.51" width="81.6" height="54.9"/><rect class="cls-2" x="196.01" y="96.01" width="38.8" height="70.5"/><rect class="cls-2" x="248.91" y="95.51" width="38.8" height="26.7"/><rect class="cls-2" x="143.21" y="206.71" width="38.8" height="26.7"/><rect class="cls-2" x="94.91" y="206.71" width="38.8" height="26.7"/><rect class="cls-2" x="295.71" y="95.51" width="38.8" height="26.7"/><rect class="cls-2" x="249.41" y="128.71" width="88.6" height="3.5"/><rect class="cls-2" x="249.41" y="135.21" width="88.6" height="3.5"/><rect class="cls-2" x="249.41" y="141.81" width="88.6" height="3.5"/><rect class="cls-2" x="249.41" y="148.31" width="88.6" height="3.5"/><rect class="cls-2" x="249.41" y="154.91" width="88.6" height="3.5"/><rect class="cls-2" x="249.41" y="161.41" width="88.6" height="3.5"/><rect class="cls-2" x="92.81" y="157.91" width="88.6" height="3.5"/><rect class="cls-2" x="92.81" y="164.41" width="88.6" height="3.5"/><rect class="cls-2" x="92.81" y="171.01" width="88.6" height="3.5"/><rect class="cls-2" x="92.81" y="177.51" width="88.6" height="3.5"/><rect class="cls-2" x="92.81" y="184.01" width="88.6" height="3.5"/><rect class="cls-2" x="92.81" y="190.61" width="88.6" height="3.5"/><path class="cls-3" d="M345.81,63.71c13.8,3.1,20,11.6,19.8,25.4,0,6.2,0,12.4-.1,18.6-.3,26.7-1.2,53.5-1.2,80.2-.1,17,0,34-.4,50.9-19.3.2-38.6.5-58,.4-20.1-.1-40.3-.6-60.4-.8-40.3-.3-80.5.1-120.8.1-22.4,0-44.8-.2-67.1.7-.6-16.4-.4-32.9-.7-49.4-.2-17.8-.3-35.6-.5-53.5-.1-9-.1-18-.2-27,0-7-.3-14.2.7-21.2.8-6,2.6-12.1,7-16.5,5.2-5.3,12.8-5.8,19.7-6,35.9-.9,71.8-1.2,107.7-1.8s71.7-1.1,107.5-1.6l27-.3C332.51,62.21,339.21,62.31,345.81,63.71Zm10.4,153c.9-6.9.1-14.1,0-21-.2-8.1-.4-16.3-.6-24.4-.4-16-.8-31.9-1.1-47.9-.2-7.6-.3-15.3-.5-22.9-.2-6.1-.9-12.6-4.6-17.7-7.4-10.2-22-9.2-33.3-9.4-42.5-.5-85.1-1.9-127.6-.8-5.3.1-10.6.1-16,.2-16.4-.1-32.8-.1-49.2-.2-7.8,0-15.6-.2-23.4,0-5.8.2-11.9.7-17.3,3a20.44,20.44,0,0,0-11.2,10.8c-2.6,6-2.5,12.7-2.6,19.1-.2,16-.4,32.1-.7,48.1s-.5,32.1-.7,48.1c-.1,6.2-.7,13,2.1,18.8,2.5,5.4,7.7,8.2,13.4,9.2,6.6,1.1,13.5.6,20.2.6l25.1-.1,49.2-.1,99.4-.2,49.2-.1h12a29.32,29.32,0,0,0,9.8-1.2c5.2-2,7.7-6.7,8.4-11.9Z"/><path class="cls-4" d="M285.71,333c-3.2-3.5-9.5-3.1-13.8-3.5-5.6-.4-11.3-.7-16.9-1q-33.15-1.65-66.3-.6c-1,.1-2.1.2-3.1.2-1.6-.2-3.2-.5-4.8-.7a94.69,94.69,0,0,0-29.1.9c-4.4.8-9,2.2-11.9,5.7-1.4,1.8-2.2,4.5-.8,6.2,1,1.3,2.8,1.6,4.5,1.8a152.8,152.8,0,0,0,24.4,1c4.1-.2,8.2-.5,12.3-1,3.4-.4,7-1.5,10.4-.9,3.1.5,6.5.1,9.6.1l66.9-.3c4.8,0,9.9.5,14.6-.3,1.8-.3,4-.9,5-2.5S287,334.41,285.71,333Z"/><path class="cls-5" d="M210.11,275.61l46.9.5c-.8,3.3-.5,7-.6,10.2-.1,4.3-.1,8.6-.1,12.9s0,8.6.1,12.9c0,4-.3,8.2,0,12.2-21-1.1-42.1-1.3-63.1-.7-6.2.2-12.4.4-18.6.8.2-4.1-.3-8.3-.5-12.4-.2-4.5-.4-8.9-.6-13.4-.2-4.3-.4-8.6-.7-12.9-.2-3.3,0-7.2-.7-10.5Z"/><path class="cls-4" d="M363.81,243.11c-.2,5.9-.8,12.2-3.5,17.5-3.4,6.4-9.5,9.4-16.4,10.6-7.4,1.3-15.2.7-22.7.6l-27.1-.3-53.8-.6-108.1-1.2-26.6-.3c-8.1-.1-16.2.2-24.3-.5-6.5-.6-13.3-2.2-17.8-7.3s-5.5-12.7-5.7-19.5V241c19.6.9,39.3.9,59,1,20.1.1,40.3.3,60.4.5s40.3.3,60.4.4,40.3-.4,60.4-.4C319.81,242.41,341.81,242.81,363.81,243.11Z"/><path class="cls-6" d="M364.91,68.41c-8-9.1-21.3-10.9-32.7-11.1-8.6-.1-17.2.3-25.8.4l-28.1.3-56.3.7q-56.25.75-112.5,1.2c-9.2.1-18.3,0-27.5.3-7.5.2-15.1,1.4-21,6.4-10.4,8.8-10.1,24.6-9.9,37q.9,56.25,1.5,112.4c.1,8.8,0,17.7.3,26.5.3,6.9,1.2,14.2,5.1,20,8.6,12.8,25.9,11.6,39.4,11.8l71.3.9c-.5,3.2-.1,6.9,0,10,.1,4.5.1,8.9.2,13.4.1,4.3.2,8.6.4,12.9.1,4.1,0,8.4.4,12.5-3.4,0-6.8.1-10.2.4-6.9.6-14.8,1.7-20.8,5.3-5.3,3.2-6.1,9.5-.8,13.2,2.8,2,6.3,2.1,9.6,2.3,4.3.3,8.6.4,12.9.5,4.6.1,9.2,0,13.8-.2l3.3-.2h6.6c26.2-.1,52.4,0,78.5-.1,6,0,12.1.4,18.1-.2,3.9-.4,8.2-1.6,10.1-5.3,2-4.1-.2-8.9-3.7-11.3-4.3-3-10.1-2.8-15.1-3.2-3.7-.2-7.3-.5-11-.7.3-4.1-.1-8.4-.1-12.5,0-4.3,0-8.6-.1-12.9l-.3-12.9c-.1-3.1.1-6.9-.7-10.2l63,.8c14,.2,31.4,1.7,40.7-11.2,4-5.6,5.4-12.9,5.8-19.7.5-8.5.2-17,.3-25.5,0-18.9,0-37.8.1-56.7,0-17,.2-33.9.8-50.9,0-1.3.1-2.5.2-3.8C371.41,95.51,374.61,79.41,364.91,68.41ZM174.21,312c-.2-4.5-.4-8.9-.6-13.4-.2-4.3-.4-8.6-.7-12.9-.2-3.3,0-7.2-.7-10.5l37.9.5,46.9.5c-.8,3.3-.5,7-.6,10.2-.1,4.3-.1,8.6-.1,12.9s0,8.6.1,12.9c0,4-.3,8.2,0,12.2-21-1.1-42.1-1.3-63.1-.7-5.7.2-11.5.4-17.2.7l-1.4-.1C174.81,320.21,174.31,316,174.21,312Zm97.7,17.6c4.3.3,10.6-.1,13.8,3.5,1.3,1.4,2.1,3.5,1,5.2s-3.2,2.2-5,2.5c-4.7.8-9.8.3-14.6.3-29.9.1-59.9-.2-89.8.2-5.3.1-10.6.5-15.9.5-4.3,0-8.6-.2-12.9-.5-2.8-.2-9.7-.1-9.7-4.4,0-3.4,5.2-4.6,7.7-5.4,9.2-2.9,19.3-2.4,28.8-2.8,10.5-.5,21-1,31.6-1.1,15.2-.1,30.3.1,45.4.8l2.7.1c5.6.3,11.3.7,16.9,1.1Zm88.3-69c-3.4,6.4-9.5,9.4-16.4,10.6-7.4,1.3-15.2.7-22.7.6l-27.1-.3-53.8-.6-108.1-1.2-26.6-.3c-8.1-.1-16.2.2-24.3-.5-6.5-.6-13.3-2.2-17.8-7.3s-5.5-12.7-5.7-19.5V241c19.6.9,39.3.9,59,1,20.1.1,40.3.3,60.4.5s40.3.3,60.4.4,40.3-.4,60.4-.4c22,0,44,.4,65.9.8-.2,5.8-.8,12-3.6,17.3Zm5.3-171.4c0,6.2,0,12.4-.1,18.6-.3,26.7-1.2,53.5-1.2,80.2-.1,17,0,34-.4,50.9-19.3.2-38.6.5-58,.4-20.1-.1-40.3-.6-60.4-.8-40.3-.3-80.5.1-120.8.1-22.4,0-44.8-.2-67.1.7-.6-16.4-.4-32.9-.7-49.4-.2-17.8-.3-35.6-.5-53.5-.1-9-.1-18-.2-27,0-7-.3-14.2.7-21.2.8-6,2.6-12.1,7-16.5,5.2-5.3,12.8-5.8,19.7-6,35.9-.9,71.8-1.2,107.7-1.8s71.7-1.1,107.5-1.6l27-.3c6.6,0,13.4,0,19.9,1.5,14,3.3,20.2,11.8,19.9,25.7Z"/><path class="cls-6" d="M356.11,195.71c.2,6.9,1,14.1,0,21-.7,5.1-3.1,9.9-8.3,11.8-3.1,1.2-6.5,1.2-9.8,1.2H326l-49.2.1-99.4.2-49.2.1-25.1.1c-6.7,0-13.6.5-20.2-.6-5.8-1-10.9-3.8-13.4-9.2-2.7-5.8-2.1-12.6-2.1-18.8.3-16,.5-32.1.7-48.1s.4-32.1.7-48.1c.1-6.4,0-13,2.6-19.1a20.26,20.26,0,0,1,11.1-10.8c5.4-2.3,11.4-2.8,17.3-3,7.8-.2,15.6,0,23.4,0,16.4.1,32.8.1,49.2.2,5.3,0,10.6,0,16-.2,42.5-1.1,85.1.3,127.6.8,11.3.1,25.9-.8,33.3,9.4,3.7,5.1,4.4,11.7,4.6,17.7.3,7.6.4,15.2.5,22.9.4,16,.8,31.9,1.1,47.9C355.81,179.41,355.91,187.51,356.11,195.71Zm-2.9,20.2c.6-6.7,0-13.6-.1-20.3-.5-30.6-1-61.3-1.6-91.9-.1-6.1-.2-12.8-3.7-18.1s-10.1-7.5-16.3-8.2c-6.6-.8-13.3-.6-20-.8l-24-.5-39.5-.7c-31-.1-62.1-.3-93.1-.5l-47.2-.3c-11.1-.1-26-.6-32.6,10-3.5,5.6-3.4,12.6-3.5,18.9-.2,7.8-.4,15.7-.5,23.6-.3,15.4-.7,30.8-1,46.1-.2,7.5-.3,15.1-.5,22.6-.1,6.6-1.1,13.9.8,20.3,1.9,6.8,7.8,9.8,14.6,10.6s13.8.4,20.6.4l188.8.7,24.1.1c7.4,0,14.9.4,22.3,0,3.5-.1,7.1-.8,9.5-3.5C352.21,222.11,352.91,218.91,353.21,215.91Z"/><path class="cls-5" d="M292.81,252.51c-.1.5-.2,1-.3,1.4-.8,2.4-2.4,5-5.1,5.6-5,1.1-7.1-3.7-8.3-8a12.67,12.67,0,0,0,4.7.9c2.4.1,4.8.3,7.2.3A14.05,14.05,0,0,0,292.81,252.51Z"/><path class="cls-5" d="M293.71,245.31c.4,2.1-.2,3.4-2.5,3.5a41,41,0,0,1-6.1-.2c-1.7-.1-3.6.3-4.6-1.4a6.8,6.8,0,0,1-.6-4,5.9,5.9,0,0,1,.2-1.4c2.4.3,4.9.5,7.3.7a20.93,20.93,0,0,0,5.6.1C293.21,243.51,293.51,244.41,293.71,245.31Z"/><path class="cls-7" d="M284,209.11l11.2-.8c-3.1,10.5-6.1,21-9.1,31.5h-.7a236,236,0,0,0-7.5-23.4c-.8-2.3-3.1-5.6.3-6.9a11.8,11.8,0,0,1,2-.4C281.51,209.11,282.91,209.21,284,209.11Z"/><path class="cls-7" d="M297.91,193.31a21.21,21.21,0,0,1,6.9,29.1c-.5.8-1.1,1.6-1.7,2.4-3.4,4.1-10.7,6.1-11.5,12a6.66,6.66,0,0,0,.2,2.8,19.29,19.29,0,0,0-3.4,0c2.9-10.7,5.9-21.4,8.8-32.2a.92.92,0,0,0-.7-1.1h-.2l-15.8,1.5H280c-2.7.2-6.6-.1-6.2,3.6.3,2.3,1.4,4.7,2.1,6.9.8,2.5,1.6,5,2.5,7.4,1.7,4.7,3.4,9.4,5.4,14l-3.9.3a11,11,0,0,0-.9-6.9c-1.4-2.4-3.8-4-6-5.7a23.29,23.29,0,0,1-6.3-7.3,20.45,20.45,0,0,1-1.1-15.9c.1-.1.1-.1.1-.2C270.91,191.61,286.51,186.31,297.91,193.31Z"/><path class="cls-6" d="M285.51,239.81l-1.4.1c-2.1-4.6-3.7-9.3-5.4-14-.9-2.5-1.7-5-2.5-7.4-.7-2.2-1.9-4.6-2.1-6.9-.4-3.7,3.5-3.4,6.2-3.6l.1,1.2a4.48,4.48,0,0,0-2,.4c-3.5,1.3-1.1,4.6-.3,6.9C280.91,224.11,283.41,231.91,285.51,239.81Z"/><path class="cls-6" d="M284,209.11c-1,.1-2.5,0-3.8.1l-.1-1.2h.5l15.8-1.5a.9.9,0,0,1,.9.9v.2c-2.9,10.7-5.9,21.4-8.8,32.2a19.29,19.29,0,0,1,3.4,0,8.83,8.83,0,0,1-.2-2.8c.8-5.9,8-7.9,11.5-12a21.22,21.22,0,0,0-2.8-29.8,14.65,14.65,0,0,0-2.4-1.7c-11.4-7-27-1.7-31.9,10.8a.35.35,0,0,1-.1.2,20.45,20.45,0,0,0,1.1,15.9,20.14,20.14,0,0,0,6.3,7.3c2.2,1.7,4.6,3.2,6,5.7,1.3,2.3,1.2,4.5.9,6.9l3.9-.3,1.4-.1h.7c3-10.5,6-21,9.1-31.5Zm18.8-17.3c11.7,9.4,12.1,26.9,1.6,37.4-2.4,2.4-6.6,3.9-8.2,6.8-1.2,2.3.3,4.7.9,6.9a11.58,11.58,0,0,1,.5,4.9,6.36,6.36,0,0,1-.6,1.8c.3,2.9-1.3,6.6-2.6,8.6a10,10,0,0,1-7.7,4.8c-7.2.2-10.5-7.2-9.9-13.4a9.85,9.85,0,0,1-1.2-6.3c.2-2.3,1.2-4.8.5-7.1-.6-1.9-2.3-3.2-3.8-4.4-6.1-4.8-10.4-10.7-11.1-18.6a23.72,23.72,0,0,1,14.3-23.6,27.68,27.68,0,0,1,4.6-2.2c7.7-2.7,16.4-.7,22.7,4.4Zm-11.6,57c2.2-.2,2.9-1.4,2.5-3.5a27.59,27.59,0,0,0-.8-2.7,21,21,0,0,1-5.6-.1c-2.4-.1-4.9-.4-7.3-.7-.1.5-.1.9-.2,1.4a6.8,6.8,0,0,0,.6,4c1,1.6,3,1.3,4.6,1.4,2.1.2,4.2.2,6.2.2Zm1.3,5.1a7,7,0,0,0,.3-1.4,12.25,12.25,0,0,1-1.9.2c-2.4,0-4.8-.2-7.2-.3a12.67,12.67,0,0,1-4.7-.9c1.2,4.3,3.4,9.1,8.3,8,2.7-.6,4.3-3.1,5.2-5.6Z"/><path class="cls-6" d="M418.11,291.71c2,10.4-2.5,20.5-10.9,26.7-9.1,6.6-21.3,7.1-31.5,2.9-9.5-4-17.4-12.4-16.9-23.3.5-10.1,8-19.8,17.3-23.9.2-2.6.3-5.1.4-7.7-.2-3.2-.4-6.4-.5-9.7-.2-4.1-.7-8.3-.5-12.3.4-6.9,7-7.9,12.6-7.4,2.8.3,5.7.9,7.6,3.3,2,2.6,1.6,6.1,1.5,9.2-.4,8-.8,16-1.3,24.1A22.3,22.3,0,0,1,418.11,291.71Zm-11.7,21.9a21.89,21.89,0,0,0,6.9-23.4,19.64,19.64,0,0,0-3-5.5c-.8,2.8-3.5,5.7-5.2,7-3.9,3-8.9,4-13.8,3.8a27.21,27.21,0,0,1-21.3-11.6,17,17,0,0,0-2.9,3.1,20.17,20.17,0,0,0-4.1,14c1,9.1,9.7,15.2,17.9,17.5,8.8,2.5,18.5,1.1,25.5-4.9Zm.2-27.4a16.29,16.29,0,0,0,1.1-3.1c-4.5,3.8-10.5,5.6-16.4,3.8-3.7-1.1-7-3.4-10.8-4.3a18.69,18.69,0,0,0-9.1.1l-.7.6a28.67,28.67,0,0,0,19.1,10.1,20.6,20.6,0,0,0,12.6-2.8A13.61,13.61,0,0,0,406.61,286.21Zm-9.9-.3a13.94,13.94,0,0,0,10-4.7,18.81,18.81,0,0,0-13.2-3.3,2.22,2.22,0,0,1-2.2-2.2l1.4-20.5c.2-3.1.6-6.2.6-9.4,0-3.5-2-4.7-5.2-5-2.1-.2-5.4-.9-7.1.8s-.6,7.9-.5,10.4c.1,7.9.2,15.8.6,23.7a2.61,2.61,0,0,1-1.3,2.2c-2.1,1.1-4.1,2.1-6,3.2a21.55,21.55,0,0,1,12,1.7C389.21,284.41,392.71,286.11,396.71,285.91Z"/><path class="cls-8" d="M413.31,290.21a21.89,21.89,0,0,1-6.9,23.4c-7,6-16.7,7.5-25.4,5-8.2-2.3-16.9-8.4-17.9-17.5a20.17,20.17,0,0,1,4.1-14,21.3,21.3,0,0,1,2.9-3.1,27.59,27.59,0,0,0,21.3,11.7,21.76,21.76,0,0,0,13.8-3.8c1.8-1.4,4.5-4.3,5.2-7A18,18,0,0,1,413.31,290.21Z"/><path class="cls-9" d="M407.61,283.11a16.29,16.29,0,0,1-1.1,3.1,13.88,13.88,0,0,1-4.2,4.5,20.6,20.6,0,0,1-12.6,2.8c-7.5-.5-14.3-4.5-19.1-10.1l.7-.6a17.56,17.56,0,0,1,9.1-.1c3.8.9,7.1,3.2,10.8,4.3A17.69,17.69,0,0,0,407.61,283.11Z"/><path class="cls-10" d="M406.71,281.31a14.33,14.33,0,0,1-10,4.7c-4,.2-7.5-1.6-11-3.1a21.42,21.42,0,0,0-12-1.7c1.9-1.1,3.9-2.1,6-3.2a2.48,2.48,0,0,0,1.3-2.2c-.4-7.9-.5-15.8-.6-23.7,0-2.5-1.3-8.6.5-10.4s5-1,7.1-.8c3.3.3,5.2,1.5,5.2,5,0,3.1-.4,6.3-.6,9.4l-1.4,20.5a2.22,2.22,0,0,0,2.2,2.2A18.11,18.11,0,0,1,406.71,281.31Z"/><path class="cls-6" d="M418.71,234.81c.7,1.7-.5,4.2-2.6,3.4a128,128,0,0,1-42.1-24.8,131.92,131.92,0,0,1-15.5-16.2,1.09,1.09,0,0,1-.9-.4,111.34,111.34,0,0,1-8.9-12.7c-1.5-2.6-3.3-5.5-3.5-8.6-5,1.7-11.7-3.9-14.4-7.4a20.62,20.62,0,0,1-4-8.6c-.8-3.5-1-8.9-5-10.4-2.1-.8-1.3-4.2,1-3.5,7.5,2.2,15.9,3.9,22.4,8.5,4.6,3.2,8.1,8.6,7.2,14.2a6.71,6.71,0,0,1,1.4.9c3.8,2.6,7.7,5.2,11.5,7.8a267.56,267.56,0,0,1,22.5,17.2C400.51,205.51,411.91,218.91,418.71,234.81Zm-6.6-3a100.07,100.07,0,0,0-10.3-16.1c-9.5-12-21.4-22-33.7-31l-1.4-1c-1.9.9-3.7,1.6-5.2,3.3a12.68,12.68,0,0,0-2.5,4.9,144.9,144.9,0,0,0,17.5,18.4,132.15,132.15,0,0,0,35.6,21.5Zm-47.5-49.6c-2.1-1.5-4.2-2.9-6.3-4.4-1.8-1.2-3.5-2.5-5.3-3.7-1.5-1-2.8-2.6-4.1-.5-.8,1.3-.6,2.9.1,4.6,2.8,4.1,5.7,8.2,8.8,12.1a12,12,0,0,1,6.8-8.1Zm-16.2-13.6c1.5-5.4-2.6-10.1-7.1-12.8h0c-2.6.9-2.4,3.2-3.1,5.4a4.61,4.61,0,0,1-2.1,2.8,3.28,3.28,0,0,1-2.9.1,19,19,0,0,0,5.1,5.1c2.2,1.4,5.1,1.9,7.3,3.3l.3-.9a6,6,0,0,1,2.5-3Zm-11.3-11.5a4.9,4.9,0,0,1,1.8-2.5,65.86,65.86,0,0,0-10.5-3.8c1.6,3.5,1.9,7.9,3.6,11.4l.1.2c1.5,1.3,3.7.4,4.3-1.7.4-1.1.4-2.4.7-3.6Z"/><path class="cls-11" d="M401.81,215.71a93.64,93.64,0,0,1,10.3,16.1,127.08,127.08,0,0,1-35.6-21.6,139.24,139.24,0,0,1-17.6-18.4,13.42,13.42,0,0,1,2.5-4.9c1.5-1.7,3.3-2.4,5.2-3.3l1.4,1C380.51,193.71,392.31,203.61,401.81,215.71Z"/><path class="cls-12" d="M358.31,177.71c2.1,1.4,4.2,2.9,6.3,4.4a12,12,0,0,0-6.8,8.1c-3.1-3.9-6-8-8.8-12.1-.6-1.7-.8-3.3-.1-4.6,1.3-2.1,2.6-.5,4.1.5C354.81,175.31,356.61,176.51,358.31,177.71Z"/><path class="cls-13" d="M341.31,155.91c4.6,2.7,8.6,7.3,7.1,12.8a6.09,6.09,0,0,0-2.6,3.1l-.3.9c-2.2-1.4-5-1.9-7.3-3.3a17.7,17.7,0,0,1-5.1-5.1,3.66,3.66,0,0,0,2.9-.1,4.27,4.27,0,0,0,2.1-2.8c.8-2.3.5-4.6,3.2-5.5Z"/><path class="cls-8" d="M338.91,154.71a5.77,5.77,0,0,0-1.8,2.5c-.4,1.2-.4,2.5-.8,3.7-.6,2.1-2.8,3-4.3,1.7l-.1-.2c-1.7-3.6-2-7.9-3.6-11.4A49.35,49.35,0,0,1,338.91,154.71Z"/><path class="cls-6" d="M89.71,131.31c.2,1.5,1.1,4.5.2,5.9-2.2,3.8-10.6.4-13.6-.2a23.54,23.54,0,0,1-9.5-4c-6.2-4.6-11.1-11.3-16.3-17-5.8-6.4-11.6-12.9-17.3-19.4-1.9-2.2-3.8-4.3-5.6-6.5-1.3-1.4-2.6-2.7-3.9-4.1-3.9-4.1-9.1-8.4-11-13.9-1.4-4-.7-8.8,3-11.4A12.21,12.21,0,0,1,27,60c5,2.1,8.7,6.5,12.5,10.2l13.3,13c8.8,8.6,17.7,17.1,26.4,25.8a34.49,34.49,0,0,1,8.6,12.7A46.61,46.61,0,0,1,89.71,131.31Zm-4.3,3c-.1-1.6-.3-3.1-.5-4.7-.9.6-1.7,1.2-2.5,1.8-.6.5-1.1,1.1-1.7,1.7C82.31,133.51,83.91,133.91,85.41,134.31Zm-.9-7.3a25.16,25.16,0,0,0-1.3-4.7,14.72,14.72,0,0,0-1-2.2,25.48,25.48,0,0,0-6.6,4.2c-1.9,1.9-2.9,4.1-4.1,6.3a31.55,31.55,0,0,0,7.4,2.2,18.08,18.08,0,0,1,1.9-2.9A10.62,10.62,0,0,1,84.51,127Zm-3.5-8.9a50.05,50.05,0,0,0-7.5-8.4c-7.5-7.4-15-14.9-22.6-22.3l-8.5-8.3c-1.4,1.5-3.2,2.7-4.6,4l-1,.8c3.4,2.1,6.4,5.5,9.2,8.3l10.1,9.7c6.6,6.3,13.2,12.7,19.8,19.1A21.6,21.6,0,0,1,81,118.11Zm-11.1,11.6a16.79,16.79,0,0,1,4.3-7.1c-6.5-6.4-13-12.9-19.5-19.4l-9.9-9.9c-2.8-2.8-6.3-5.7-8.5-9.1a49.16,49.16,0,0,1-5.8,4.4l.9,1c1.5,1.5,2.9,2.9,4.3,4.4,5.7,6,11.4,12.1,17.1,18.2l8.8,9.5a54.6,54.6,0,0,0,7.7,7.5Zm-30.2-53.3c-.7-.7-1.4-1.4-2.1-2.2-1.7,1.4-3.6,2.7-5.2,4.3a78,78,0,0,0-5.7,5.8l2.3,2.6a54.34,54.34,0,0,1,6.3-6.4C36.71,79.31,38.11,77.71,39.71,76.41Zm-3.5-3.5-2.1-2.1a71.92,71.92,0,0,0-5.9,5.1c-1.5,1.5-2.9,3.4-4.5,4.9l2.5,2.8A46.14,46.14,0,0,1,36.21,72.91Zm-4.5-4.5c-.8-.7-1.5-1.4-2.3-2-3-2.5-8-4.9-11.6-2-4,3.2-.5,8.8,1.9,11.7l2.3,2.8a32,32,0,0,1,4.2-5.5A43.54,43.54,0,0,1,31.71,68.41Z"/><path class="cls-3" d="M84.91,129.61c.2,1.6.4,3.1.5,4.7a35.74,35.74,0,0,0-4.7-1.1,13.65,13.65,0,0,1,1.7-1.7A23.48,23.48,0,0,1,84.91,129.61Z"/><path class="cls-13" d="M83.21,122.31a25.16,25.16,0,0,1,1.3,4.7,10.26,10.26,0,0,0-3.6,2.9,14.52,14.52,0,0,0-1.9,2.9,27.43,27.43,0,0,1-7.4-2.2c1.2-2.2,2.2-4.4,4.1-6.3a21.8,21.8,0,0,1,6.6-4.2C82.61,120.91,82.91,121.61,83.21,122.31Z"/><path class="cls-14" d="M73.51,109.71a54.3,54.3,0,0,1,7.5,8.4,19.21,19.21,0,0,0-5,2.9l-19.8-19.2-10.1-9.7c-2.8-2.7-5.8-6.2-9.2-8.2l1-.8a54.73,54.73,0,0,0,4.6-4l8.5,8.3C58.51,94.81,66,102.21,73.51,109.71Z"/><path class="cls-14" d="M74.21,122.61a16.79,16.79,0,0,0-4.3,7.1l-.4-.3c-2.9-2-5.3-4.9-7.7-7.5l-8.8-9.5c-5.7-6.1-11.4-12.2-17.1-18.2-1.4-1.5-2.9-3-4.3-4.5l-.9-1c2-1.4,3.9-2.8,5.8-4.4,2.1,3.4,5.7,6.3,8.5,9.1l9.9,9.9C61.21,109.71,67.71,116.21,74.21,122.61Z"/><path class="cls-7" d="M37.61,74.21c.7.7,1.4,1.4,2.1,2.2a59.54,59.54,0,0,0-4.4,4.2A63.45,63.45,0,0,0,29,87l-2.3-2.7c1.8-2,3.7-3.9,5.7-5.8C34,77,35.91,75.71,37.61,74.21Z"/><path class="cls-7" d="M34.11,70.71l2.1,2.2c-4,2.8-7.3,6.9-10.1,10.8l-2.5-2.8c1.6-1.4,3-3.3,4.5-4.9C30.11,74.11,32,72.41,34.11,70.71Z"/><path class="cls-9" d="M29.41,66.41l2.3,2a50.78,50.78,0,0,0-5.4,5,25.49,25.49,0,0,0-4.3,5.5l-2.4-2.8c-2.4-2.9-5.9-8.5-1.9-11.7C21.41,61.51,26.31,63.91,29.41,66.41Z"/><path class="cls-10" d="M95.51,188.21c9.3,5.3,13.8,17.5,10.6,27.7s-14.2,16.9-24.8,16c-11.2-.9-20.2-11.1-21.2-22-.8-9,4.2-17.1,11.4-21.8C78.91,184.31,88.21,184.11,95.51,188.21Z"/><path class="cls-6" d="M101.21,188.21c9,7.9,12,22.2,6.2,32.9s-19.5,16.6-31.2,13.1-20.3-16-18.8-28.3a26.8,26.8,0,0,1,9.3-16.9C75.91,180.11,91.51,179.71,101.21,188.21Zm4.8,27.7c3.2-10.1-1.2-22.4-10.6-27.7a25.58,25.58,0,0,0-23.9-.1c-7.2,4.7-12.2,12.8-11.4,21.8.9,10.9,10,21.1,21.2,22C91.81,232.81,102.81,226.11,106,215.91Z"/><path class="cls-5" d="M76.21,234.11c11.7,3.6,25.4-2.4,31.2-13.1s2.8-24.9-6.2-32.9c-9.7-8.5-25.3-8.1-34.5.7a26.8,26.8,0,0,0-9.3,16.9C55.91,218.11,64.41,230.51,76.21,234.11Zm23.8-53.7c12.9,7.4,19,24.3,14.6,38.3s-19.7,23.4-34.3,22.2c-15.5-1.3-28-15.4-29.3-30.5-1.1-12.5,5.8-23.6,15.8-30.2C77.11,175,89.91,174.61,100,180.41Z"/><path class="cls-6" d="M51,210.41c1.3,15.1,13.8,29.3,29.3,30.5,14.6,1.2,29.8-8,34.3-22.2s-1.7-31-14.6-38.3c-10.1-5.7-22.9-5.4-33.2-.2C56.81,186.71,49.91,197.91,51,210.41Zm-2.4,38.2a38,38,0,0,1,5.2-5.4l6.6-6.4a33.41,33.41,0,0,1-3.3-3.2,68.55,68.55,0,0,1-6.7,5.6,38.69,38.69,0,0,1-5.9,4.8,9.6,9.6,0,0,1,4.1,4.6Zm-44,33.9c1.3,4.9,7.6,2.6,10.4.8,4-2.6,7.6-5.9,11.3-8.9l11.2-9.1c3.3-2.8,7.1-6.1,7.8-10.6.8-5.3-3.6-8.9-8.6-6.7a12.29,12.29,0,0,0-2.5,1.4c-7.6,7.5-15.2,15-23.2,22.4-2.7,2.5-7.6,6.4-6.4,10.7Zm103.3-102.2c12.5,11,16.6,30.8,8.6,45.5s-27,23-43.2,18.1a35.28,35.28,0,0,1-10.1-5l-7.1,6.5c-1.9,1.8-4.2,4.2-6.7,5.4a13.45,13.45,0,0,1,0,4.9c-1.1,5.4-5.2,9.4-9.3,12.7-4.9,4-9.9,7.9-14.8,11.9-4,3.3-8.2,7.8-13.4,9.1-4.2,1.1-9.1-.3-11.1-4.4-2.2-4.8.4-9.9,3.8-13.3,4.2-4.1,8.8-7.9,13.3-11.7,3.7-3.8,7.4-7.5,11.2-11.2,3.4-3.2,7.9-6.6,12.7-5.7,1.5-2.4,4.2-4.4,6.2-6.2,1.6-1.4,3.2-2.9,4.9-4.3.6-.5,1.3-1.1,1.9-1.7a36.33,36.33,0,0,1-7.6-26.2,36.72,36.72,0,0,1,12.9-23.4C72.81,169.21,94.41,168.51,107.91,180.31Z"/><path class="cls-15" d="M53.81,243.21a44.24,44.24,0,0,0-5.2,5.4,10.14,10.14,0,0,0-4.1-4.6,45.77,45.77,0,0,0,5.9-4.8c2-1.8,4.7-3.5,6.7-5.6,1.1,1.1,2.2,2.2,3.3,3.2Z"/><path class="cls-9" d="M15,283.31c-2.8,1.9-9.1,4.1-10.4-.8-1.2-4.3,3.7-8.2,6.4-10.7,8-7.3,15.6-14.9,23.3-22.5a20.13,20.13,0,0,1,2.5-1.4c5-2.2,9.4,1.4,8.6,6.7-.7,4.5-4.4,7.9-7.8,10.6-3.7,3.1-7.5,6.1-11.2,9.1S19,280.71,15,283.31Z"/><path class="cls-6" d="M114.11,315.31c.1,5.6.1,11.3,0,17-.1,4.5.3,9.7-1.9,13.8-4.4,8.2-16.2,6.1-23.8,5.9-11.6-.4-23.2-.7-34.8-1.1-5.5-.2-11.1-.2-16.7-.5-3.7-.2-7.8-1.2-9.3-5-.9-2.1-.7-4.5-.8-6.8,0-2.9-.1-5.8-.1-8.6-.1-5.8-.2-11.5-.3-17.3-.1-3-.1-6-.2-9a16.5,16.5,0,0,1,.7-5.8,8.36,8.36,0,0,1,6.2-5.3l-.9-2.7c-.6-1.8-1.4-3.8-.7-5.6,1.3-3.1,5.7-3.4,8.5-4,2.6-.6,7-2.2,8.2,1.4.6,1.9.4,4.2.5,6.1.1,1.2.3,2.4.3,3.6,1.7,0,3.5-.1,5.2-.1-1.3-3.9-.8-8.8,1.7-12,3.5-4.5,9.5-3.7,14.5-3.6,3.3,0,6.5,0,9.8.1,2.2,0,4.5.2,6.3,1.6a8.12,8.12,0,0,1,2.9,5.6c.4,2.7-.3,5.8.8,8.4a2.35,2.35,0,0,1,.2.8l3.6.1c-.4-1.7-.6-3.5-.9-5.2a6.82,6.82,0,0,1,.1-4c1.3-3,6.1-1.9,8.7-2,3,0,6.7-.4,8.2,2.9s-.7,6.4-.6,9.6v.1a6.45,6.45,0,0,1,3.2,3.5c1,2.5.8,5.5,1,8.1C113.91,308.71,114,312,114.11,315.31Zm-4.3,18.5c.2-7.4,0-14.8-.2-22.2-1.3,0-2.6-.1-3.9-.1l-5.7-.1c-2.1-.1-4.1-.1-6.2-.3-1.3-.1-2.6-.3-3.9-.5a20.83,20.83,0,0,1,1.8,13,22.71,22.71,0,0,1-5.4,10.7,42.1,42.1,0,0,1,5-.4h15.5A14.81,14.81,0,0,1,109.81,333.81Zm-.2,3.6c-1.1,0-2.3-.1-3.4-.1-2.5,0-5-.1-7.5-.2-2.7-.1-5.3-.1-8-.2-2.2-.1-4.3-.5-6.4-.8a21.32,21.32,0,0,1-16.9,5.4,19.37,19.37,0,0,1-12-6.5l-.7-.8a50.45,50.45,0,0,1-5.5,0h-6.5c-3.9,0-7.9,0-11.8-.3,0,2.5-.1,5.1.1,7.7.1,2.1.8,3.5,2.8,4.1a22.39,22.39,0,0,0,5.8.5l7.6.3L62,347l30,1c3.8.1,7.9.6,11.7-.5,4.5-1.3,5.6-5,5.8-9.3A2.49,2.49,0,0,0,109.61,337.41Zm-.1-29c0-2.4-.1-4.8-.2-7.3s-.6-3.9-3.1-4.5c-4.5-1-9.6-.7-14.2-1l-3.9-.2h-.2c-5.7-.2-11.4-.3-17.2-.2-11.1.1-22.3.5-33.4,1.5-1.7.2-4.1.3-5.3,1.7s-1,3.7-1.1,5.4v4.1c8.3-.3,16.7-.4,25-.2a25.09,25.09,0,0,1,6.1-5.1,21.87,21.87,0,0,1,16.8-1.8,18.4,18.4,0,0,1,7.5,4.4,16.44,16.44,0,0,1,2.6,3.3c1.8-.1,3.5-.4,5.3-.5s3.8,0,5.7,0l6.2.1A13.43,13.43,0,0,0,109.51,308.41Zm-2-21.2c.3-3.5-3.2-3.1-5.7-3.2a26.7,26.7,0,0,0-4,0c-.5,0-1.7,0-2,.6-.2.3.1,1.3.2,1.6.2,2,.5,4.1.6,6.1l4.3.1a48.86,48.86,0,0,1,5.4.3c.3-1.8,1.1-3.5,1.2-5.5ZM71,338c9.6-.7,17.2-9.5,17-19.1s-9.4-16.1-18.6-14.7a20,20,0,0,0-12.8,7.7c-.6.9-1.2,1.8-1.7,2.7a18.43,18.43,0,0,0-1.4,5.6,16.16,16.16,0,0,0,14.6,17.6A7.36,7.36,0,0,0,71,338Zm12.8-46,2.2.1a18,18,0,0,1-.4-5.2c0-1.8.2-3.9-.8-5.5-1.1-1.9-3.6-1.7-5.5-1.7-2.3,0-4.7-.1-7-.1-3.8,0-10.5-1.3-13.3,2-2.4,2.8-1.6,6.4-1.6,9.8,4.6,0,9.2.1,13.7.2,4.3,0,8.5.2,12.7.4Zm-29.4,17.9c-7.8.1-15.7-.1-23.5-.4v9.3c0,4.3,0,8.7.1,13,3.9-.3,7.9-.3,11.8-.3h6.5c1.1,0,2.3-.1,3.4-.1a13.71,13.71,0,0,1-2.5-6.8A22.24,22.24,0,0,1,54.41,309.91Zm-9-18.4c-.1-1.9,0-3.8,0-5.6,0-1.3.3-3.2-1.2-3.4-1.1-.1-2.7.6-3.8.9-1.3.3-2.6.6-3.9,1-1.6.6-1.5,1.6-1.1,3.1s.8,2.9,1,4.4h.2c3-.1,5.9-.3,8.8-.4Z"/><path class="cls-11" d="M109.61,311.61c.2,7.4.3,14.8.2,22.2-1-.1-2,0-3,0H91.31a42.1,42.1,0,0,0-5,.4,22.71,22.71,0,0,0,5.4-10.7,20.83,20.83,0,0,0-1.8-13c1.3.2,2.6.4,3.9.5l6.2.3,5.7.1C107,311.51,108.31,311.61,109.61,311.61Z"/><path class="cls-4" d="M106.31,337.21c1.1,0,2.3.2,3.4.1v.8c-.2,4.2-1.3,8-5.8,9.3-3.7,1.1-7.8.6-11.7.5l-30-1-14.8-.5-7.6-.3a22.77,22.77,0,0,1-5.8-.5c-2-.6-2.7-2-2.8-4.1-.1-2.5,0-5.1-.1-7.7,3.9.3,7.9.3,11.8.3h6.5a50.45,50.45,0,0,0,5.5,0l.7.8a18.9,18.9,0,0,0,12,6.5,21.81,21.81,0,0,0,16.9-5.4c2.1.3,4.2.7,6.4.8,2.7.1,5.3.1,8,.2C101.31,337.11,103.81,337.21,106.31,337.21Z"/><path class="cls-4" d="M109.31,301.21c.1,2.4.2,4.8.2,7.3-1.1-.1-2.3,0-3.3,0l-6.2-.1h-5.7a43.37,43.37,0,0,0-5.3.5,16.44,16.44,0,0,0-2.6-3.3,17.36,17.36,0,0,0-7.5-4.4,21.48,21.48,0,0,0-16.8,1.8,24.32,24.32,0,0,0-6.1,5c-8.3-.2-16.7-.1-25,.2v-4.1c0-1.7-.1-4,1.1-5.4s3.6-1.5,5.3-1.7c11.1-1.1,22.3-1.5,33.4-1.5,5.7,0,11.4,0,17.2.2h.2l3.9.2c4.6.3,9.7,0,14.2,1C108.71,297.31,109.21,298.91,109.31,301.21Z"/><path class="cls-16" d="M101.81,284.11c2.5,0,6-.4,5.7,3.2-.1,2-1,3.7-1.3,5.7a48.86,48.86,0,0,0-5.4-.3l-4.3-.1c-.1-2-.4-4.1-.6-6.1a10,10,0,0,1-.2-1.6c.3-.6,1.4-.5,2-.6A14.46,14.46,0,0,1,101.81,284.11Z"/><path class="cls-16" d="M88,319c.2,9.5-7.4,18.3-17,19.1a16.22,16.22,0,0,1-17.4-14.9,13.09,13.09,0,0,1,0-2.8,19,19,0,0,1,1.4-5.7,24.63,24.63,0,0,1,1.7-2.7,20,20,0,0,1,12.8-7.7C78.61,302.91,87.71,309.41,88,319Zm-4,3.5a12.69,12.69,0,0,0-3.3-11.2,10.75,10.75,0,0,0-4.7-2.8,13.29,13.29,0,0,0-10.5,1.1,14.88,14.88,0,0,0-7.5,13.7c.2,2.7,1.7,4.5,3.3,6.5a12.21,12.21,0,0,0,7.5,4.1C75.91,334.81,82.71,329.41,84,322.51Z"/><path class="cls-4" d="M86,292.11l-2.2-.1c-4.2-.2-8.4-.4-12.6-.5-4.6-.1-9.1-.2-13.7-.2,0-3.4-.8-7,1.6-9.8,2.8-3.3,9.4-2,13.3-2,2.3,0,4.7.1,7,.1,1.9,0,4.4-.2,5.5,1.7,1,1.6.8,3.7.8,5.5A15.65,15.65,0,0,0,86,292.11Zm-5.7-4.2a2.11,2.11,0,0,0,1.4-2.6,2,2,0,0,0-1.4-1.4c-2.9-1.1-6.3-.8-9.3-.7s-6.1.1-8.7,1.4a1.52,1.52,0,0,0-.5,2.2,1.21,1.21,0,0,0,.5.5c2.6,1.3,5.8,1.2,8.7,1.3S77.41,289,80.31,287.91Z"/><path class="cls-6" d="M80.71,311.31a12.58,12.58,0,0,1,3.3,11.2c-1.3,6.9-8.1,12.3-15.2,11.3a11.75,11.75,0,0,1-7.5-4.1c-1.7-2-3.1-3.8-3.3-6.5a14.88,14.88,0,0,1,7.5-13.7,13.29,13.29,0,0,1,10.5-1.1A13.64,13.64,0,0,1,80.71,311.31ZM71,331.61a11.77,11.77,0,0,0,10.6-11.9c-.1-6-5.8-10.1-11.6-9.2a12.21,12.21,0,0,0-8,4.8,9.91,9.91,0,0,0-1.1,1.7,10.64,10.64,0,0,0-.9,3.5,10.26,10.26,0,0,0,9.2,11.1A5.43,5.43,0,0,0,71,331.61Z"/><path class="cls-3" d="M81.71,319.71A11.78,11.78,0,0,1,71,331.61a10.19,10.19,0,0,1-10.9-9.4v-1.7A10.64,10.64,0,0,1,61,317a9.91,9.91,0,0,1,1.1-1.7,12.21,12.21,0,0,1,8-4.8C75.81,309.61,81.51,313.71,81.71,319.71Z"/><path class="cls-17" d="M80.31,284a2.11,2.11,0,0,1,1.4,2.6,2,2,0,0,1-1.4,1.4c-2.9,1.1-6.3.8-9.3.8s-6.1,0-8.7-1.3a1.52,1.52,0,0,1-.5-2.2,1.21,1.21,0,0,1,.5-.5c2.6-1.3,5.8-1.3,8.7-1.4S77.41,282.81,80.31,284Z"/><path class="cls-11" d="M30.91,309.51c7.8.3,15.6.5,23.5.4a22.24,22.24,0,0,0-4.2,14.7,14.08,14.08,0,0,0,2.5,6.8c-1.1,0-2.3.1-3.4.1h-6.5c-3.9,0-7.9,0-11.8.3,0-4.3,0-8.7-.1-13Q31.06,314.31,30.91,309.51Z"/><path class="cls-16" d="M45.41,286c.1,1.7-.1,3.7,0,5.6-2.9.1-5.9.3-8.8.5h-.2c-.2-1.5-.7-3-1-4.4s-.5-2.6,1.1-3.1c1.3-.4,2.6-.7,3.9-1,1.1-.3,2.6-1,3.8-.9C45.71,282.71,45.41,284.71,45.41,286Z"/><path class="cls-4" d="M321.51,71.61c1.9,1,4,2.2,4.7,4.4.6,1.8,0,3.8-.7,5.5-35.5-19-70.7-38.7-106.2-57.9-9.6-5.2-19.2-10.4-28.8-15.5l.1-.1c.9-2,2.4-4.4,4.9-4a11.1,11.1,0,0,1,3.9,1.6,14.76,14.76,0,0,0-1.2,2.9c-.1.5.5,1,.9.6a15,15,0,0,0,1.9-2.5c.6.3,1.1.7,1.6.9l2.6,1.4-.2.5c-.4.8-.7,1.6-1.1,2.4s.8,1.3,1.3.6a31.81,31.81,0,0,0,1.7-2.7l4.5,2.4c-.5.8-.9,1.7-1.4,2.6s.8,1.8,1.4.9,1.1-1.7,1.6-2.6l4.8,2.6c-.7,1-1.2,2.2-1.8,3.2-.2.4-.2.9.2,1.1s.9.2,1.1-.2h0c.6-1,1.6-2,2.3-3.1l4.1,2.2c-.4.8-.7,1.6-1.1,2.3s.7,1.6,1.2.8,1-1.5,1.5-2.2l4.3,2.3c-.1.1-.1.3-.2.5a26,26,0,0,1-1,2.5c-.3.6.8,1.2,1.1.6.4-.8.9-1.5,1.4-2.3l.2-.4.9.5,4,2.2a14.17,14.17,0,0,0-.8,1.8c-.2.6.6,1.4,1,.7s.8-1.1,1.1-1.7l4.9,2.6a23.86,23.86,0,0,0-1.2,2.2c-.6,1,.9,2.1,1.5,1a18.34,18.34,0,0,0,1.3-2.4l4,2.2c-.5.9-.9,1.9-1.4,2.8s.9,2.1,1.5,1,1.3-1.7,1.8-2.7l4.5,2.4a18.84,18.84,0,0,1-1.4,2.4c-.6.7.7,1.6,1.2.8s1.2-1.6,1.8-2.4l5.8,3.1c-.5.9-.8,1.9-1.2,2.8s1.2,1.5,1.6.6.8-1.7,1.2-2.5l5.1,2.7c-.5,1-.9,2-1.4,3-.4.8.7,1.5,1.1.8.6-1,1.4-1.9,1.9-2.9l5.3,2.8c-.5.9-.8,1.9-1.2,2.8a.93.93,0,0,0,.6,1.2.91.91,0,0,0,1-.3c.5-.8,1.1-1.7,1.6-2.6l6,3.3c-.5.8-.9,1.7-1.3,2.5s.8,1.8,1.4.9,1.1-1.7,1.6-2.6l5.8,3.1c-.7.9-1.2,2.1-1.8,3s.9,2.1,1.6,1.1a20.25,20.25,0,0,0,2.1-3l5.5,3c-.5,1-.9,2.1-1.3,3s1.2,1.9,1.7.9,1-1.9,1.5-2.9l5.4,2.9c-.4.8-.7,1.7-1.1,2.5s.8,1.7,1.3.8,1.2-1.6,1.7-2.4l5.3,2.8c-.5.7-.9,1.4-1.4,2.1a.86.86,0,0,0,1.4,1h0c.5-.7,1.1-1.4,1.7-2.1l5.5,3a27.3,27.3,0,0,0-2.1,3,1,1,0,0,0,.5,1.3,1.06,1.06,0,0,0,1.2-.2A35.29,35.29,0,0,0,321.51,71.61Z"/><path class="cls-6" d="M320.91,66.61c4.1,2.2,8.9,4.5,9.6,9.7.5,4-1.5,7.8-3.4,11.1-2.5,4.2-5.6,8.8-10.4,10.5-4.3,1.5-8.5,0-12.3-2.1-5.1-2.8-9.9-6.2-14.7-9.3-10.3-6.6-20.7-13.1-31-19.6l-10.3-6.5c-22.4-12.8-44.3-26.9-66.4-40.3a2.05,2.05,0,0,1-.6-2.8.78.78,0,0,1,.4-.4c2.7-2,3.2-5.2,4.1-8.2a14.73,14.73,0,0,1,3.5-6.5c4.3-4.3,9.3-1.4,13.7,1l36.7,19.7,64.4,34.7Zm5.3,9.4c-.7-2.2-2.9-3.3-4.7-4.4a21.84,21.84,0,0,1-2.2,3.1,1,1,0,0,1-1.6-1.1,27.3,27.3,0,0,1,2.1-3l-5.5-3c-.5.7-1.1,1.4-1.7,2.1a.86.86,0,0,1-1.4-1c.5-.7.9-1.4,1.4-2.1l-5.3-2.8c-.5.8-1.2,1.6-1.7,2.4s-1.7,0-1.3-.8.7-1.7,1.1-2.5l-5.3-2.9a26.39,26.39,0,0,1-1.5,2.9c-.5.9-2.2.1-1.7-.9s.8-2,1.3-3l-5.5-3c-.6,1.1-1.5,2.1-2.1,3s-2.3,0-1.6-1.1,1.1-2.1,1.8-3l-5.8-3.1c-.5.9-1.1,1.7-1.6,2.6s-1.9,0-1.4-.9.8-1.7,1.3-2.5l-6-3.3c-.5.9-1.1,1.8-1.6,2.6a1,1,0,0,1-1.3.2.78.78,0,0,1-.3-1c.4-.9.8-1.9,1.2-2.8l-5.3-2.9c-.5,1-1.3,1.9-1.9,2.9-.4.8-1.5,0-1.1-.8.5-1,.9-2.1,1.4-3l-5.1-2.8a19.23,19.23,0,0,1-1.2,2.5c-.4.8-2,.5-1.6-.6s.8-1.9,1.2-2.8l-5.8-3.1c-.6.8-1.2,1.5-1.8,2.4a.72.72,0,1,1-1.2-.8c.5-.8.9-1.6,1.4-2.4l-4.5-2.4a26.75,26.75,0,0,1-1.8,2.8.9.9,0,0,1-1.5-1c.5-.8.9-1.8,1.4-2.8l-4-2.2c-.4.8-.9,1.6-1.3,2.4-.6,1-2.1,0-1.5-1,.4-.7.8-1.5,1.2-2.2l-4.9-2.6c-.4.6-.8,1.2-1.1,1.7-.4.7-1.4,0-1-.7a7.1,7.1,0,0,0,.8-1.8l-4-2.2-.9-.5-.2.4a17.61,17.61,0,0,0-1.4,2.3c-.3.6-1.4.1-1.1-.6a18.61,18.61,0,0,0,1-2.5,1.69,1.69,0,0,1,.2-.5l-4.3-2.3c-.5.8-1.1,1.5-1.5,2.2s-1.6,0-1.2-.8.7-1.5,1.1-2.3l-4.1-2.2a35.53,35.53,0,0,1-2.3,3.1.79.79,0,1,1-1.3-.9h0c.6-.9,1.1-2.2,1.8-3.2l-4.8-2.6c-.5.9-1.1,1.8-1.6,2.6s-1.8,0-1.4-.9a21.48,21.48,0,0,1,1.4-2.6L207,9.61c-.5.9-1.2,1.8-1.7,2.7-.4.7-1.6.1-1.3-.6s.8-1.6,1.1-2.4l.2-.5-2.6-1.4c-.5-.3-1.1-.6-1.6-.9a15.67,15.67,0,0,1-2,2.5c-.4.4-1-.1-.9-.6a14.76,14.76,0,0,1,1.2-2.9,11.1,11.1,0,0,0-3.9-1.6c-2.5-.3-4,2-4.9,4l-.1.1c9.7,5.1,19.2,10.3,28.8,15.5,35.4,19.2,70.7,38.8,106.2,57.9A7.76,7.76,0,0,0,326.21,76Zm-8.6,16.7a25.71,25.71,0,0,0,7-9.3c-9.8-5.5-19.6-10.9-29.4-16.3-35.1-19.3-70.4-38.2-105.1-58.1-1.1,3.1-1.6,6.5-3.7,9,19.8,12.4,39.9,24.3,59.5,37.2l16.1,10c9.8,6.1,19.5,12.1,29.3,18.1,4.6,2.8,9.1,5.8,13.8,8.5C309.11,94.11,313.51,95.81,317.61,92.71Z"/><path class="cls-6" d="M311.31,80.31a5.43,5.43,0,0,1,5.2,5.5v.8a5.32,5.32,0,1,1-8.3-5.3A4.62,4.62,0,0,1,311.31,80.31Zm2.2,7.6a3.26,3.26,0,0,0-4.8-4.4,3.33,3.33,0,0,0-.1,4.3,3.14,3.14,0,0,0,4.2.7,4.35,4.35,0,0,0,.7-.6Z"/><path class="cls-8" d="M324.61,83.41a25.71,25.71,0,0,1-7,9.3c-4.1,3.1-8.5,1.4-12.4-.9-4.7-2.7-9.2-5.6-13.8-8.5-9.8-6-19.5-12-29.3-18.1l-16.1-10c-19.5-12.8-39.7-24.8-59.5-37.2,2-2.6,2.5-5.9,3.7-9,34.7,19.9,70,38.8,105.1,58.1C305,72.51,314.81,77.91,324.61,83.41Zm-8.2,2.8a5.35,5.35,0,0,0-10.6-1.4,5.5,5.5,0,0,0,1,3.9c2.8,3.6,8.7,2.4,9.5-2.2A.37.37,0,0,0,316.41,86.21Z"/><path class="cls-18" d="M17.14,190.19c-2.6-.2-7.3,2-8-2.1s4.5-5.5,7.6-4.8a.57.57,0,1,0,.3-1.1c-2.3-.9-4.9-1.2-7.1.1a6.2,6.2,0,0,0-3.2,5.8c.5,5.1,7.5,6.6,11,3.6C18.44,191.19,17.84,190.19,17.14,190.19Z"/><path class="cls-18" d="M28,187.39a5.63,5.63,0,0,0-3-1.2c-.5-.1-1-.1-1.4-.2-.8,0-1.1-.4-.9-1.3-.6-.9-.4-1.4.6-1.6a1.86,1.86,0,0,1,1.9.1.65.65,0,0,0,.9.2.61.61,0,0,0,.3-.7c-1-3.7-7.4-1-6.8,2.3.4,2.2,2.7,3,4.6,3.3,1.1.2,2,.1,1.9,1.4s-.6,1-1.6,1.2a3.75,3.75,0,0,1-4.2-1.4,1.05,1.05,0,0,0-1.3,0,.52.52,0,0,0-.2.4c-.7,2.1,1.2,3.6,3,3.9s5.1-.1,6.6-1.6a3.2,3.2,0,0,0,0-4.6C28.24,187.49,28.14,187.49,28,187.39Z"/><path class="cls-18" d="M40.34,189.49c-.7-2.6-3.7-3.2-5.9-3.9a15.87,15.87,0,0,1-2-.7,1.4,1.4,0,0,1-1.2-.9,4.13,4.13,0,0,1,1.1-.7,5.72,5.72,0,0,1,5.1.1c.7.3,1.3-.6.6-1a7.25,7.25,0,0,0-6.4-.7c-1.5.6-3.3,1.9-2.4,3.7a3.14,3.14,0,0,0,1.9,1.3c1.5.6,3,1.2,4.6,1.9.5.2,2.3.9,1.5,1.9-.4.5-1.9.4-2.4.4-1.4,0-2.8-.5-4.2-.1a1,1,0,0,0-.7,1.3.35.35,0,0,0,.1.2C32.34,195.39,41.84,194.59,40.34,189.49Z"/><path class="cls-18" d="M44.61,128.21c-.4-1.9-1.6-4-3.5-4.6a.63.63,0,0,0-.9-.3.1.1,0,0,0-.1.1.37.37,0,0,0-.3.1,1.27,1.27,0,0,0-.6.1,3.89,3.89,0,0,0-2.7,2.3,38.18,38.18,0,0,0-2.1,4.6c-.5,1.2,1.4,2,2.1.9.9-1.5,1.8-2.9,2.8-4.3a42.55,42.55,0,0,1,.8,8,35.67,35.67,0,0,1-1.5,9.7A39.11,39.11,0,0,1,28.51,162c-.4.4.2.9.6.6a37.58,37.58,0,0,0,11.4-17.3,39.69,39.69,0,0,0,1.7-16.4c.1.2.2.3.2.4a1.13,1.13,0,0,0,1.5.4A1.54,1.54,0,0,0,44.61,128.21Z"/><path class="cls-18" d="M33.81,238.11a37.47,37.47,0,0,0-1.8-8.2c-.4-1.1-2.3-1-2.2.3a38.52,38.52,0,0,0,.8,4.9c.1.7.3,1.4.4,2.1-2-2.9-4-5.5-5.1-8.9a22.06,22.06,0,0,1-.8-11.1c.1-.7-.9-.9-1-.3-1.4,6.9-.6,15.9,5,21-2.7-.5-5.5-1.4-8-2.1a.73.73,0,0,0-.4,1.4l7.2,2.4c1.4.4,3.5,1.6,5,.9C33.81,240.11,33.81,239.11,33.81,238.11Z"/><path class="cls-18" d="M160.51,288.21c-1.2-2.2-1.3-5.6-3.9-6.7-2.8-1.2-4,2-6.5,2.3a.66.66,0,0,0-.6.7c0,.3.3.5.6.6,1.5.1,4-2,5.3-1.3a30.3,30.3,0,0,1-2.4,3.8,18.24,18.24,0,0,1-5.3,4.2,17.81,17.81,0,0,1-13.6.6,6.82,6.82,0,0,0,.7-8.7c-2.7-3.9-8.4-3.2-11.9-.8a.81.81,0,0,0-.3.9,6.16,6.16,0,0,0,0,7.7,7.86,7.86,0,0,0,10.6,1.8c.1,0,.1-.1.2-.2a16.34,16.34,0,0,0,14.9,1,18.4,18.4,0,0,0,6.3-4.4,18.6,18.6,0,0,0,2.1-2.8,3.72,3.72,0,0,0,2,3.1,1.25,1.25,0,0,0,1.7-.7A.92.92,0,0,0,160.51,288.21Zm-27.5,2.2a5.47,5.47,0,0,1-7.3,1.4c-2.8-1.6-4-5.4-1.7-7.6,2.2-.4,4.4-1.2,6.6-.7a4.38,4.38,0,0,1,3,5.4,2,2,0,0,1-.6,1.5Z"/><path class="cls-18" d="M133.71,305a3.73,3.73,0,0,0-3.3-2.9,6.37,6.37,0,0,0-4.2,1.3.67.67,0,0,0-1,0,.76.76,0,0,0-.2.5v.3a.6.6,0,0,0,0,.8c0,2.2-.1,4.3-.1,6.5s-.3,4.6.2,6.9a.95.95,0,0,0,1.8,0,22.16,22.16,0,0,0,0-6.3,8.55,8.55,0,0,0,4.3-2C132.71,308.91,134.11,307,133.71,305Zm-2.8,1.7c-1,1.5-2.6,2-4.2,2.7-.1-1.6-.2-3.1-.3-4.7a4.55,4.55,0,0,1,3-.8c1.6.1,2.4,1.4,1.5,2.8Z"/><path class="cls-18" d="M143.91,303.21c-.1-1.7-2.8-1.8-2.7,0s0,3.6,0,5.5a35.33,35.33,0,0,1-4.6.1c-.2-1.7-.4-3.3-.5-4.9a.4.4,0,1,0-.8,0c-.1,4.1-1.3,8.7-.5,12.8a1,1,0,0,0,2,0,22.16,22.16,0,0,0,0-6.3,31.07,31.07,0,0,0,4.4.7,32.87,32.87,0,0,0,.5,5.4c.3,1.2,2.4,1.3,2.6,0a35.63,35.63,0,0,0,.1-7.3C144.71,307.31,144,304.61,143.91,303.21Z"/><path class="cls-18" d="M155.31,304.31a4.18,4.18,0,0,0-3.8-3,6.09,6.09,0,0,0-3.7,1,.83.83,0,0,0-1,.5v.1l-.8.6a.51.51,0,0,0,.6.8l.1-.1c0,2-.1,3.9-.1,5.9s-.3,3.9.5,5.7c.4.9,1.7.5,2-.3a10.55,10.55,0,0,0,.1-5,8.37,8.37,0,0,0,4-1.4A4.43,4.43,0,0,0,155.31,304.31Zm-2.4,1.2c-.7,1.8-2.4,1.8-4,2.2-.1-1.5-.3-2.9-.4-4.4a4.48,4.48,0,0,1,2-.4c1.4.1,3,1.1,2.4,2.6Z"/><path class="cls-18" d="M323.21,292c-.1-1.5-1.9-2.3-2.9-3-2-1.3-4-2.6-6-3.8a.64.64,0,1,0-.8,1l2.9,2.7c.4.4,1.4,1.1,2.2,1.7-1.8-.1-3.7,0-5.5-.1l-8.5-.2c-5.1-.1-10.1-.1-15.2,0,0-1.9,0-4.1-1.2-5-1.7-1.4-5.4-.6-7.4-.7-1.8,0-4.1-.4-5.2,1.4-.6,1.1-.4,2.6-.4,3.9v4.6a5.46,5.46,0,0,0,.1,1.8c.5,2.1,2.4,2.2,4.2,2.1l1.9-.1a14.57,14.57,0,0,0,1.2,13.3c1.9,3,5.7,6.4,9.5,6.4,0,.3-.2.4-.8.9-1.7,1.3-3.9,2-5.1,3.8a.93.93,0,0,0,.3,1.2.75.75,0,0,0,.5.1,9.62,9.62,0,0,0,4.2-2c1.1-.7,2.9-1.5,3.4-2.8a2.92,2.92,0,0,0-.7-2.7c-1.2-1.7-2.5-3.2-3.8-4.8-.4-.5-1,.1-.8.6l1.6,3c-2.4-1.2-4.7-2.2-6.4-4.6a14.77,14.77,0,0,1-2.1-12.4v-.1l1.9-.1c1.2-.1,2.6.1,3.7-.5,1.9-1,1.5-3.3,1.4-5.1v-.8c5.1.3,10.2.6,15.3.7,2.6.1,5.3.2,8,.2,2.1.1,4.2.3,6.3.2l-1.8,1.2a13.09,13.09,0,0,0-3.1,2.7c-.6.8-.1,2.2,1.1,1.8A24.22,24.22,0,0,0,321,295C322,294.31,323.41,293.51,323.21,292Zm-36.2.5c.1,2.4.3,3-2.3,3.2-1.7.1-3.5.3-5.2.4-1.1.1-1.7.4-2.1-.7v-5.5c0-1-.3-2.5.9-3a9.64,9.64,0,0,1,2.4,0l2.6.1a7.48,7.48,0,0,1,2.6.1c1.6.6,1.1,4,1.1,5.4Z"/><path class="cls-18" d="M334.71,315.51c0-2.5.2-5,0-7.4a4.07,4.07,0,0,0-2.3-3.9c-1.6-.8-3.6-.5-5.4-.5l-8.8.1c-2.9,0-5.9.1-8.8.1-1.6,0-3.5,0-4.4,1.6-1,1.9-.4,5-.4,7l.1,9.7v.6c-.1,2.6-.1,5.2-.2,7.8,0,1.9-.5,4.5.7,6.2a5,5,0,0,0,3.4,1.6c2.5.3,5.1.3,7.6.5,4,.3,8.5.8,12.3-1C336.51,334.21,334.61,322.51,334.71,315.51Zm-24.3,20.7c-1.9-.1-3-.4-3.4-2.6a25.39,25.39,0,0,1,0-3.9c0-2.6,0-5.2-.1-7.8-.1-3.9-.2-7.8-.3-11.6,0-1.8.2-3.6,1-4s2.9-.1,3.9-.1h3.9l7.8-.1h3.9c1.1,0,2.8-.3,3.8.1,2.5.9,1.5,5.8,1.5,7.6,0,4.5.2,9-.2,13.4-2.2-.3-4.7.2-6.9.4-.5,0-1.1.4-1,1,.4,2.7.7,5.4,1.3,8a17,17,0,0,1-2.2.4C319.11,337.11,314.71,336.51,310.41,336.21ZM327,336c0-2.2-.3-4.4-.5-6.6a34.3,34.3,0,0,0,5.6-.5C331.51,332.31,329.81,334.81,327,336Z"/><path class="cls-18" d="M327.81,312.81c-2.4-1-5.2-.7-7.8-.7-3.1,0-6.3.1-9.4.1-.4,0-.6.4-.6.8a.65.65,0,0,0,.6.6c3,.2,5.9.5,8.9.6,2.6.1,5.6.7,8.1-.2C328.11,313.81,328.41,313,327.81,312.81Z"/><path class="cls-18" d="M326.81,318.21c-2-1.2-4.8-.9-7-.9a51.23,51.23,0,0,0-7.8.6.56.56,0,0,0,.1,1.1,64.3,64.3,0,0,1,7.6.2c2.2.1,4.7.9,6.9.3a.72.72,0,0,0,.5-.9C327.11,318.41,327,318.31,326.81,318.21Z"/><path class="cls-18" d="M322.51,323.71c-3.8-.9-7.9.3-11.7.4-.7,0-.8,1.2,0,1.2,3.8-.1,8,.8,11.7-.3a.68.68,0,0,0,.4-.8A1,1,0,0,0,322.51,323.71Z"/><path class="cls-18" d="M390.71,126.61c-2.2-2.6-6-3.3-8.3-5.7-1.3-1.3.6-2.9,1.4-4.2a38.22,38.22,0,0,0,2.9-4.8c.4-.8-.6-1.6-1.2-.9a63.64,63.64,0,0,0-4.6,5.7c-1,1.3-2.5,2.8-1.8,4.5.6,1.5,2.6,2.4,3.9,3.2,2.1,1.4,4.2,3.3,6.6,4a1.13,1.13,0,0,0,1.3-.9A.8.8,0,0,0,390.71,126.61Z"/><path class="cls-18" d="M395.61,120l-.6-1.5a.83.83,0,0,0-1-.5.72.72,0,0,0-.5.9,8.75,8.75,0,0,1,.2,1.6c.1.7.3,1.3,1,1.5a.78.78,0,0,0,.8-.2A1.37,1.37,0,0,0,395.61,120Z"/><path class="cls-18" d="M401.31,120.81a15.09,15.09,0,0,0-1.5-2.8,1,1,0,0,0-1.2-.3.87.87,0,0,0-.4.9,10.6,10.6,0,0,0,1,3,1.13,1.13,0,0,0,1.6.3A.89.89,0,0,0,401.31,120.81Z"/><path class="cls-18" d="M406.11,120.21a18,18,0,0,1-.8-2.1c-.2-1.1-1.9-.6-1.7.5v2c.1.9.7,1.9,1.7,1.6A1.64,1.64,0,0,0,406.11,120.21Z"/><path class="cls-18" d="M414.71,114.31c-2.5-1.8-5-3.5-7.7-5.2a.37.37,0,0,0-.5.2c-.1.1-.1.3.1.5,1.5,1.5,2.9,3,4.5,4.5.8.7,4.3,3,4,4.3-.1.4-1.8,1.8-2.1,2.1l-2.1,2.1c-1.3,1.4-2.9,2.6-3.4,4.5a1.1,1.1,0,0,0,.8,1.4.64.64,0,0,0,.6,0c2.4-.8,4-3.2,5.6-5,1.2-1.3,3.7-3.2,3.7-5.3S416,115.31,414.71,114.31Z"/><path class="cls-18" d="M391.81,143.71c1,.1,1.4-1.3.4-1.5-5-1-11.6,1-11.8,7-.2,5.8,6.9,8.7,11.5,6.1a.86.86,0,0,0,.3-1.2,1,1,0,0,0-.5-.4c-3.2-.9-8.4.9-9-4S387.91,143.11,391.81,143.71Z"/><path class="cls-18" d="M413.51,147.61c-1-.7-2.9-1-3.6-2.1-.8-.4-.8-.8,0-1.4a1.24,1.24,0,0,1,1.4-1.1.37.37,0,0,1,.3.1,6.18,6.18,0,0,1,2.7.9c.8.5,1.5-.8.8-1.3-2.4-1.6-9.3-1.9-7.7,2.8a5,5,0,0,0,1.8,2.3c.8.6,2.6,1.3,3.1,2.2,1,2-1.8,2.1-3.1,2.3s-2.8.2-4.2.4v-.1a3.77,3.77,0,0,0-2.1-4.6,11.4,11.4,0,0,0-3.3-.8c-.3-.1-.7-.1-1-.2-1.2-.2-1.5-.8-1-1.6.4-1.4,1.9-1.1,3.1-1.1.9.1.9-1.3,0-1.4-1.7-.2-3.6-.2-4.7,1.3a2.91,2.91,0,0,0,.5,3.9,7.19,7.19,0,0,0,2.8,1.3c1,.3,4.3,1,2.6,2.4-2,1.7-5.3-.1-7.5-.1a.94.94,0,0,0-1,1,1.14,1.14,0,0,0,.3.8c1.8,2.3,6.9,2.7,9.7.9a1.41,1.41,0,0,0,1,1.1c3.1,1,10.8.7,11.3-3.7A4.73,4.73,0,0,0,413.51,147.61Z"/><path class="cls-18" d="M106.41,32.11a51.7,51.7,0,0,1-.3-7.9.9.9,0,1,0-1.8,0c-.1,2.4-.3,4.8-.3,7.2a19.29,19.29,0,0,0-5.4,1.2v-.1c-.2-2.1-.5-4.3-.7-6.4-.1-1.2-1.9-1.2-1.8,0,.1,2.3,0,4.5.1,6.8,0,1.9-.1,3.8.7,5.5.3.8,1.5.5,1.7-.2a9.86,9.86,0,0,0,.2-3.8A22.38,22.38,0,0,0,104,34a11.48,11.48,0,0,0,1,5.5,1.13,1.13,0,0,0,1.5.4,1.47,1.47,0,0,0,.5-.6C107.51,36.91,106.71,34.41,106.41,32.11Z"/><path class="cls-18" d="M117.81,23.31c-3.3-.2-6.7,1.2-9.8,1.8-.8.1-.6,1.4.2,1.3,1.2-.1,2.6-.1,3.9-.1a27.15,27.15,0,0,0,0,5.7c.1,2.3-.1,4.8.8,6.9.4,1,2.1,1.3,2.4,0,.6-2.4,0-5-.3-7.4a30.79,30.79,0,0,0-.8-5.3,14.1,14.1,0,0,0,4.1-.7,1.08,1.08,0,0,0,.7-1.4A1.41,1.41,0,0,0,117.81,23.31Z"/><path class="cls-18" d="M129.61,36.41c-.6-3.9-1.8-7.6-2.2-11.5-.1-1.2-2-1.7-2.3-.3s-.5,2.5-.8,3.8c-.2.9-.3,3.3-.8,4s-.9-1.2-1.2-1.8l-2-4a1.28,1.28,0,0,0-1.7-.4,1.33,1.33,0,0,0-.6,1c0,3.1-.4,6.5.5,9.5a.55.55,0,0,0,.5.3q.15,0,.3-.3a15.89,15.89,0,0,0,.9-3.9,6.11,6.11,0,0,0,.7,1.4c.7,1.3,2,2.3,3.5,1.8s1.9-1.7,2.2-2.9c.2,1.3.4,2.7.7,4C127.41,38.71,129.81,38,129.61,36.41Z"/><path class="cls-18" d="M141.81,34.81a3.39,3.39,0,0,0-3.3-.9c-1.1.1-2.6,1-3.7.6-1.4-.4-1.1-3.1-1.2-4.4a23,23,0,0,0-.5-4.5.55.55,0,0,0-.5-.3q-.15,0-.3.3a29,29,0,0,0-.9,5.9c-.2,1.6-.4,3.4.7,4.8a4.19,4.19,0,0,0,3.8,1.4,35,35,0,0,0,5.6-1.3,1,1,0,0,0,.6-1.3C141.91,34.91,141.91,34.81,141.81,34.81Z"/><path class="cls-18" d="M158.41,45.51a32.16,32.16,0,0,0-5.3-2.5h0a.66.66,0,0,0-.8.5c-.1.2,0,.4.2.6a20.14,20.14,0,0,0,2.9,2.2,1.63,1.63,0,0,0,.6.3h-14.5c-6,0-11.9.5-17.9.6-.4-2.9-1.9-5-5.3-4.5a6,6,0,0,0-4,1.7c-1.1,1.5-.8,3.3-.4,4.9a.55.55,0,0,0,.3.5c.1,1.9.8,3.5,3.3,3.5,3.4.1,6.6-1.5,6.2-5.3v-.3c5.9.2,11.9.8,17.8.9,3,.1,6,.1,9,.1,1.6,0,3.2.1,4.8.2-1.3.6-2.4,1.3-3.6,2a1.1,1.1,0,0,0-.4,1.5,1,1,0,0,0,1.3.5,52,52,0,0,0,5.5-2.1c1.2-.5,2.9-1.1,3.1-2.6S159.61,46.11,158.41,45.51Zm-38.7,5.4a5.66,5.66,0,0,1-2.6.3c-1.4-.4-1.3-3.4-1.3-5.3a3.49,3.49,0,0,1,2.4-1c1.3-.2,2.3-.1,2.8,1.2a6.26,6.26,0,0,1,.3,2.7A2,2,0,0,1,119.71,50.91Z"/><path class="cls-18" d="M197.81,42.41a22.43,22.43,0,0,1-8.1-3.5c-.5-.4-1.2.5-.7.9a39.69,39.69,0,0,0,5.4,3.7,34.86,34.86,0,0,1-7.9.3,28.47,28.47,0,0,1-10.9-3.5c-5.2-3.1-8.6-7.5-11.4-12.7a7,7,0,0,0,3.9-6,7.39,7.39,0,0,0-7.2-7.6,7.61,7.61,0,0,0-2.1.3c-4.8,1.3-7.1,7.8-3.6,11.5a.61.61,0,0,0,.8.1,6.2,6.2,0,0,0,2.2,1.7,6.34,6.34,0,0,0,4.7.4c1.9,5.9,6.7,11.1,12,14.1,5.1,3,12.3,4.9,18.4,3.8a14,14,0,0,0-2.9,4.8,1.08,1.08,0,0,0,.7,1.4,1.31,1.31,0,0,0,1.2-.3c2.1-2.4,3.8-5.1,6.1-7.5a1.15,1.15,0,0,0,0-1.7A1.42,1.42,0,0,1,197.81,42.41Zm-35.4-16.5a4.41,4.41,0,0,1-3.2-.1c-3.7-1.5-3.9-6.2-1.1-8.6l.1-.1.3-.2a5,5,0,0,1,6.7,2.3,7.49,7.49,0,0,1,.5,1.6,4.77,4.77,0,0,1-2.5,4.9.53.53,0,0,0-.7.2C162.51,25.81,162.41,25.91,162.41,25.91Z"/></g></g></g></svg>